M48
;Layer_Color=9474304
;FILE_FORMAT=4:3
METRIC,LZ
;TYPE=PLATED
T1F00S00C0.300
T2F00S00C0.600
T4F00S00C0.850
T5F00S00C0.900
%
T01
X00156Y00098
X00379Y00112
X00384Y00128
X00387Y00077
X00385Y00059
X00351Y00167
X0035Y00242
X00334Y00249
X0035571Y0026371
X0037936Y0026464
X00392Y00247
X00427Y00262
X00438Y0028
X00454Y00281
X00473Y00277
X004475Y003215
X00412Y00307
X00393Y00323
Y00333
X00385Y00353
X0037164Y0032564
X0036Y00295
X00337Y00317
X0033Y00334
X00325Y00345
X00347Y00347
X0035Y00384
X00365Y00401
X00346Y00446
X0035325Y0047725
X0037275
X0032725
X00307Y00538
X0029Y00401
X00267Y00395
X002715Y003735
X00286Y00328
X00298Y00334
X00267Y00315
X00257Y00318
X00249Y00324
X00249Y00309
X00258Y00296
X00266Y00301
X0028275Y0029425
X00261Y00198
X00218Y00203
Y00167
X00161Y00278
Y00292
X0015Y00395
X00175Y00441
X00188Y00486
X00208Y0037
X00434Y0039175
X0044125Y00399
X00483Y00368
X00403Y00456
X00443Y00206
X00091Y00226
X00071Y00205
Y00174
X0003023Y0022677
X00023Y00245
X0007377Y0031923
X00125Y00302
X00137Y00276
X00125Y00363
X00068Y00397
X00035Y00423
X00353Y00554
X003975Y005575
T02
X0004505Y0026233
Y0027503
Y0028773
Y0030043
Y0031313
X0005775
Y0030043
Y0028773
Y0027503
Y0026233
T04
X00468Y004595
Y005095
T05
X001812Y000716
X002066
X00232
X002574
X002828
X003082
Y00097
X002828
X002574
X00232
X002066
X001812
X00407Y003456
Y00371
M30
