G04 Layer_Physical_Order=1*
G04 Layer_Color=255*
%FSLAX43Y43*%
%MOMM*%
G71*
G01*
G75*
%ADD10C,0.600*%
%ADD11O,0.350X2.100*%
%ADD12R,0.900X0.800*%
%ADD13R,0.800X0.900*%
%ADD14R,1.016X1.016*%
%ADD15R,1.900X1.500*%
%ADD16R,1.350X0.400*%
%ADD17C,1.500*%
%ADD18R,3.300X2.200*%
%ADD19R,1.000X2.200*%
%ADD20R,0.800X1.600*%
%ADD21R,1.016X1.016*%
%ADD22R,2.400X1.900*%
%ADD23R,0.700X0.500*%
%ADD24R,0.500X0.500*%
%ADD25R,0.500X0.500*%
%ADD26R,0.500X0.700*%
%ADD27R,1.500X0.500*%
%ADD28O,0.300X2.000*%
%ADD29O,2.000X0.300*%
%ADD30C,0.500*%
%ADD31C,0.200*%
%ADD32C,0.254*%
%ADD33O,1.900X1.250*%
%ADD34C,1.450*%
%ADD35R,1.500X1.500*%
%ADD36R,1.000X1.000*%
%ADD37C,1.000*%
%ADD38R,1.500X1.500*%
%ADD39C,0.700*%
G36*
X50000Y52910D02*
X49905Y52826D01*
X49825Y52837D01*
X49627D01*
Y51950D01*
Y51063D01*
X49825D01*
X49905Y51074D01*
X50000Y50990D01*
Y50456D01*
X48550D01*
X48433Y50433D01*
X48334Y50366D01*
X48267Y50267D01*
X48244Y50150D01*
Y48650D01*
X48267Y48533D01*
X48294Y48493D01*
X48323Y48400D01*
X48294Y48307D01*
X48267Y48267D01*
X48244Y48150D01*
Y46650D01*
X48267Y46533D01*
X48334Y46434D01*
X48433Y46367D01*
X48550Y46344D01*
X50000D01*
Y45910D01*
X49905Y45826D01*
X49825Y45837D01*
X49627D01*
Y44950D01*
Y44063D01*
X49825D01*
X49905Y44074D01*
X50000Y43990D01*
Y1000D01*
X1000D01*
Y57000D01*
X50000D01*
Y52910D01*
D02*
G37*
%LPC*%
G36*
X24908Y15214D02*
X23892D01*
X23775Y15191D01*
X23676Y15124D01*
X23538Y15147D01*
X23523Y15157D01*
X23424Y15177D01*
X23043D01*
Y14410D01*
Y13643D01*
X23424D01*
X23523Y13663D01*
X23529Y13667D01*
X23676Y13676D01*
X23775Y13609D01*
X23892Y13586D01*
X24908D01*
X25025Y13609D01*
X25124Y13676D01*
X25191Y13775D01*
X25214Y13892D01*
Y14908D01*
X25191Y15025D01*
X25124Y15124D01*
X25025Y15191D01*
X24908Y15214D01*
D02*
G37*
G36*
X28492Y15324D02*
X27476D01*
X27359Y15300D01*
X27260Y15234D01*
X27217Y15170D01*
X27211Y15165D01*
X27095Y15132D01*
X27063Y15131D01*
X27039Y15147D01*
X26940Y15167D01*
X26559D01*
Y14400D01*
Y13633D01*
X26940D01*
X27039Y13653D01*
X27123Y13709D01*
X27141Y13735D01*
X27238Y13776D01*
X27298Y13760D01*
X27359Y13719D01*
X27476Y13696D01*
X28492D01*
X28609Y13719D01*
X28708Y13786D01*
X28775Y13885D01*
X28798Y14002D01*
Y15018D01*
X28775Y15135D01*
X28708Y15234D01*
X28609Y15300D01*
X28492Y15324D01*
D02*
G37*
G36*
X29889Y15277D02*
X29508D01*
X29409Y15257D01*
X29325Y15201D01*
X29269Y15117D01*
X29249Y15018D01*
Y14637D01*
X29889D01*
Y15277D01*
D02*
G37*
G36*
X30524D02*
X30143D01*
Y14637D01*
X30783D01*
Y15018D01*
X30763Y15117D01*
X30707Y15201D01*
X30623Y15257D01*
X30524Y15277D01*
D02*
G37*
G36*
X21392Y15224D02*
X20376D01*
X20259Y15200D01*
X20160Y15134D01*
X20013Y15143D01*
X20007Y15147D01*
X19908Y15167D01*
X19527D01*
Y14400D01*
Y13633D01*
X19908D01*
X20007Y13653D01*
X20022Y13663D01*
X20160Y13686D01*
X20259Y13619D01*
X20376Y13596D01*
X21392D01*
X21509Y13619D01*
X21608Y13686D01*
X21675Y13785D01*
X21698Y13902D01*
Y14918D01*
X21675Y15035D01*
X21608Y15134D01*
X21509Y15200D01*
X21392Y15224D01*
D02*
G37*
G36*
X21673Y17291D02*
X21564Y17269D01*
X21365Y17135D01*
X21231Y16936D01*
X21209Y16827D01*
X21673D01*
Y17291D01*
D02*
G37*
G36*
X6973Y17991D02*
X6864Y17969D01*
X6665Y17835D01*
X6531Y17636D01*
X6509Y17527D01*
X6973D01*
Y17991D01*
D02*
G37*
G36*
Y17273D02*
X6509D01*
X6531Y17164D01*
X6665Y16965D01*
X6864Y16831D01*
X6973Y16809D01*
Y17273D01*
D02*
G37*
G36*
X21673Y16573D02*
X21209D01*
X21231Y16464D01*
X21365Y16265D01*
X21564Y16131D01*
X21673Y16109D01*
Y16573D01*
D02*
G37*
G36*
X9045Y17273D02*
X8463D01*
Y16741D01*
X8786D01*
X8885Y16761D01*
X8970Y16817D01*
X9026Y16901D01*
X9045Y17000D01*
Y17273D01*
D02*
G37*
G36*
X26305Y14273D02*
X25665D01*
Y13892D01*
X25685Y13793D01*
X25741Y13709D01*
X25825Y13653D01*
X25924Y13633D01*
X26305D01*
Y14273D01*
D02*
G37*
G36*
X22789Y14283D02*
X22149D01*
Y13902D01*
X22169Y13803D01*
X22225Y13719D01*
X22309Y13663D01*
X22408Y13643D01*
X22789D01*
Y14283D01*
D02*
G37*
G36*
X19273Y14273D02*
X18633D01*
Y13892D01*
X18653Y13793D01*
X18709Y13709D01*
X18793Y13653D01*
X18892Y13633D01*
X19273D01*
Y14273D01*
D02*
G37*
G36*
X39709Y13459D02*
X39386D01*
X39287Y13439D01*
X39203Y13383D01*
X39147Y13299D01*
X39129Y13208D01*
X38854D01*
X38835Y13235D01*
X38636Y13369D01*
X38527Y13391D01*
Y12800D01*
Y12209D01*
X38636Y12231D01*
X38835Y12365D01*
X38854Y12392D01*
X39129D01*
X39147Y12301D01*
X39203Y12217D01*
X39287Y12161D01*
X39386Y12141D01*
X39709D01*
Y12800D01*
Y13459D01*
D02*
G37*
G36*
X17876Y15214D02*
X16860D01*
X16743Y15191D01*
X16644Y15124D01*
X16577Y15025D01*
X16554Y14908D01*
Y13892D01*
X16577Y13775D01*
X16644Y13676D01*
X16743Y13609D01*
X16860Y13586D01*
X17876D01*
X17993Y13609D01*
X18092Y13676D01*
X18159Y13775D01*
X18182Y13892D01*
Y14908D01*
X18159Y15025D01*
X18092Y15124D01*
X17993Y15191D01*
X17876Y15214D01*
D02*
G37*
G36*
X26305Y15167D02*
X25924D01*
X25825Y15147D01*
X25741Y15091D01*
X25685Y15007D01*
X25665Y14908D01*
Y14527D01*
X26305D01*
Y15167D01*
D02*
G37*
G36*
X22789Y15177D02*
X22408D01*
X22309Y15157D01*
X22225Y15101D01*
X22169Y15017D01*
X22149Y14918D01*
Y14537D01*
X22789D01*
Y15177D01*
D02*
G37*
G36*
X19273Y15167D02*
X18892D01*
X18793Y15147D01*
X18709Y15091D01*
X18653Y15007D01*
X18633Y14908D01*
Y14527D01*
X19273D01*
Y15167D01*
D02*
G37*
G36*
X29889Y14383D02*
X29249D01*
Y14002D01*
X29269Y13903D01*
X29325Y13819D01*
X29409Y13763D01*
X29508Y13743D01*
X29889D01*
Y14383D01*
D02*
G37*
G36*
X30783D02*
X30143D01*
Y13743D01*
X30524D01*
X30623Y13763D01*
X30707Y13819D01*
X30763Y13903D01*
X30783Y14002D01*
Y14383D01*
D02*
G37*
G36*
X8786Y18059D02*
X8463D01*
Y17527D01*
X9045D01*
Y17800D01*
X9026Y17899D01*
X8970Y17983D01*
X8885Y18039D01*
X8786Y18059D01*
D02*
G37*
G36*
X9691Y22473D02*
X9227D01*
Y22009D01*
X9336Y22031D01*
X9535Y22165D01*
X9669Y22364D01*
X9691Y22473D01*
D02*
G37*
G36*
X4731Y22550D02*
X4149D01*
Y22018D01*
X4472D01*
X4571Y22038D01*
X4656Y22094D01*
X4712Y22178D01*
X4731Y22277D01*
Y22550D01*
D02*
G37*
G36*
X7807Y23546D02*
Y22550D01*
Y21554D01*
X7942Y21572D01*
X8186Y21673D01*
X8396Y21834D01*
X8557Y22044D01*
X8582Y22104D01*
X8715Y22131D01*
X8864Y22031D01*
X8973Y22009D01*
Y22600D01*
Y23191D01*
X8864Y23169D01*
X8695Y23056D01*
X8604Y23056D01*
X8540Y23078D01*
X8396Y23266D01*
X8186Y23427D01*
X7942Y23528D01*
X7807Y23546D01*
D02*
G37*
G36*
X8209Y21159D02*
X7886D01*
X7787Y21139D01*
X7703Y21083D01*
X7647Y20999D01*
X7647Y20997D01*
X7608Y20976D01*
X7509Y20953D01*
X7336Y21069D01*
X7227Y21091D01*
Y20500D01*
Y19909D01*
X7336Y19931D01*
X7509Y20047D01*
X7608Y20024D01*
X7647Y20003D01*
X7647Y20001D01*
X7703Y19917D01*
X7787Y19861D01*
X7886Y19841D01*
X8209D01*
Y20500D01*
Y21159D01*
D02*
G37*
G36*
X7553Y22423D02*
X6684D01*
X6702Y22288D01*
X6803Y22044D01*
X6964Y21834D01*
X7174Y21673D01*
X7418Y21572D01*
X7553Y21554D01*
Y22423D01*
D02*
G37*
G36*
X2896Y23268D02*
X2787Y23246D01*
X2588Y23112D01*
X2454Y22913D01*
X2432Y22804D01*
X2896D01*
Y23268D01*
D02*
G37*
G36*
X4472Y23336D02*
X4149D01*
Y22804D01*
X4731D01*
Y23077D01*
X4712Y23176D01*
X4656Y23260D01*
X4571Y23316D01*
X4472Y23336D01*
D02*
G37*
G36*
X9227Y23191D02*
Y22727D01*
X9691D01*
X9669Y22836D01*
X9535Y23035D01*
X9336Y23169D01*
X9227Y23191D01*
D02*
G37*
G36*
X2896Y22550D02*
X2432D01*
X2454Y22441D01*
X2588Y22242D01*
X2787Y22108D01*
X2896Y22086D01*
Y22550D01*
D02*
G37*
G36*
X7553Y23546D02*
X7418Y23528D01*
X7174Y23427D01*
X6964Y23266D01*
X6803Y23056D01*
X6702Y22812D01*
X6684Y22677D01*
X7553D01*
Y23546D01*
D02*
G37*
G36*
X6973Y20373D02*
X6509D01*
X6531Y20264D01*
X6665Y20065D01*
X6864Y19931D01*
X6973Y19909D01*
Y20373D01*
D02*
G37*
G36*
X42827Y21696D02*
Y20700D01*
Y19704D01*
X42962Y19722D01*
X43206Y19823D01*
X43416Y19984D01*
X43576Y20192D01*
X43846D01*
X43865Y20165D01*
X44064Y20031D01*
X44173Y20009D01*
Y20600D01*
Y21191D01*
X44064Y21169D01*
X43865Y21035D01*
X43846Y21008D01*
X43659D01*
X43577Y21206D01*
X43416Y21416D01*
X43206Y21577D01*
X42962Y21678D01*
X42827Y21696D01*
D02*
G37*
G36*
X9045Y20373D02*
X8463D01*
Y19841D01*
X8786D01*
X8885Y19861D01*
X8970Y19917D01*
X9026Y20001D01*
X9045Y20100D01*
Y20373D01*
D02*
G37*
G36*
X8209Y18059D02*
X7886D01*
X7787Y18039D01*
X7703Y17983D01*
X7647Y17899D01*
X7647Y17897D01*
X7608Y17876D01*
X7509Y17853D01*
X7336Y17969D01*
X7227Y17991D01*
Y17400D01*
Y16809D01*
X7336Y16831D01*
X7509Y16947D01*
X7608Y16924D01*
X7647Y16903D01*
X7647Y16901D01*
X7703Y16817D01*
X7787Y16761D01*
X7886Y16741D01*
X8209D01*
Y17400D01*
Y18059D01*
D02*
G37*
G36*
X42573Y20573D02*
X41704D01*
X41722Y20438D01*
X41823Y20194D01*
X41984Y19984D01*
X42194Y19823D01*
X42438Y19722D01*
X42573Y19704D01*
Y20573D01*
D02*
G37*
G36*
X44427Y21191D02*
Y20727D01*
X44891D01*
X44869Y20836D01*
X44735Y21035D01*
X44536Y21169D01*
X44427Y21191D01*
D02*
G37*
G36*
X42573Y21696D02*
X42438Y21678D01*
X42194Y21577D01*
X41984Y21416D01*
X41823Y21206D01*
X41722Y20962D01*
X41704Y20827D01*
X42573D01*
Y21696D01*
D02*
G37*
G36*
X6973Y21091D02*
X6864Y21069D01*
X6665Y20935D01*
X6531Y20736D01*
X6509Y20627D01*
X6973D01*
Y21091D01*
D02*
G37*
G36*
X44891Y20473D02*
X44427D01*
Y20009D01*
X44536Y20031D01*
X44735Y20165D01*
X44869Y20364D01*
X44891Y20473D01*
D02*
G37*
G36*
X8786Y21159D02*
X8463D01*
Y20627D01*
X9045D01*
Y20900D01*
X9026Y20999D01*
X8970Y21083D01*
X8885Y21139D01*
X8786Y21159D01*
D02*
G37*
G36*
X24757Y3357D02*
X24376D01*
X24277Y3337D01*
X24193Y3281D01*
X24137Y3197D01*
X24127Y3147D01*
X24068Y3131D01*
X23995Y3133D01*
X23940Y3214D01*
X23841Y3281D01*
X23724Y3304D01*
X22708D01*
X22591Y3281D01*
X22492Y3214D01*
X22425Y3115D01*
X22402Y2998D01*
Y1982D01*
X22425Y1865D01*
X22492Y1766D01*
X22591Y1700D01*
X22708Y1676D01*
X23724D01*
X23841Y1700D01*
X23940Y1766D01*
X24007Y1865D01*
X24022Y1943D01*
X24046Y1952D01*
X24154Y1957D01*
X24193Y1899D01*
X24277Y1843D01*
X24376Y1823D01*
X24757D01*
Y2590D01*
Y3357D01*
D02*
G37*
G36*
X10000Y6439D02*
X9627Y6390D01*
X9280Y6246D01*
X8982Y6018D01*
X8754Y5720D01*
X8610Y5373D01*
X8561Y5000D01*
X8610Y4627D01*
X8754Y4280D01*
X8982Y3982D01*
X9280Y3754D01*
X9627Y3610D01*
X10000Y3561D01*
X10373Y3610D01*
X10720Y3754D01*
X11018Y3982D01*
X11246Y4280D01*
X11390Y4627D01*
X11439Y5000D01*
X11390Y5373D01*
X11246Y5720D01*
X11018Y6018D01*
X10720Y6246D01*
X10373Y6390D01*
X10000Y6439D01*
D02*
G37*
G36*
X29092Y3357D02*
X28711D01*
Y2717D01*
X29351D01*
Y3098D01*
X29331Y3197D01*
X29275Y3281D01*
X29191Y3337D01*
X29092Y3357D01*
D02*
G37*
G36*
X18176Y3267D02*
X17795D01*
Y2627D01*
X18435D01*
Y3008D01*
X18415Y3107D01*
X18359Y3191D01*
X18275Y3247D01*
X18176Y3267D01*
D02*
G37*
G36*
X25392Y3357D02*
X25011D01*
Y2717D01*
X25651D01*
Y3098D01*
X25631Y3197D01*
X25575Y3281D01*
X25491Y3337D01*
X25392Y3357D01*
D02*
G37*
G36*
X38373Y6491D02*
X38264Y6469D01*
X38065Y6335D01*
X37931Y6136D01*
X37909Y6027D01*
X38373D01*
Y6491D01*
D02*
G37*
G36*
X40386Y6559D02*
X40063D01*
Y6027D01*
X40645D01*
Y6300D01*
X40626Y6399D01*
X40570Y6483D01*
X40486Y6539D01*
X40386Y6559D01*
D02*
G37*
G36*
X38373Y5773D02*
X37909D01*
X37931Y5664D01*
X38065Y5465D01*
X38264Y5331D01*
X38373Y5309D01*
Y5773D01*
D02*
G37*
G36*
X42014Y8106D02*
X41114D01*
X40997Y8083D01*
X40897Y8016D01*
X40831Y7917D01*
X40808Y7800D01*
Y7000D01*
X40831Y6883D01*
X40897Y6784D01*
X40997Y6717D01*
X41066Y6704D01*
X41082Y6639D01*
X41080Y6571D01*
X40997Y6516D01*
X40931Y6417D01*
X40908Y6300D01*
Y5500D01*
X40931Y5383D01*
X40997Y5284D01*
X41097Y5217D01*
X41214Y5194D01*
X42114D01*
X42231Y5217D01*
X42330Y5284D01*
X42396Y5383D01*
X42419Y5500D01*
Y6300D01*
X42396Y6417D01*
X42330Y6516D01*
X42231Y6583D01*
X42161Y6596D01*
X42145Y6661D01*
X42147Y6729D01*
X42230Y6784D01*
X42296Y6883D01*
X42319Y7000D01*
Y7800D01*
X42296Y7917D01*
X42230Y8016D01*
X42131Y8083D01*
X42014Y8106D01*
D02*
G37*
G36*
X40645Y5773D02*
X40063D01*
Y5241D01*
X40386D01*
X40486Y5261D01*
X40570Y5317D01*
X40626Y5401D01*
X40645Y5500D01*
Y5773D01*
D02*
G37*
G36*
X18435Y2373D02*
X17795D01*
Y1733D01*
X18176D01*
X18275Y1753D01*
X18359Y1809D01*
X18415Y1893D01*
X18435Y1992D01*
Y2373D01*
D02*
G37*
G36*
X31124Y3404D02*
X30108D01*
X29991Y3381D01*
X29892Y3314D01*
X29825Y3215D01*
X29802Y3098D01*
Y2082D01*
X29825Y1965D01*
X29892Y1866D01*
X29991Y1800D01*
X30108Y1776D01*
X31124D01*
X31241Y1800D01*
X31340Y1866D01*
X31407Y1965D01*
X31430Y2082D01*
Y3098D01*
X31407Y3215D01*
X31340Y3314D01*
X31241Y3381D01*
X31124Y3404D01*
D02*
G37*
G36*
X17541Y2373D02*
X16901D01*
Y1992D01*
X16921Y1893D01*
X16977Y1809D01*
X17061Y1753D01*
X17160Y1733D01*
X17541D01*
Y2373D01*
D02*
G37*
G36*
X20208Y3314D02*
X19192D01*
X19075Y3291D01*
X18976Y3224D01*
X18909Y3125D01*
X18886Y3008D01*
Y1992D01*
X18909Y1875D01*
X18976Y1776D01*
X19075Y1709D01*
X19192Y1686D01*
X20208D01*
X20325Y1709D01*
X20424Y1776D01*
X20562Y1753D01*
X20577Y1743D01*
X20676Y1723D01*
X21057D01*
Y2490D01*
Y3257D01*
X20676D01*
X20577Y3237D01*
X20571Y3233D01*
X20424Y3224D01*
X20325Y3291D01*
X20208Y3314D01*
D02*
G37*
G36*
X21951Y2363D02*
X21311D01*
Y1723D01*
X21692D01*
X21791Y1743D01*
X21875Y1799D01*
X21931Y1883D01*
X21951Y1982D01*
Y2363D01*
D02*
G37*
G36*
X21692Y3257D02*
X21311D01*
Y2617D01*
X21951D01*
Y2998D01*
X21931Y3097D01*
X21875Y3181D01*
X21791Y3237D01*
X21692Y3257D01*
D02*
G37*
G36*
X17541Y3267D02*
X17160D01*
X17061Y3247D01*
X16977Y3191D01*
X16921Y3107D01*
X16901Y3008D01*
Y2627D01*
X17541D01*
Y3267D01*
D02*
G37*
G36*
X29351Y2463D02*
X28711D01*
Y1823D01*
X29092D01*
X29191Y1843D01*
X29275Y1899D01*
X29331Y1983D01*
X29351Y2082D01*
Y2463D01*
D02*
G37*
G36*
X25651D02*
X25011D01*
Y1823D01*
X25392D01*
X25491Y1843D01*
X25575Y1899D01*
X25631Y1983D01*
X25651Y2082D01*
Y2463D01*
D02*
G37*
G36*
X27424Y3404D02*
X26408D01*
X26291Y3381D01*
X26192Y3314D01*
X26125Y3215D01*
X26102Y3098D01*
Y2082D01*
X26125Y1965D01*
X26192Y1866D01*
X26291Y1800D01*
X26408Y1776D01*
X27424D01*
X27541Y1800D01*
X27640Y1866D01*
X27707Y1965D01*
X27709Y1976D01*
X27823Y1982D01*
X27839Y1980D01*
X27893Y1899D01*
X27977Y1843D01*
X28076Y1823D01*
X28457D01*
Y2590D01*
Y3357D01*
X28076D01*
X27977Y3337D01*
X27893Y3281D01*
X27839Y3201D01*
X27823Y3198D01*
X27709Y3205D01*
X27707Y3215D01*
X27640Y3314D01*
X27541Y3381D01*
X27424Y3404D01*
D02*
G37*
G36*
X39809Y6559D02*
X39486D01*
X39387Y6539D01*
X39303Y6483D01*
X39247Y6399D01*
X39229Y6308D01*
X38954D01*
X38935Y6335D01*
X38736Y6469D01*
X38627Y6491D01*
Y5900D01*
Y5309D01*
X38736Y5331D01*
X38935Y5465D01*
X38954Y5492D01*
X39229D01*
X39247Y5401D01*
X39303Y5317D01*
X39387Y5261D01*
X39486Y5241D01*
X39809D01*
Y5900D01*
Y6559D01*
D02*
G37*
G36*
X29508Y13114D02*
X28492D01*
X28375Y13091D01*
X28276Y13024D01*
X28209Y12925D01*
X28186Y12808D01*
Y12063D01*
X26567Y10444D01*
X26489Y10449D01*
X26270Y10617D01*
X26014Y10723D01*
X25740Y10759D01*
X25466Y10723D01*
X25210Y10617D01*
X24991Y10449D01*
X24823Y10230D01*
X24717Y9974D01*
X24681Y9700D01*
X24717Y9426D01*
X24823Y9170D01*
X24991Y8951D01*
X25210Y8783D01*
X25466Y8677D01*
X25740Y8641D01*
X26014Y8677D01*
X26270Y8783D01*
X26489Y8951D01*
X26657Y9170D01*
X26763Y9426D01*
X26772Y9495D01*
X27164Y9887D01*
X27284Y9828D01*
X27284Y9827D01*
X28153D01*
Y10696D01*
X28152Y10696D01*
X28093Y10816D01*
X28763Y11486D01*
X29508D01*
X29625Y11509D01*
X29724Y11576D01*
X29791Y11675D01*
X29814Y11792D01*
Y12808D01*
X29791Y12925D01*
X29724Y13024D01*
X29625Y13091D01*
X29508Y13114D01*
D02*
G37*
G36*
X42014Y13506D02*
X41114D01*
X40997Y13483D01*
X40897Y13416D01*
X40831Y13317D01*
X40808Y13200D01*
Y12400D01*
X40831Y12283D01*
X40897Y12184D01*
X40997Y12117D01*
X41010Y12115D01*
Y11985D01*
X40997Y11983D01*
X40897Y11916D01*
X40831Y11817D01*
X40808Y11700D01*
Y10900D01*
X40831Y10783D01*
X40897Y10684D01*
X40997Y10617D01*
X41114Y10594D01*
X42014D01*
X42131Y10617D01*
X42230Y10684D01*
X42296Y10783D01*
X42319Y10900D01*
Y11700D01*
X42296Y11817D01*
X42230Y11916D01*
X42131Y11983D01*
X42117Y11985D01*
Y12115D01*
X42131Y12117D01*
X42230Y12184D01*
X42296Y12283D01*
X42319Y12400D01*
Y13200D01*
X42296Y13317D01*
X42230Y13416D01*
X42131Y13483D01*
X42014Y13506D01*
D02*
G37*
G36*
X30947Y10696D02*
Y9827D01*
X31816D01*
X31798Y9962D01*
X31697Y10206D01*
X31536Y10416D01*
X31326Y10577D01*
X31082Y10678D01*
X30947Y10696D01*
D02*
G37*
G36*
X28407D02*
Y9827D01*
X29276D01*
X29258Y9962D01*
X29157Y10206D01*
X28996Y10416D01*
X28786Y10577D01*
X28542Y10678D01*
X28407Y10696D01*
D02*
G37*
G36*
X30693D02*
X30558Y10678D01*
X30314Y10577D01*
X30104Y10416D01*
X29943Y10206D01*
X29842Y9962D01*
X29824Y9827D01*
X30693D01*
Y10696D01*
D02*
G37*
G36*
X38273Y13391D02*
X38164Y13369D01*
X37965Y13235D01*
X37831Y13036D01*
X37809Y12927D01*
X38273D01*
Y13391D01*
D02*
G37*
G36*
X40286Y13459D02*
X39963D01*
Y12927D01*
X40545D01*
Y13200D01*
X40526Y13299D01*
X40470Y13383D01*
X40386Y13439D01*
X40286Y13459D01*
D02*
G37*
G36*
X38273Y12673D02*
X37809D01*
X37831Y12564D01*
X37965Y12365D01*
X38164Y12231D01*
X38273Y12209D01*
Y12673D01*
D02*
G37*
G36*
X40286Y12006D02*
X39386D01*
X39269Y11983D01*
X39170Y11916D01*
X39104Y11817D01*
X39081Y11700D01*
Y11608D01*
X38406D01*
X38364Y11664D01*
X38228Y11768D01*
X38070Y11833D01*
X37900Y11856D01*
X37730Y11833D01*
X37572Y11768D01*
X37436Y11664D01*
X37332Y11528D01*
X37267Y11370D01*
X37244Y11200D01*
X37267Y11030D01*
X37332Y10872D01*
X37436Y10736D01*
X37572Y10632D01*
X37730Y10567D01*
X37900Y10544D01*
X38070Y10567D01*
X38228Y10632D01*
X38364Y10736D01*
X38406Y10792D01*
X39102D01*
X39104Y10783D01*
X39170Y10684D01*
X39269Y10617D01*
X39386Y10594D01*
X40286D01*
X40403Y10617D01*
X40503Y10684D01*
X40569Y10783D01*
X40592Y10900D01*
Y11700D01*
X40569Y11817D01*
X40503Y11916D01*
X40403Y11983D01*
X40286Y12006D01*
D02*
G37*
G36*
X40545Y12673D02*
X39963D01*
Y12141D01*
X40286D01*
X40386Y12161D01*
X40470Y12217D01*
X40526Y12301D01*
X40545Y12400D01*
Y12673D01*
D02*
G37*
G36*
X37286Y21506D02*
X36386D01*
X36269Y21483D01*
X36170Y21416D01*
X36104Y21317D01*
X36081Y21200D01*
Y20400D01*
X36104Y20283D01*
X36170Y20184D01*
X36269Y20117D01*
X36276Y20116D01*
Y13409D01*
X31055Y8188D01*
X30820Y8219D01*
X30546Y8183D01*
X30290Y8077D01*
X30071Y7909D01*
X29927Y7721D01*
X29173D01*
X29029Y7909D01*
X28810Y8077D01*
X28554Y8183D01*
X28280Y8219D01*
X28006Y8183D01*
X27750Y8077D01*
X27531Y7909D01*
X27363Y7690D01*
X27257Y7434D01*
X27221Y7160D01*
X27257Y6886D01*
X27363Y6630D01*
X27531Y6411D01*
X27750Y6243D01*
X28006Y6137D01*
X28280Y6101D01*
X28554Y6137D01*
X28648Y6176D01*
X29086Y5738D01*
X29087Y5724D01*
X29041Y5604D01*
X28975Y5591D01*
X28876Y5524D01*
X28809Y5425D01*
X28786Y5308D01*
Y4292D01*
X28809Y4175D01*
X28876Y4076D01*
X28975Y4009D01*
X29092Y3986D01*
X30108D01*
X30225Y4009D01*
X30324Y4076D01*
X30391Y4175D01*
X30414Y4292D01*
Y5308D01*
X30391Y5425D01*
X30324Y5524D01*
X30225Y5591D01*
X30108Y5614D01*
X30035D01*
Y5840D01*
X30002Y6007D01*
X29908Y6148D01*
X29574Y6482D01*
X29622Y6599D01*
X29927D01*
X30071Y6411D01*
X30290Y6243D01*
X30546Y6137D01*
X30820Y6101D01*
X31094Y6137D01*
X31350Y6243D01*
X31569Y6411D01*
X31737Y6630D01*
X31843Y6886D01*
X31879Y7160D01*
X31848Y7395D01*
X37233Y12780D01*
X37354Y12962D01*
X37397Y13176D01*
Y20116D01*
X37403Y20117D01*
X37503Y20184D01*
X37569Y20283D01*
X37592Y20400D01*
Y21200D01*
X37569Y21317D01*
X37503Y21416D01*
X37403Y21483D01*
X37286Y21506D01*
D02*
G37*
G36*
X47500Y11439D02*
X47127Y11390D01*
X46780Y11246D01*
X46482Y11018D01*
X46254Y10720D01*
X46110Y10373D01*
X46061Y10000D01*
X46110Y9627D01*
X46254Y9280D01*
X46482Y8982D01*
X46780Y8754D01*
X47127Y8610D01*
X47500Y8561D01*
X47873Y8610D01*
X48220Y8754D01*
X48518Y8982D01*
X48746Y9280D01*
X48890Y9627D01*
X48939Y10000D01*
X48890Y10373D01*
X48746Y10720D01*
X48518Y11018D01*
X48220Y11246D01*
X47873Y11390D01*
X47500Y11439D01*
D02*
G37*
G36*
X46000Y7064D02*
X45985Y7061D01*
X45970Y7063D01*
X45627Y7029D01*
X45598Y7020D01*
X45568Y7017D01*
X45238Y6917D01*
X45212Y6903D01*
X45183Y6894D01*
X44879Y6732D01*
X44856Y6713D01*
X44829Y6699D01*
X44563Y6480D01*
X44543Y6457D01*
X44520Y6437D01*
X44301Y6171D01*
X44287Y6144D01*
X44268Y6121D01*
X44106Y5817D01*
X44097Y5788D01*
X44083Y5762D01*
X43983Y5432D01*
X43980Y5402D01*
X43971Y5373D01*
X43937Y5030D01*
X43940Y5000D01*
X43937Y4970D01*
X43971Y4627D01*
X43980Y4598D01*
X43983Y4568D01*
X44083Y4238D01*
X44097Y4212D01*
X44106Y4183D01*
X44268Y3879D01*
X44287Y3856D01*
X44301Y3829D01*
X44520Y3563D01*
X44543Y3543D01*
X44563Y3520D01*
X44829Y3301D01*
X44856Y3287D01*
X44879Y3268D01*
X45183Y3106D01*
X45212Y3097D01*
X45238Y3083D01*
X45568Y2983D01*
X45598Y2980D01*
X45627Y2971D01*
X45970Y2937D01*
X45985Y2939D01*
X46000Y2936D01*
X46015Y2939D01*
X46030Y2937D01*
X46373Y2971D01*
X46402Y2980D01*
X46432Y2983D01*
X46762Y3083D01*
X46788Y3097D01*
X46817Y3106D01*
X47121Y3268D01*
X47144Y3287D01*
X47171Y3301D01*
X47437Y3520D01*
X47457Y3543D01*
X47480Y3563D01*
X47699Y3829D01*
X47713Y3856D01*
X47732Y3879D01*
X47894Y4183D01*
X47903Y4212D01*
X47917Y4238D01*
X48017Y4568D01*
X48020Y4598D01*
X48029Y4627D01*
X48063Y4970D01*
X48060Y5000D01*
X48063Y5030D01*
X48029Y5373D01*
X48020Y5402D01*
X48017Y5432D01*
X47917Y5762D01*
X47903Y5788D01*
X47894Y5817D01*
X47732Y6121D01*
X47713Y6144D01*
X47699Y6171D01*
X47480Y6437D01*
X47457Y6457D01*
X47437Y6480D01*
X47171Y6699D01*
X47144Y6713D01*
X47121Y6732D01*
X46817Y6894D01*
X46788Y6903D01*
X46762Y6917D01*
X46432Y7017D01*
X46402Y7020D01*
X46373Y7029D01*
X46030Y7063D01*
X46015Y7061D01*
X46000Y7064D01*
D02*
G37*
G36*
X38700Y8356D02*
X38530Y8333D01*
X38372Y8268D01*
X38236Y8164D01*
X38132Y8028D01*
X38067Y7870D01*
X38044Y7700D01*
X38067Y7530D01*
X38132Y7372D01*
X38236Y7236D01*
X38372Y7132D01*
X38530Y7067D01*
X38700Y7044D01*
X38870Y7067D01*
X38954Y7101D01*
X39081Y7019D01*
Y7000D01*
X39104Y6883D01*
X39170Y6784D01*
X39269Y6717D01*
X39386Y6694D01*
X40286D01*
X40403Y6717D01*
X40503Y6784D01*
X40569Y6883D01*
X40592Y7000D01*
Y7800D01*
X40569Y7917D01*
X40503Y8016D01*
X40403Y8083D01*
X40286Y8106D01*
X39546D01*
X39536Y8108D01*
X39536Y8108D01*
X39206D01*
X39164Y8164D01*
X39028Y8268D01*
X38870Y8333D01*
X38700Y8356D01*
D02*
G37*
G36*
X4000Y7064D02*
X3985Y7061D01*
X3970Y7063D01*
X3627Y7029D01*
X3598Y7020D01*
X3568Y7017D01*
X3238Y6917D01*
X3212Y6903D01*
X3183Y6894D01*
X2879Y6732D01*
X2856Y6713D01*
X2829Y6699D01*
X2563Y6480D01*
X2543Y6457D01*
X2520Y6437D01*
X2301Y6171D01*
X2287Y6144D01*
X2268Y6121D01*
X2106Y5817D01*
X2097Y5788D01*
X2083Y5762D01*
X1983Y5432D01*
X1980Y5402D01*
X1971Y5373D01*
X1937Y5030D01*
X1940Y5000D01*
X1937Y4970D01*
X1971Y4627D01*
X1980Y4598D01*
X1983Y4568D01*
X2083Y4238D01*
X2097Y4212D01*
X2106Y4183D01*
X2268Y3879D01*
X2287Y3856D01*
X2301Y3829D01*
X2520Y3563D01*
X2543Y3543D01*
X2563Y3520D01*
X2829Y3301D01*
X2856Y3287D01*
X2879Y3268D01*
X3183Y3106D01*
X3212Y3097D01*
X3238Y3083D01*
X3568Y2983D01*
X3598Y2980D01*
X3627Y2971D01*
X3970Y2937D01*
X3985Y2939D01*
X4000Y2936D01*
X4015Y2939D01*
X4030Y2937D01*
X4373Y2971D01*
X4402Y2980D01*
X4432Y2983D01*
X4762Y3083D01*
X4788Y3097D01*
X4817Y3106D01*
X5121Y3268D01*
X5144Y3287D01*
X5171Y3301D01*
X5437Y3520D01*
X5457Y3543D01*
X5480Y3563D01*
X5699Y3829D01*
X5713Y3856D01*
X5732Y3879D01*
X5894Y4183D01*
X5903Y4212D01*
X5917Y4238D01*
X6017Y4568D01*
X6020Y4598D01*
X6029Y4627D01*
X6063Y4970D01*
X6060Y5000D01*
X6063Y5030D01*
X6029Y5373D01*
X6020Y5402D01*
X6017Y5432D01*
X5917Y5762D01*
X5903Y5788D01*
X5894Y5817D01*
X5732Y6121D01*
X5713Y6144D01*
X5699Y6171D01*
X5480Y6437D01*
X5457Y6457D01*
X5437Y6480D01*
X5171Y6699D01*
X5144Y6713D01*
X5121Y6732D01*
X4817Y6894D01*
X4788Y6903D01*
X4762Y6917D01*
X4432Y7017D01*
X4402Y7020D01*
X4373Y7029D01*
X4030Y7063D01*
X4015Y7061D01*
X4000Y7064D01*
D02*
G37*
G36*
X31816Y9573D02*
X30947D01*
Y8704D01*
X31082Y8722D01*
X31326Y8823D01*
X31536Y8984D01*
X31697Y9194D01*
X31798Y9438D01*
X31816Y9573D01*
D02*
G37*
G36*
X22408Y13014D02*
X21392D01*
X21275Y12991D01*
X21176Y12924D01*
X21109Y12825D01*
X21086Y12708D01*
Y11963D01*
X20372Y11248D01*
X20283Y11116D01*
X20252Y10960D01*
X20252Y10960D01*
Y10668D01*
X20130Y10617D01*
X19911Y10449D01*
X19743Y10230D01*
X19637Y9974D01*
X19601Y9700D01*
X19637Y9426D01*
X19736Y9188D01*
X19687Y9061D01*
X19093D01*
X19044Y9188D01*
X19143Y9426D01*
X19179Y9700D01*
X19143Y9974D01*
X19037Y10230D01*
X18869Y10449D01*
X18650Y10617D01*
X18528Y10668D01*
Y11376D01*
X18892D01*
X19009Y11400D01*
X19108Y11466D01*
X19175Y11565D01*
X19198Y11682D01*
Y12698D01*
X19175Y12815D01*
X19108Y12914D01*
X19009Y12981D01*
X18892Y13004D01*
X17876D01*
X17759Y12981D01*
X17660Y12914D01*
X17593Y12815D01*
X17570Y12698D01*
Y11682D01*
X17593Y11565D01*
X17660Y11466D01*
X17712Y11431D01*
Y10668D01*
X17590Y10617D01*
X17371Y10449D01*
X17203Y10230D01*
X17097Y9974D01*
X17061Y9700D01*
X17097Y9426D01*
X17150Y9299D01*
X17080Y9138D01*
X17062Y9131D01*
X16235Y9958D01*
X16233Y9970D01*
X16168Y10128D01*
X16064Y10264D01*
X15928Y10368D01*
X15770Y10433D01*
X15600Y10456D01*
X15430Y10433D01*
X15272Y10368D01*
X15136Y10264D01*
X15032Y10128D01*
X14967Y9970D01*
X14944Y9800D01*
X14967Y9630D01*
X15032Y9472D01*
X15136Y9336D01*
X15272Y9232D01*
X15430Y9167D01*
X15442Y9165D01*
X16503Y8103D01*
X16685Y7982D01*
X16900Y7939D01*
X17040D01*
X17064Y7910D01*
Y6410D01*
X17087Y6293D01*
X17154Y6194D01*
X17253Y6127D01*
X17370Y6104D01*
X17712D01*
Y5274D01*
X17712Y5274D01*
X17743Y5118D01*
X17832Y4985D01*
X17870Y4947D01*
Y4202D01*
X17893Y4085D01*
X17960Y3986D01*
X18059Y3919D01*
X18176Y3896D01*
X19192D01*
X19309Y3919D01*
X19408Y3986D01*
X19475Y4085D01*
X19498Y4202D01*
Y5218D01*
X19475Y5335D01*
X19408Y5434D01*
X19309Y5500D01*
X19192Y5524D01*
X18528D01*
Y6104D01*
X18870D01*
X18987Y6127D01*
X19086Y6194D01*
X19153Y6293D01*
X19176Y6410D01*
Y7910D01*
X19200Y7939D01*
X19774D01*
X19837Y7812D01*
X19743Y7690D01*
X19637Y7434D01*
X19601Y7160D01*
X19637Y6886D01*
X19743Y6630D01*
X19911Y6411D01*
X20130Y6243D01*
X20262Y6188D01*
X20283Y6084D01*
X20372Y5952D01*
X21386Y4937D01*
Y4192D01*
X21409Y4075D01*
X21476Y3976D01*
X21575Y3909D01*
X21692Y3886D01*
X22708D01*
X22825Y3909D01*
X22924Y3976D01*
X22991Y4075D01*
X23014Y4192D01*
Y5208D01*
X22991Y5325D01*
X22924Y5424D01*
X22825Y5491D01*
X22708Y5514D01*
X21963D01*
X21283Y6194D01*
X21291Y6321D01*
X21409Y6411D01*
X21577Y6630D01*
X21683Y6886D01*
X21719Y7160D01*
X21683Y7434D01*
X21577Y7690D01*
X21483Y7812D01*
X21546Y7939D01*
X22314D01*
X22377Y7812D01*
X22283Y7690D01*
X22177Y7434D01*
X22141Y7160D01*
X22177Y6886D01*
X22283Y6630D01*
X22451Y6411D01*
X22670Y6243D01*
X22926Y6137D01*
X23200Y6101D01*
X23474Y6137D01*
X23730Y6243D01*
X23815Y6308D01*
X25086Y5037D01*
Y4292D01*
X25109Y4175D01*
X25176Y4076D01*
X25275Y4009D01*
X25392Y3986D01*
X26408D01*
X26525Y4009D01*
X26624Y4076D01*
X26691Y4175D01*
X26714Y4292D01*
Y5308D01*
X26691Y5425D01*
X26624Y5524D01*
X26525Y5591D01*
X26408Y5614D01*
X25663D01*
X25135Y6142D01*
X25210Y6243D01*
X25466Y6137D01*
X25740Y6101D01*
X26014Y6137D01*
X26270Y6243D01*
X26489Y6411D01*
X26657Y6630D01*
X26763Y6886D01*
X26799Y7160D01*
X26763Y7434D01*
X26657Y7690D01*
X26489Y7909D01*
X26270Y8077D01*
X26014Y8183D01*
X25740Y8219D01*
X25505Y8188D01*
X24797Y8897D01*
X24615Y9018D01*
X24400Y9061D01*
X24173D01*
X24124Y9188D01*
X24223Y9426D01*
X24259Y9700D01*
X24223Y9974D01*
X24117Y10230D01*
X24080Y10278D01*
X25179Y11376D01*
X25924D01*
X26041Y11400D01*
X26140Y11466D01*
X26207Y11565D01*
X26230Y11682D01*
Y12698D01*
X26207Y12815D01*
X26140Y12914D01*
X26041Y12981D01*
X25924Y13004D01*
X24908D01*
X24791Y12981D01*
X24692Y12914D01*
X24625Y12815D01*
X24602Y12698D01*
Y11953D01*
X23384Y10735D01*
X23200Y10759D01*
X22926Y10723D01*
X22670Y10617D01*
X22451Y10449D01*
X22283Y10230D01*
X22177Y9974D01*
X22141Y9700D01*
X22177Y9426D01*
X22276Y9188D01*
X22227Y9061D01*
X21633D01*
X21584Y9188D01*
X21683Y9426D01*
X21719Y9700D01*
X21683Y9974D01*
X21577Y10230D01*
X21409Y10449D01*
X21190Y10617D01*
X21068Y10668D01*
Y10791D01*
X21663Y11386D01*
X22408D01*
X22525Y11409D01*
X22624Y11476D01*
X22691Y11575D01*
X22714Y11692D01*
Y12708D01*
X22691Y12825D01*
X22624Y12924D01*
X22525Y12991D01*
X22408Y13014D01*
D02*
G37*
G36*
X30693Y9573D02*
X29824D01*
X29842Y9438D01*
X29943Y9194D01*
X30104Y8984D01*
X30314Y8823D01*
X30558Y8722D01*
X30693Y8704D01*
Y9573D01*
D02*
G37*
G36*
X28153D02*
X27284D01*
X27302Y9438D01*
X27403Y9194D01*
X27564Y8984D01*
X27774Y8823D01*
X28018Y8722D01*
X28153Y8704D01*
Y9573D01*
D02*
G37*
G36*
X29276D02*
X28407D01*
Y8704D01*
X28542Y8722D01*
X28786Y8823D01*
X28996Y8984D01*
X29157Y9194D01*
X29258Y9438D01*
X29276Y9573D01*
D02*
G37*
G36*
X29650Y23259D02*
X29474Y23224D01*
X29400Y23174D01*
X29326Y23224D01*
X29150Y23259D01*
X28974Y23224D01*
X28900Y23174D01*
X28826Y23224D01*
X28650Y23259D01*
X28474Y23224D01*
X28400Y23174D01*
X28326Y23224D01*
X28150Y23259D01*
X27974Y23224D01*
X27900Y23174D01*
X27826Y23224D01*
X27650Y23259D01*
X27474Y23224D01*
X27400Y23174D01*
X27326Y23224D01*
X27150Y23259D01*
X26974Y23224D01*
X26900Y23174D01*
X26826Y23224D01*
X26650Y23259D01*
X26474Y23224D01*
X26359Y23146D01*
X26308Y23181D01*
X26277Y23187D01*
Y23052D01*
X26226Y22976D01*
X26191Y22800D01*
Y21950D01*
X26109D01*
Y22800D01*
X26074Y22976D01*
X26023Y23052D01*
Y23187D01*
X25992Y23181D01*
X25941Y23146D01*
X25826Y23224D01*
X25650Y23259D01*
X25474Y23224D01*
X25400Y23174D01*
X25326Y23224D01*
X25150Y23259D01*
X24974Y23224D01*
X24900Y23174D01*
X24826Y23224D01*
X24650Y23259D01*
X24474Y23224D01*
X24400Y23174D01*
X24326Y23224D01*
X24150Y23259D01*
X23974Y23224D01*
X23900Y23174D01*
X23826Y23224D01*
X23650Y23259D01*
X23474Y23224D01*
X23400Y23174D01*
X23326Y23224D01*
X23150Y23259D01*
X22974Y23224D01*
X22900Y23174D01*
X22826Y23224D01*
X22650Y23259D01*
X22474Y23224D01*
X22400Y23174D01*
X22326Y23224D01*
X22150Y23259D01*
X21974Y23224D01*
X21859Y23146D01*
X21808Y23181D01*
X21777Y23187D01*
Y23052D01*
X21726Y22976D01*
X21691Y22800D01*
Y21950D01*
X21609D01*
Y22800D01*
X21574Y22976D01*
X21523Y23052D01*
Y23187D01*
X21492Y23181D01*
X21441Y23146D01*
X21326Y23224D01*
X21150Y23259D01*
X20974Y23224D01*
X20900Y23174D01*
X20826Y23224D01*
X20650Y23259D01*
X20474Y23224D01*
X20400Y23174D01*
X20326Y23224D01*
X20150Y23259D01*
X19974Y23224D01*
X19826Y23124D01*
X19726Y22976D01*
X19691Y22800D01*
Y21100D01*
X19726Y20924D01*
X19742Y20900D01*
Y20850D01*
X19742Y20850D01*
X19773Y20694D01*
X19862Y20562D01*
X22947Y17476D01*
X22898Y17359D01*
X22586D01*
X22487Y17339D01*
X22403Y17283D01*
X22347Y17199D01*
X22347Y17197D01*
X22308Y17176D01*
X22209Y17153D01*
X22036Y17269D01*
X21927Y17291D01*
Y16700D01*
Y16109D01*
X22036Y16131D01*
X22209Y16247D01*
X22308Y16224D01*
X22347Y16203D01*
X22347Y16201D01*
X22403Y16117D01*
X22487Y16061D01*
X22586Y16041D01*
X22909D01*
Y16700D01*
X23163D01*
Y16041D01*
X23486D01*
X23586Y16061D01*
X23670Y16117D01*
X23726Y16201D01*
X23745Y16300D01*
Y16512D01*
X23863Y16561D01*
X24008Y16416D01*
Y16300D01*
X24031Y16183D01*
X24097Y16084D01*
X24197Y16017D01*
X24314Y15994D01*
X25214D01*
X25331Y16017D01*
X25430Y16084D01*
X25496Y16183D01*
X25518Y16292D01*
X34594D01*
X34636Y16236D01*
X34772Y16132D01*
X34930Y16067D01*
X35100Y16044D01*
X35270Y16067D01*
X35428Y16132D01*
X35564Y16236D01*
X35668Y16372D01*
X35733Y16530D01*
X35756Y16700D01*
X35733Y16870D01*
X35668Y17028D01*
X35564Y17164D01*
X35428Y17268D01*
X35270Y17333D01*
X35100Y17356D01*
X34930Y17333D01*
X34772Y17268D01*
X34636Y17164D01*
X34594Y17108D01*
X25914D01*
X25866Y17225D01*
X27038Y18398D01*
X27127Y18530D01*
X27158Y18686D01*
X27158Y18686D01*
Y20300D01*
X27158Y20300D01*
X27127Y20456D01*
X27080Y20526D01*
X27140Y20633D01*
X27150Y20641D01*
X27326Y20676D01*
X27400Y20726D01*
X27474Y20676D01*
X27650Y20641D01*
X27826Y20676D01*
X27900Y20726D01*
X27974Y20676D01*
X28150Y20641D01*
X28326Y20676D01*
X28400Y20726D01*
X28474Y20676D01*
X28650Y20641D01*
X28826Y20676D01*
X28900Y20726D01*
X28974Y20676D01*
X29150Y20641D01*
X29326Y20676D01*
X29400Y20726D01*
X29474Y20676D01*
X29650Y20641D01*
X29826Y20676D01*
X29974Y20776D01*
X30074Y20924D01*
X30109Y21100D01*
Y22800D01*
X30074Y22976D01*
X29974Y23124D01*
X29826Y23224D01*
X29650Y23259D01*
D02*
G37*
G36*
X48173Y39573D02*
X47591D01*
Y39041D01*
X47914D01*
X48013Y39061D01*
X48097Y39117D01*
X48153Y39201D01*
X48173Y39300D01*
Y39573D01*
D02*
G37*
G36*
X47337D02*
X46755D01*
Y39300D01*
X46774Y39201D01*
X46830Y39117D01*
X46915Y39061D01*
X47014Y39041D01*
X47337D01*
Y39573D01*
D02*
G37*
G36*
Y40359D02*
X47014D01*
X46915Y40339D01*
X46830Y40283D01*
X46774Y40199D01*
X46755Y40100D01*
Y39827D01*
X47337D01*
Y40359D01*
D02*
G37*
G36*
X3373Y42173D02*
X2909D01*
X2931Y42064D01*
X3065Y41865D01*
X3264Y41731D01*
X3373Y41709D01*
Y42173D01*
D02*
G37*
G36*
X47914Y40359D02*
X47591D01*
Y39827D01*
X48173D01*
Y40100D01*
X48153Y40199D01*
X48097Y40283D01*
X48013Y40339D01*
X47914Y40359D01*
D02*
G37*
G36*
X47073Y37473D02*
X46800D01*
X46701Y37453D01*
X46617Y37397D01*
X46561Y37313D01*
X46541Y37214D01*
Y37171D01*
X46259D01*
Y37214D01*
X46239Y37313D01*
X46183Y37397D01*
X46099Y37453D01*
X46000Y37473D01*
X45727D01*
Y36764D01*
Y36055D01*
X46000D01*
X46099Y36074D01*
X46183Y36130D01*
X46239Y36215D01*
X46259Y36314D01*
Y36356D01*
X46541D01*
Y36314D01*
X46561Y36215D01*
X46617Y36130D01*
X46701Y36074D01*
X46800Y36055D01*
X47073D01*
Y36764D01*
Y37473D01*
D02*
G37*
G36*
X47600D02*
X47327D01*
Y36764D01*
Y36055D01*
X47600D01*
X47699Y36074D01*
X47783Y36130D01*
X47839Y36215D01*
X47842Y36227D01*
X47983Y36285D01*
X48064Y36231D01*
X48173Y36209D01*
Y36800D01*
Y37391D01*
X48064Y37369D01*
X47970Y37306D01*
X47839Y37313D01*
X47783Y37397D01*
X47699Y37453D01*
X47600Y37473D01*
D02*
G37*
G36*
X47771Y50823D02*
X46800D01*
X45829D01*
X45846Y50694D01*
X45945Y50456D01*
X46047Y50323D01*
X46037Y50257D01*
X46002Y50174D01*
X45942Y50133D01*
X45886Y50049D01*
X45866Y49950D01*
Y49877D01*
X46800D01*
X47734D01*
Y49950D01*
X47714Y50049D01*
X47658Y50133D01*
X47598Y50174D01*
X47563Y50257D01*
X47553Y50323D01*
X47655Y50456D01*
X47754Y50694D01*
X47771Y50823D01*
D02*
G37*
G36*
X48891Y36673D02*
X48427D01*
Y36209D01*
X48536Y36231D01*
X48735Y36365D01*
X48869Y36564D01*
X48891Y36673D01*
D02*
G37*
G36*
X48427Y37391D02*
Y36927D01*
X48891D01*
X48869Y37036D01*
X48735Y37235D01*
X48536Y37369D01*
X48427Y37391D01*
D02*
G37*
G36*
X45473Y37473D02*
X45200D01*
X45101Y37453D01*
X45017Y37397D01*
X44961Y37313D01*
X44941Y37214D01*
Y36891D01*
X45473D01*
Y37473D01*
D02*
G37*
G36*
X49373Y45837D02*
X49175D01*
X48946Y45806D01*
X48732Y45718D01*
X48548Y45577D01*
X48407Y45393D01*
X48319Y45179D01*
X48305Y45077D01*
X49373D01*
Y45837D01*
D02*
G37*
G36*
X40173Y45473D02*
X39709D01*
X39731Y45364D01*
X39865Y45165D01*
X40064Y45031D01*
X40173Y45009D01*
Y45473D01*
D02*
G37*
G36*
Y46191D02*
X40064Y46169D01*
X39865Y46035D01*
X39731Y45836D01*
X39709Y45727D01*
X40173D01*
Y46191D01*
D02*
G37*
G36*
X41463Y46383D02*
X41082D01*
X40983Y46363D01*
X40899Y46307D01*
X40843Y46223D01*
X40823Y46124D01*
Y46118D01*
X40818Y46113D01*
X40696Y46062D01*
X40536Y46169D01*
X40427Y46191D01*
Y45600D01*
Y45009D01*
X40536Y45031D01*
X40696Y45138D01*
X40764Y45122D01*
X40815Y45096D01*
X40828Y45085D01*
X40843Y45009D01*
X40899Y44925D01*
X40983Y44869D01*
X41082Y44849D01*
X41463D01*
Y45616D01*
Y46383D01*
D02*
G37*
G36*
X42098D02*
X41717D01*
Y45743D01*
X42357D01*
Y46124D01*
X42337Y46223D01*
X42281Y46307D01*
X42197Y46363D01*
X42098Y46383D01*
D02*
G37*
G36*
X47771Y45823D02*
X46927D01*
Y44979D01*
X47056Y44996D01*
X47294Y45095D01*
X47498Y45252D01*
X47655Y45456D01*
X47754Y45694D01*
X47771Y45823D01*
D02*
G37*
G36*
X49373Y44823D02*
X48305D01*
X48319Y44721D01*
X48407Y44507D01*
X48548Y44323D01*
X48732Y44182D01*
X48946Y44094D01*
X49175Y44063D01*
X49373D01*
Y44823D01*
D02*
G37*
G36*
X3373Y44245D02*
X3100D01*
X3001Y44226D01*
X2917Y44170D01*
X2861Y44085D01*
X2841Y43986D01*
Y43663D01*
X3373D01*
Y44245D01*
D02*
G37*
G36*
X34473Y45191D02*
X34364Y45169D01*
X34165Y45035D01*
X34031Y44836D01*
X34009Y44727D01*
X34473D01*
Y45191D01*
D02*
G37*
G36*
X42357Y45489D02*
X41717D01*
Y44849D01*
X42098D01*
X42197Y44869D01*
X42281Y44925D01*
X42337Y45009D01*
X42357Y45108D01*
Y45489D01*
D02*
G37*
G36*
X34727Y45191D02*
Y44727D01*
X35191D01*
X35169Y44836D01*
X35035Y45035D01*
X34836Y45169D01*
X34727Y45191D01*
D02*
G37*
G36*
X46673Y51921D02*
X46544Y51904D01*
X46306Y51805D01*
X46102Y51648D01*
X45945Y51444D01*
X45846Y51206D01*
X45829Y51077D01*
X46673D01*
Y51921D01*
D02*
G37*
G36*
X49373Y51823D02*
X48305D01*
X48319Y51721D01*
X48407Y51507D01*
X48548Y51323D01*
X48732Y51182D01*
X48946Y51094D01*
X49175Y51063D01*
X49373D01*
Y51823D01*
D02*
G37*
G36*
X39240Y56821D02*
X30510D01*
X30295Y56778D01*
X30113Y56657D01*
X29268Y55811D01*
X21556D01*
Y56250D01*
X21533Y56367D01*
X21466Y56466D01*
X21367Y56533D01*
X21250Y56556D01*
X9000D01*
X8883Y56533D01*
X8784Y56466D01*
X8717Y56367D01*
X8694Y56250D01*
Y55985D01*
X8574Y55945D01*
X8518Y56018D01*
X8220Y56246D01*
X7873Y56390D01*
X7500Y56439D01*
X7127Y56390D01*
X6780Y56246D01*
X6482Y56018D01*
X6254Y55720D01*
X6110Y55373D01*
X6061Y55000D01*
X6110Y54627D01*
X6254Y54280D01*
X6482Y53982D01*
X6780Y53754D01*
X7127Y53610D01*
X7500Y53561D01*
X7873Y53610D01*
X8220Y53754D01*
X8470Y53946D01*
X8597Y53885D01*
Y51983D01*
X8620Y51866D01*
X8687Y51767D01*
X8694Y51762D01*
Y50644D01*
X7505D01*
X7290Y50601D01*
X7108Y50480D01*
X5457Y48829D01*
X5336Y48647D01*
X5293Y48432D01*
Y47928D01*
X5105Y47784D01*
X4937Y47565D01*
X4831Y47309D01*
X4795Y47035D01*
X4826Y46800D01*
X4020Y45994D01*
X4017Y45996D01*
X3900Y46019D01*
X3100D01*
X2983Y45996D01*
X2884Y45930D01*
X2817Y45831D01*
X2794Y45714D01*
Y44814D01*
X2817Y44697D01*
X2884Y44597D01*
X2983Y44531D01*
X3100Y44508D01*
X3886D01*
X3988Y44417D01*
X3987Y44334D01*
X3900Y44245D01*
X3627D01*
Y43536D01*
X3500D01*
Y43409D01*
X2841D01*
Y43086D01*
X2861Y42987D01*
X2917Y42903D01*
X2939Y42888D01*
Y42548D01*
X2931Y42536D01*
X2909Y42427D01*
X3500D01*
Y42300D01*
X3627D01*
Y41709D01*
X3736Y41731D01*
X3912Y41849D01*
X4039Y41809D01*
Y36067D01*
X3984Y36030D01*
X3917Y35931D01*
X3894Y35814D01*
Y35451D01*
X2603Y34160D01*
X2482Y33978D01*
X2439Y33764D01*
Y25432D01*
X2142Y25135D01*
X2130Y25133D01*
X1972Y25068D01*
X1836Y24964D01*
X1732Y24828D01*
X1667Y24670D01*
X1644Y24500D01*
X1667Y24330D01*
X1732Y24172D01*
X1836Y24036D01*
X1972Y23932D01*
X2130Y23867D01*
X2164Y23862D01*
X2202Y23804D01*
X2384Y23683D01*
X2599Y23640D01*
X3319D01*
X3356Y23585D01*
X3455Y23518D01*
X3572Y23495D01*
X4472D01*
X4589Y23518D01*
X4689Y23585D01*
X4755Y23684D01*
X4778Y23801D01*
Y24601D01*
X4755Y24718D01*
X4689Y24817D01*
X4589Y24884D01*
X4472Y24907D01*
X3618D01*
X3589Y24930D01*
X3539Y24994D01*
X3526Y25027D01*
X3561Y25200D01*
Y33531D01*
X3777Y33747D01*
X3894Y33699D01*
Y33186D01*
X3917Y33069D01*
X3984Y32970D01*
X4083Y32904D01*
X4097Y32901D01*
Y32119D01*
X4005D01*
X3888Y32096D01*
X3789Y32029D01*
X3722Y31930D01*
X3699Y31813D01*
Y30813D01*
X3722Y30696D01*
X3789Y30597D01*
X3809Y30583D01*
X3846Y30423D01*
X3844Y30418D01*
X3770Y30240D01*
X3761Y30170D01*
X4505D01*
Y29916D01*
X3761D01*
X3770Y29846D01*
X3846Y29663D01*
X3967Y29505D01*
X4011Y29472D01*
Y29344D01*
X3967Y29311D01*
X3846Y29153D01*
X3770Y28970D01*
X3761Y28900D01*
X4505D01*
Y28646D01*
X3761D01*
X3770Y28576D01*
X3846Y28393D01*
X3967Y28235D01*
X3973Y28230D01*
Y28103D01*
X3934Y28074D01*
X3806Y27906D01*
X3726Y27712D01*
X3698Y27503D01*
X3726Y27294D01*
X3806Y27100D01*
X3934Y26932D01*
X3973Y26903D01*
Y26776D01*
X3967Y26771D01*
X3846Y26613D01*
X3770Y26430D01*
X3761Y26360D01*
X4505D01*
Y26233D01*
X4632D01*
Y25489D01*
X4702Y25498D01*
X4885Y25574D01*
X5043Y25695D01*
X5048Y25701D01*
X5175D01*
X5204Y25662D01*
X5342Y25557D01*
Y24907D01*
X5300D01*
X5183Y24884D01*
X5083Y24817D01*
X5017Y24718D01*
X4994Y24601D01*
Y23801D01*
X5017Y23684D01*
X5083Y23585D01*
X5183Y23518D01*
X5256Y23504D01*
Y23374D01*
X5183Y23360D01*
X5083Y23293D01*
X5017Y23194D01*
X4994Y23077D01*
Y22277D01*
X5017Y22160D01*
X5083Y22061D01*
X5183Y21994D01*
X5300Y21971D01*
X6200D01*
X6317Y21994D01*
X6416Y22061D01*
X6482Y22160D01*
X6505Y22277D01*
Y23077D01*
X6482Y23194D01*
X6416Y23293D01*
X6317Y23360D01*
X6243Y23374D01*
Y23504D01*
X6317Y23518D01*
X6416Y23585D01*
X6482Y23684D01*
X6504Y23793D01*
X7045D01*
X7045Y23793D01*
X7201Y23824D01*
X7269Y23870D01*
X7406Y23813D01*
X7680Y23777D01*
X7954Y23813D01*
X8210Y23919D01*
X8429Y24087D01*
X8597Y24306D01*
X8703Y24562D01*
X8739Y24836D01*
X8703Y25110D01*
X8653Y25232D01*
X9763Y26342D01*
X16966D01*
X17041Y26250D01*
X17076Y26074D01*
X17126Y26000D01*
X17076Y25926D01*
X17041Y25750D01*
X17076Y25574D01*
X17126Y25500D01*
X17076Y25426D01*
X17041Y25250D01*
X17076Y25074D01*
X17126Y25000D01*
X17076Y24926D01*
X17041Y24750D01*
X16966Y24658D01*
X13750D01*
X13750Y24658D01*
X13594Y24627D01*
X13462Y24538D01*
X12512Y23588D01*
X12423Y23456D01*
X12392Y23300D01*
X12392Y23300D01*
Y22756D01*
X11600D01*
X11483Y22733D01*
X11384Y22666D01*
X11317Y22567D01*
X11294Y22450D01*
Y20908D01*
X10818D01*
X10796Y21017D01*
X10730Y21116D01*
X10631Y21183D01*
X10514Y21206D01*
X9614D01*
X9497Y21183D01*
X9397Y21116D01*
X9331Y21017D01*
X9308Y20900D01*
Y20100D01*
X9331Y19983D01*
X9397Y19884D01*
X9497Y19817D01*
X9614Y19794D01*
X10514D01*
X10631Y19817D01*
X10730Y19884D01*
X10796Y19983D01*
X10818Y20092D01*
X11800D01*
X11800Y20092D01*
X11956Y20123D01*
X12088Y20212D01*
X12121Y20244D01*
X14000D01*
X14117Y20267D01*
X14216Y20334D01*
X14283Y20433D01*
X14306Y20550D01*
Y22450D01*
X14283Y22567D01*
X14216Y22666D01*
X14117Y22733D01*
X14000Y22756D01*
X13208D01*
Y23131D01*
X13919Y23842D01*
X16966D01*
X17041Y23750D01*
X17076Y23574D01*
X17176Y23426D01*
X17324Y23326D01*
X17500Y23291D01*
X17942D01*
Y23119D01*
X13479Y18656D01*
X11600D01*
X11483Y18633D01*
X11384Y18566D01*
X11317Y18467D01*
X11294Y18350D01*
Y17808D01*
X10818D01*
X10796Y17917D01*
X10730Y18016D01*
X10631Y18083D01*
X10514Y18106D01*
X9614D01*
X9497Y18083D01*
X9397Y18016D01*
X9331Y17917D01*
X9308Y17800D01*
Y17000D01*
X9331Y16883D01*
X9397Y16784D01*
X9497Y16717D01*
X9614Y16694D01*
X10514D01*
X10631Y16717D01*
X10730Y16784D01*
X10796Y16883D01*
X10818Y16992D01*
X11294D01*
Y16450D01*
X11317Y16333D01*
X11384Y16234D01*
X11483Y16167D01*
X11600Y16144D01*
X14000D01*
X14117Y16167D01*
X14216Y16234D01*
X14283Y16333D01*
X14306Y16450D01*
Y18329D01*
X18638Y22662D01*
X18638Y22662D01*
X18727Y22794D01*
X18758Y22950D01*
Y23291D01*
X19200D01*
X19376Y23326D01*
X19524Y23426D01*
X19624Y23574D01*
X19659Y23750D01*
X19624Y23926D01*
X19574Y24000D01*
X19624Y24074D01*
X19659Y24250D01*
X19624Y24426D01*
X19574Y24500D01*
X19624Y24574D01*
X19659Y24750D01*
X19624Y24926D01*
X19574Y25000D01*
X19624Y25074D01*
X19659Y25250D01*
X19624Y25426D01*
X19574Y25500D01*
X19624Y25574D01*
X19659Y25750D01*
X19624Y25926D01*
X19574Y26000D01*
X19624Y26074D01*
X19659Y26250D01*
X19624Y26426D01*
X19574Y26500D01*
X19624Y26574D01*
X19659Y26750D01*
X19624Y26926D01*
X19574Y27000D01*
X19624Y27074D01*
X19659Y27250D01*
X19624Y27426D01*
X19547Y27541D01*
X19581Y27592D01*
X19587Y27623D01*
X19452D01*
X19376Y27674D01*
X19200Y27709D01*
X18350D01*
Y27791D01*
X19200D01*
X19376Y27826D01*
X19452Y27877D01*
X19587D01*
X19581Y27908D01*
X19546Y27959D01*
X19624Y28074D01*
X19659Y28250D01*
X19624Y28426D01*
X19574Y28500D01*
X19624Y28574D01*
X19659Y28750D01*
X19624Y28926D01*
X19547Y29041D01*
X19581Y29092D01*
X19587Y29123D01*
X19452D01*
X19376Y29174D01*
X19200Y29209D01*
X18350D01*
Y29291D01*
X19200D01*
X19376Y29326D01*
X19452Y29377D01*
X19587D01*
X19581Y29408D01*
X19546Y29459D01*
X19624Y29574D01*
X19659Y29750D01*
X19734Y29842D01*
X19981D01*
X20512Y29312D01*
X20512Y29312D01*
X20644Y29223D01*
X20800Y29192D01*
X25294D01*
X25336Y29136D01*
X25472Y29032D01*
X25630Y28967D01*
X25800Y28944D01*
X25970Y28967D01*
X26128Y29032D01*
X26264Y29136D01*
X26368Y29272D01*
X26433Y29430D01*
X26438Y29466D01*
X26600Y29444D01*
X26770Y29467D01*
X26928Y29532D01*
X27064Y29636D01*
X27168Y29772D01*
X27233Y29930D01*
X27256Y30100D01*
X27240Y30215D01*
X27327Y30342D01*
X27700D01*
X27932Y30110D01*
X27903Y29959D01*
X27811Y29889D01*
X27707Y29753D01*
X27642Y29595D01*
X27619Y29425D01*
X27642Y29255D01*
X27707Y29097D01*
X27811Y28961D01*
X27947Y28857D01*
X28105Y28792D01*
X28275Y28769D01*
X28445Y28792D01*
X28566Y28842D01*
X30066D01*
X30141Y28750D01*
X30176Y28574D01*
X30226Y28500D01*
X30176Y28426D01*
X30141Y28250D01*
X30176Y28074D01*
X30226Y28000D01*
X30176Y27926D01*
X30141Y27750D01*
X30176Y27574D01*
X30226Y27500D01*
X30176Y27426D01*
X30141Y27250D01*
X30176Y27074D01*
X30226Y27000D01*
X30176Y26926D01*
X30141Y26750D01*
X30176Y26574D01*
X30226Y26500D01*
X30176Y26426D01*
X30141Y26250D01*
X30176Y26074D01*
X30226Y26000D01*
X30176Y25926D01*
X30141Y25750D01*
X30176Y25574D01*
X30226Y25500D01*
X30176Y25426D01*
X30141Y25250D01*
X30176Y25074D01*
X30253Y24959D01*
X30219Y24908D01*
X30213Y24877D01*
X30348D01*
X30424Y24826D01*
X30600Y24791D01*
X31450D01*
Y24709D01*
X30600D01*
X30424Y24674D01*
X30348Y24623D01*
X30213D01*
X30219Y24592D01*
X30253Y24541D01*
X30176Y24426D01*
X30141Y24250D01*
X30176Y24074D01*
X30226Y24000D01*
X30176Y23926D01*
X30141Y23750D01*
X30176Y23574D01*
X30276Y23426D01*
X30424Y23326D01*
X30600Y23291D01*
X31332D01*
X31912Y22712D01*
X32044Y22623D01*
X32200Y22592D01*
X32200Y22592D01*
X41523D01*
X41572Y22475D01*
X40305Y21208D01*
X39318D01*
X39296Y21317D01*
X39230Y21416D01*
X39131Y21483D01*
X39014Y21506D01*
X38114D01*
X37997Y21483D01*
X37897Y21416D01*
X37831Y21317D01*
X37808Y21200D01*
Y20400D01*
X37831Y20283D01*
X37897Y20184D01*
X37997Y20117D01*
X38114Y20094D01*
X39014D01*
X39131Y20117D01*
X39230Y20184D01*
X39296Y20283D01*
X39318Y20392D01*
X40474D01*
X40474Y20392D01*
X40630Y20423D01*
X40762Y20512D01*
X42336Y22085D01*
X42458Y22035D01*
X42732Y21999D01*
X43006Y22035D01*
X43262Y22141D01*
X43481Y22309D01*
X43649Y22528D01*
X43755Y22784D01*
X43791Y23058D01*
X43755Y23332D01*
X43649Y23588D01*
X43481Y23807D01*
X43262Y23975D01*
X43006Y24081D01*
X42732Y24117D01*
X42458Y24081D01*
X42202Y23975D01*
X41983Y23807D01*
X41815Y23588D01*
X41740Y23408D01*
X32765D01*
X32697Y23535D01*
X32724Y23574D01*
X32759Y23750D01*
X32793Y23792D01*
X34494D01*
X34536Y23736D01*
X34672Y23632D01*
X34830Y23567D01*
X35000Y23544D01*
X35170Y23567D01*
X35328Y23632D01*
X35464Y23736D01*
X35568Y23872D01*
X35633Y24030D01*
X35653Y24183D01*
X35679Y24230D01*
X35727Y24275D01*
X35772Y24292D01*
X38694D01*
X38736Y24236D01*
X38872Y24132D01*
X39030Y24067D01*
X39200Y24044D01*
X39370Y24067D01*
X39528Y24132D01*
X39664Y24236D01*
X39768Y24372D01*
X39833Y24530D01*
X39856Y24700D01*
X39833Y24870D01*
X39821Y24900D01*
X39891Y25006D01*
X43414D01*
X43414Y25006D01*
X43570Y25037D01*
X43702Y25125D01*
X45038Y26462D01*
X45038Y26462D01*
X45069Y26508D01*
X45117Y26517D01*
X45157Y26544D01*
X45250Y26573D01*
X45343Y26544D01*
X45383Y26517D01*
X45500Y26494D01*
X46000D01*
X46117Y26517D01*
X46216Y26584D01*
X46283Y26683D01*
X46306Y26800D01*
Y27191D01*
X46650D01*
X46749Y27211D01*
X46865Y27265D01*
X47064Y27131D01*
X47173Y27109D01*
Y27700D01*
X47300D01*
Y27827D01*
X47891D01*
X47869Y27936D01*
X47735Y28135D01*
X47616Y28215D01*
X47620Y28366D01*
X47688Y28412D01*
X48188Y28912D01*
X48277Y29044D01*
X48308Y29200D01*
X48308Y29200D01*
Y32800D01*
X48277Y32956D01*
X48188Y33088D01*
X48188Y33088D01*
X47408Y33869D01*
Y34281D01*
X47600D01*
X47717Y34304D01*
X47816Y34370D01*
X47883Y34469D01*
X47906Y34586D01*
Y35486D01*
X47883Y35603D01*
X47816Y35703D01*
X47717Y35769D01*
X47600Y35792D01*
X46800D01*
X46683Y35769D01*
X46584Y35703D01*
X46517Y35603D01*
X46494Y35486D01*
Y35444D01*
X46306D01*
Y35486D01*
X46283Y35603D01*
X46216Y35703D01*
X46117Y35769D01*
X46000Y35792D01*
X45264D01*
X45115Y35942D01*
X45177Y36059D01*
X45200Y36055D01*
X45473D01*
Y36637D01*
X44941D01*
Y36314D01*
X44946Y36291D01*
X44829Y36228D01*
X44206Y36851D01*
Y37214D01*
X44183Y37331D01*
X44174Y37344D01*
X45824Y38994D01*
X46186D01*
X46303Y39017D01*
X46403Y39084D01*
X46469Y39183D01*
X46492Y39300D01*
Y40100D01*
X46469Y40217D01*
X46403Y40316D01*
X46303Y40383D01*
X46297Y40384D01*
Y40769D01*
X46330Y40783D01*
X46549Y40951D01*
X46717Y41170D01*
X46823Y41426D01*
X46859Y41700D01*
X46823Y41974D01*
X46717Y42230D01*
X46549Y42449D01*
X46330Y42617D01*
X46074Y42723D01*
X45800Y42759D01*
X45526Y42723D01*
X45270Y42617D01*
X45051Y42449D01*
X44883Y42230D01*
X44777Y41974D01*
X44741Y41700D01*
X44777Y41426D01*
X44883Y41170D01*
X45051Y40951D01*
X45176Y40856D01*
Y40384D01*
X45169Y40383D01*
X45070Y40316D01*
X45004Y40217D01*
X44981Y40100D01*
Y39737D01*
X44841Y39597D01*
X44733Y39669D01*
X44758Y39730D01*
X44781Y39900D01*
X44758Y40070D01*
X44693Y40228D01*
X44589Y40364D01*
X44453Y40468D01*
X44295Y40533D01*
X44125Y40556D01*
X43955Y40533D01*
X43797Y40468D01*
X43661Y40364D01*
X43619Y40308D01*
X40925D01*
X40877Y40425D01*
X44197Y43745D01*
X44224Y43786D01*
X44308D01*
X44425Y43809D01*
X44524Y43876D01*
X44591Y43975D01*
X44614Y44092D01*
Y44798D01*
X45694Y45878D01*
X45828Y45833D01*
X45846Y45694D01*
X45945Y45456D01*
X46102Y45252D01*
X46306Y45095D01*
X46544Y44996D01*
X46673Y44979D01*
Y45950D01*
X46800D01*
Y46077D01*
X47771D01*
X47754Y46206D01*
X47655Y46444D01*
X47584Y46536D01*
X47586Y46571D01*
X47626Y46690D01*
X47691Y46734D01*
X47758Y46833D01*
X47781Y46950D01*
Y47350D01*
X47758Y47467D01*
X47752Y47475D01*
X47758Y47483D01*
X47781Y47600D01*
Y48000D01*
X47758Y48117D01*
X47752Y48125D01*
X47758Y48133D01*
X47781Y48250D01*
Y48650D01*
X47758Y48767D01*
X47752Y48775D01*
X47758Y48783D01*
X47781Y48900D01*
Y49300D01*
X47758Y49417D01*
X47719Y49475D01*
X47734Y49550D01*
Y49623D01*
X46800D01*
X45866D01*
Y49550D01*
X45881Y49475D01*
X45842Y49417D01*
X45819Y49300D01*
Y48900D01*
X45785Y48858D01*
X44933D01*
X44302Y49488D01*
X44219Y49544D01*
Y49600D01*
X44196Y49717D01*
X44130Y49816D01*
X44031Y49883D01*
X43914Y49906D01*
X43014D01*
X42897Y49883D01*
X42797Y49816D01*
X42731Y49717D01*
X42708Y49600D01*
Y48800D01*
X42731Y48683D01*
X42797Y48584D01*
X42897Y48517D01*
X43014Y48494D01*
X43914D01*
X44031Y48517D01*
X44084Y48553D01*
X44312Y48325D01*
X44263Y48208D01*
X44214D01*
X44214Y48208D01*
X44145Y48194D01*
X44130Y48216D01*
X44031Y48283D01*
X43914Y48306D01*
X43014D01*
X42897Y48283D01*
X42797Y48216D01*
X42731Y48117D01*
X42708Y48000D01*
Y47200D01*
X42731Y47083D01*
X42797Y46984D01*
X42897Y46917D01*
X43014Y46894D01*
X43914D01*
X44031Y46917D01*
X44130Y46984D01*
X44196Y47083D01*
X44219Y47200D01*
Y47256D01*
X44302Y47312D01*
X44383Y47392D01*
X45785D01*
X45819Y47350D01*
Y47235D01*
X43998Y45414D01*
X43292D01*
X43175Y45391D01*
X43076Y45324D01*
X43009Y45225D01*
X42986Y45108D01*
Y44121D01*
X42521Y43656D01*
X42404Y43704D01*
Y44092D01*
X42381Y44209D01*
X42314Y44308D01*
X42215Y44375D01*
X42098Y44398D01*
X41082D01*
X40965Y44375D01*
X40866Y44308D01*
X40800Y44209D01*
X40776Y44092D01*
Y43076D01*
X40800Y42959D01*
X40866Y42860D01*
X40965Y42793D01*
X41082Y42770D01*
X41470D01*
X41518Y42653D01*
X38676Y39811D01*
X37198D01*
X37136Y39904D01*
X37134Y39938D01*
X37156Y40100D01*
X37133Y40270D01*
X37068Y40428D01*
X36964Y40564D01*
X36828Y40668D01*
X36670Y40733D01*
X36500Y40756D01*
X36330Y40733D01*
X36172Y40668D01*
X36123Y40630D01*
X36100Y40628D01*
X35963Y40667D01*
X35930Y40716D01*
X35831Y40783D01*
X35714Y40806D01*
X34814D01*
X34697Y40783D01*
X34597Y40716D01*
X34531Y40617D01*
X34508Y40500D01*
Y39811D01*
X34292D01*
Y40500D01*
X34269Y40617D01*
X34203Y40716D01*
X34103Y40783D01*
X33986Y40806D01*
X33783D01*
Y41324D01*
X33910Y41414D01*
X34025Y41391D01*
X34210Y41428D01*
X34367Y41533D01*
X34382Y41555D01*
X34508Y41471D01*
X34548Y41463D01*
Y42750D01*
X34802D01*
Y41463D01*
X34842Y41471D01*
X34968Y41555D01*
X34983Y41533D01*
X35140Y41428D01*
X35325Y41391D01*
X35510Y41428D01*
X35650Y41521D01*
X35790Y41428D01*
X35975Y41391D01*
X36160Y41428D01*
X36300Y41521D01*
X36440Y41428D01*
X36625Y41391D01*
X36810Y41428D01*
X36950Y41521D01*
X37090Y41428D01*
X37275Y41391D01*
X37460Y41428D01*
X37600Y41521D01*
X37740Y41428D01*
X37925Y41391D01*
X38110Y41428D01*
X38250Y41521D01*
X38390Y41428D01*
X38575Y41391D01*
X38760Y41428D01*
X38900Y41521D01*
X39040Y41428D01*
X39225Y41391D01*
X39410Y41428D01*
X39567Y41533D01*
X39672Y41690D01*
X39709Y41875D01*
Y43625D01*
X39672Y43810D01*
X39567Y43967D01*
X39410Y44072D01*
X39225Y44109D01*
X39040Y44072D01*
X38900Y43979D01*
X38760Y44072D01*
X38575Y44109D01*
X38390Y44072D01*
X38250Y43979D01*
X38110Y44072D01*
X37925Y44109D01*
X37740Y44072D01*
X37600Y43979D01*
X37460Y44072D01*
X37275Y44109D01*
X37090Y44072D01*
X36950Y43979D01*
X36810Y44072D01*
X36625Y44109D01*
X36440Y44072D01*
X36300Y43979D01*
X36160Y44072D01*
X35975Y44109D01*
X35790Y44072D01*
X35650Y43979D01*
X35510Y44072D01*
X35325Y44109D01*
X35237Y44092D01*
X35110Y44194D01*
Y44277D01*
X35169Y44364D01*
X35191Y44473D01*
X34009D01*
X34031Y44364D01*
X34129Y44218D01*
X34052Y44104D01*
X34025Y44109D01*
X33840Y44072D01*
X33700Y43979D01*
X33560Y44072D01*
X33375Y44109D01*
X33287Y44092D01*
X33160Y44194D01*
Y45501D01*
X36444D01*
X36610Y45534D01*
X36752Y45629D01*
X38260Y47137D01*
X38354Y47278D01*
X38387Y47445D01*
Y47953D01*
X38505Y48001D01*
X38749Y47758D01*
X38881Y47669D01*
X39037Y47638D01*
X39037Y47638D01*
X40981D01*
Y47200D01*
X41004Y47083D01*
X41070Y46984D01*
X41169Y46917D01*
X41286Y46894D01*
X42186D01*
X42303Y46917D01*
X42403Y46984D01*
X42469Y47083D01*
X42492Y47200D01*
Y48000D01*
X42469Y48117D01*
X42403Y48216D01*
X42303Y48283D01*
X42186Y48306D01*
X41631D01*
X41576Y48367D01*
X41628Y48494D01*
X42186D01*
X42303Y48517D01*
X42403Y48584D01*
X42469Y48683D01*
X42492Y48800D01*
Y49600D01*
X42469Y49717D01*
X42403Y49816D01*
X42303Y49883D01*
X42186Y49906D01*
X41286D01*
X41169Y49883D01*
X41070Y49816D01*
X41004Y49717D01*
X40981Y49600D01*
Y49544D01*
X40898Y49488D01*
X40317Y48908D01*
X39769D01*
X39709Y48967D01*
Y50525D01*
X39672Y50710D01*
X39567Y50867D01*
X39410Y50972D01*
X39225Y51009D01*
X39040Y50972D01*
X38900Y50879D01*
X38760Y50972D01*
X38575Y51009D01*
X38487Y50992D01*
X38360Y51094D01*
Y53094D01*
X38614D01*
X38731Y53117D01*
X38830Y53184D01*
X38896Y53283D01*
X38919Y53400D01*
Y54200D01*
X38896Y54317D01*
X38830Y54416D01*
X38731Y54483D01*
X38614Y54506D01*
X38599D01*
Y54694D01*
X38614D01*
X38731Y54717D01*
X38830Y54784D01*
X38896Y54883D01*
X38919Y55000D01*
Y55567D01*
X39039Y55626D01*
X39117Y55580D01*
X39182Y55422D01*
X39286Y55286D01*
X39422Y55182D01*
X39580Y55117D01*
X39750Y55094D01*
X39920Y55117D01*
X40078Y55182D01*
X40214Y55286D01*
X40318Y55422D01*
X40383Y55580D01*
X40406Y55750D01*
X40383Y55920D01*
X40318Y56078D01*
X40214Y56214D01*
X40078Y56318D01*
X39920Y56383D01*
X39908Y56385D01*
X39637Y56657D01*
X39455Y56778D01*
X39240Y56821D01*
D02*
G37*
G36*
X49373Y52837D02*
X49175D01*
X48946Y52806D01*
X48732Y52718D01*
X48548Y52577D01*
X48407Y52393D01*
X48319Y52179D01*
X48305Y52077D01*
X49373D01*
Y52837D01*
D02*
G37*
G36*
X46927Y51921D02*
Y51077D01*
X47771D01*
X47754Y51206D01*
X47655Y51444D01*
X47498Y51648D01*
X47294Y51805D01*
X47056Y51904D01*
X46927Y51921D01*
D02*
G37*
G36*
X4378Y26106D02*
X3761D01*
X3770Y26036D01*
X3846Y25853D01*
X3967Y25695D01*
X4125Y25574D01*
X4308Y25498D01*
X4378Y25489D01*
Y26106D01*
D02*
G37*
G36*
X3895Y23336D02*
X3572D01*
X3473Y23316D01*
X3389Y23260D01*
X3342Y23190D01*
X3259Y23246D01*
X3150Y23268D01*
Y22677D01*
Y22086D01*
X3259Y22108D01*
X3342Y22164D01*
X3389Y22094D01*
X3473Y22038D01*
X3572Y22018D01*
X3895D01*
Y22677D01*
Y23336D01*
D02*
G37*
G36*
X47891Y27573D02*
X47427D01*
Y27109D01*
X47536Y27131D01*
X47735Y27265D01*
X47869Y27464D01*
X47891Y27573D01*
D02*
G37*
G36*
X4000Y56064D02*
X3985Y56061D01*
X3970Y56063D01*
X3627Y56029D01*
X3598Y56020D01*
X3568Y56017D01*
X3238Y55917D01*
X3212Y55903D01*
X3183Y55894D01*
X2879Y55732D01*
X2856Y55713D01*
X2829Y55699D01*
X2563Y55480D01*
X2543Y55457D01*
X2520Y55437D01*
X2301Y55171D01*
X2287Y55144D01*
X2268Y55121D01*
X2106Y54817D01*
X2097Y54788D01*
X2083Y54762D01*
X1983Y54432D01*
X1980Y54402D01*
X1971Y54373D01*
X1937Y54030D01*
X1940Y54000D01*
X1937Y53970D01*
X1971Y53627D01*
X1980Y53598D01*
X1983Y53568D01*
X2083Y53238D01*
X2097Y53212D01*
X2106Y53183D01*
X2268Y52879D01*
X2287Y52856D01*
X2301Y52829D01*
X2520Y52563D01*
X2543Y52543D01*
X2563Y52520D01*
X2829Y52301D01*
X2856Y52287D01*
X2879Y52268D01*
X3183Y52106D01*
X3212Y52097D01*
X3238Y52083D01*
X3568Y51983D01*
X3598Y51980D01*
X3627Y51971D01*
X3970Y51937D01*
X3985Y51939D01*
X4000Y51936D01*
X4015Y51939D01*
X4030Y51937D01*
X4373Y51971D01*
X4402Y51980D01*
X4432Y51983D01*
X4762Y52083D01*
X4788Y52097D01*
X4817Y52106D01*
X5121Y52268D01*
X5144Y52287D01*
X5171Y52301D01*
X5437Y52520D01*
X5457Y52543D01*
X5480Y52563D01*
X5699Y52829D01*
X5713Y52856D01*
X5732Y52879D01*
X5894Y53183D01*
X5903Y53212D01*
X5917Y53238D01*
X6017Y53568D01*
X6020Y53598D01*
X6029Y53627D01*
X6063Y53970D01*
X6060Y54000D01*
X6063Y54030D01*
X6029Y54373D01*
X6020Y54402D01*
X6017Y54432D01*
X5917Y54762D01*
X5903Y54788D01*
X5894Y54817D01*
X5732Y55121D01*
X5713Y55144D01*
X5699Y55171D01*
X5480Y55437D01*
X5457Y55457D01*
X5437Y55480D01*
X5171Y55699D01*
X5144Y55713D01*
X5121Y55732D01*
X4817Y55894D01*
X4788Y55903D01*
X4762Y55917D01*
X4432Y56017D01*
X4402Y56020D01*
X4373Y56029D01*
X4030Y56063D01*
X4015Y56061D01*
X4000Y56064D01*
D02*
G37*
G36*
X43000D02*
X42985Y56061D01*
X42970Y56063D01*
X42627Y56029D01*
X42598Y56020D01*
X42568Y56017D01*
X42238Y55917D01*
X42212Y55903D01*
X42183Y55894D01*
X41879Y55732D01*
X41856Y55713D01*
X41829Y55699D01*
X41563Y55480D01*
X41543Y55457D01*
X41520Y55437D01*
X41301Y55171D01*
X41287Y55144D01*
X41268Y55121D01*
X41106Y54817D01*
X41097Y54788D01*
X41083Y54762D01*
X40983Y54432D01*
X40980Y54402D01*
X40971Y54373D01*
X40937Y54030D01*
X40940Y54000D01*
X40937Y53970D01*
X40971Y53627D01*
X40980Y53598D01*
X40983Y53568D01*
X41083Y53238D01*
X41097Y53212D01*
X41106Y53183D01*
X41268Y52879D01*
X41287Y52856D01*
X41301Y52829D01*
X41520Y52563D01*
X41543Y52543D01*
X41563Y52520D01*
X41829Y52301D01*
X41856Y52287D01*
X41879Y52268D01*
X42183Y52106D01*
X42212Y52097D01*
X42238Y52083D01*
X42568Y51983D01*
X42598Y51980D01*
X42627Y51971D01*
X42970Y51937D01*
X42985Y51939D01*
X43000Y51936D01*
X43015Y51939D01*
X43030Y51937D01*
X43373Y51971D01*
X43402Y51980D01*
X43432Y51983D01*
X43762Y52083D01*
X43788Y52097D01*
X43817Y52106D01*
X44121Y52268D01*
X44144Y52287D01*
X44171Y52301D01*
X44437Y52520D01*
X44457Y52543D01*
X44480Y52563D01*
X44699Y52829D01*
X44713Y52856D01*
X44732Y52879D01*
X44894Y53183D01*
X44903Y53212D01*
X44917Y53238D01*
X45017Y53568D01*
X45020Y53598D01*
X45029Y53627D01*
X45063Y53970D01*
X45060Y54000D01*
X45063Y54030D01*
X45029Y54373D01*
X45020Y54402D01*
X45017Y54432D01*
X44917Y54762D01*
X44903Y54788D01*
X44894Y54817D01*
X44732Y55121D01*
X44713Y55144D01*
X44699Y55171D01*
X44480Y55437D01*
X44457Y55457D01*
X44437Y55480D01*
X44171Y55699D01*
X44144Y55713D01*
X44121Y55732D01*
X43817Y55894D01*
X43788Y55903D01*
X43762Y55917D01*
X43432Y56017D01*
X43402Y56020D01*
X43373Y56029D01*
X43030Y56063D01*
X43015Y56061D01*
X43000Y56064D01*
D02*
G37*
%LPD*%
G36*
X23974Y20676D02*
X24150Y20641D01*
X24326Y20676D01*
X24400Y20726D01*
X24474Y20676D01*
X24650Y20641D01*
X24826Y20676D01*
X24900Y20726D01*
X24974Y20676D01*
X25150Y20641D01*
X25326Y20676D01*
X25400Y20726D01*
X25474Y20676D01*
X25650Y20641D01*
X25742Y20566D01*
Y20287D01*
X25665Y20235D01*
X25531Y20036D01*
X25509Y19927D01*
X26100D01*
Y19800D01*
X26227D01*
Y19197D01*
X26342Y19103D01*
Y18855D01*
X24893Y17406D01*
X24314D01*
X24197Y17383D01*
X24195Y17382D01*
X24096Y17481D01*
X24075Y17513D01*
X24075Y17513D01*
X23899Y17688D01*
X23867Y17710D01*
X21972Y19604D01*
X22009Y19726D01*
X22036Y19731D01*
X22235Y19865D01*
X22369Y20064D01*
X22391Y20173D01*
X21800D01*
Y20427D01*
X22391D01*
X22369Y20536D01*
X22420Y20688D01*
X22443Y20697D01*
X22474Y20676D01*
X22650Y20641D01*
X22826Y20676D01*
X22900Y20726D01*
X22974Y20676D01*
X23150Y20641D01*
X23326Y20676D01*
X23400Y20726D01*
X23474Y20676D01*
X23650Y20641D01*
X23826Y20676D01*
X23900Y20726D01*
X23974Y20676D01*
D02*
G37*
%LPC*%
G36*
X25973Y19673D02*
X25509D01*
X25531Y19564D01*
X25665Y19365D01*
X25864Y19231D01*
X25973Y19209D01*
Y19673D01*
D02*
G37*
%LPD*%
G36*
X10883Y31962D02*
X10883Y31962D01*
X11015Y31873D01*
X11171Y31842D01*
X11171Y31842D01*
X16958D01*
X17020Y31750D01*
X16958Y31658D01*
X9370D01*
X9214Y31627D01*
X9101Y31552D01*
X9031Y31572D01*
X8974Y31611D01*
Y31796D01*
X8442D01*
Y31214D01*
X8577D01*
X8629Y31087D01*
X8494Y30951D01*
X7915D01*
X7798Y30928D01*
X7699Y30862D01*
X7632Y30762D01*
X7609Y30645D01*
Y30451D01*
X6470D01*
X6346Y30614D01*
X6344Y30615D01*
Y30742D01*
X6346Y30742D01*
X6474Y30910D01*
X6554Y31104D01*
X6582Y31313D01*
X6554Y31522D01*
X6474Y31716D01*
X6346Y31884D01*
X6183Y32008D01*
Y32869D01*
X6683D01*
X6800Y32892D01*
X6899Y32958D01*
X6966Y33057D01*
X6977Y33113D01*
X9731D01*
X10883Y31962D01*
D02*
G37*
G36*
X32739Y55010D02*
X32762Y54893D01*
X32828Y54794D01*
X32928Y54727D01*
X33045Y54704D01*
X33059D01*
Y54506D01*
X33014D01*
X32897Y54483D01*
X32797Y54416D01*
X32731Y54317D01*
X32708Y54200D01*
Y53400D01*
X32731Y53283D01*
X32797Y53184D01*
X32897Y53117D01*
X33014Y53094D01*
X33554D01*
X35499Y51149D01*
X35492Y51033D01*
X35452Y51003D01*
Y49650D01*
X35198D01*
Y50937D01*
X35191Y50936D01*
X35081Y50975D01*
X35040Y51003D01*
X34963Y51118D01*
X34963Y51118D01*
X33893Y52188D01*
X33761Y52277D01*
X33605Y52308D01*
X33605Y52308D01*
X28604D01*
X28555Y52425D01*
X29973Y53843D01*
X30088Y53779D01*
X30131Y53564D01*
X30265Y53365D01*
X30464Y53231D01*
X30573Y53209D01*
Y53800D01*
X30827D01*
Y53209D01*
X30936Y53231D01*
X31043Y53303D01*
X31047Y53301D01*
X31103Y53217D01*
X31187Y53161D01*
X31286Y53141D01*
X31609D01*
Y53800D01*
Y54459D01*
X31286D01*
X31187Y54439D01*
X31103Y54383D01*
X31047Y54299D01*
X31043Y54297D01*
X30936Y54369D01*
X30721Y54412D01*
X30657Y54527D01*
X30950Y54820D01*
X31090Y54810D01*
X31101Y54794D01*
X31200Y54727D01*
X31317Y54704D01*
X32217D01*
X32334Y54727D01*
X32434Y54794D01*
X32500Y54893D01*
X32523Y55010D01*
Y55699D01*
X32739D01*
Y55010D01*
D02*
G37*
G36*
X12104Y30715D02*
X12036Y30664D01*
X11932Y30528D01*
X11867Y30370D01*
X11844Y30200D01*
X11867Y30030D01*
X11932Y29872D01*
X12036Y29736D01*
X12172Y29632D01*
X12330Y29567D01*
X12500Y29544D01*
X12670Y29567D01*
X12828Y29632D01*
X12891Y29681D01*
X12914Y29684D01*
X13049Y29649D01*
X13084Y29597D01*
X13183Y29531D01*
X13300Y29508D01*
X13879D01*
X14014Y29372D01*
X13962Y29245D01*
X13827D01*
Y28663D01*
X14359D01*
Y28848D01*
X14486Y28901D01*
X15125Y28262D01*
X15258Y28173D01*
X15414Y28142D01*
X15465D01*
X15527Y28015D01*
X15509Y27927D01*
X16100D01*
Y27673D01*
X15509D01*
X15531Y27564D01*
X15665Y27365D01*
X15784Y27285D01*
X15745Y27158D01*
X14284D01*
X14216Y27285D01*
X14269Y27364D01*
X14291Y27473D01*
X13109D01*
X13131Y27364D01*
X13184Y27285D01*
X13116Y27158D01*
X9594D01*
X9594Y27158D01*
X9438Y27127D01*
X9306Y27038D01*
X9306Y27038D01*
X8076Y25809D01*
X7954Y25859D01*
X7680Y25895D01*
X7406Y25859D01*
X7150Y25753D01*
X6931Y25585D01*
X6763Y25366D01*
X6657Y25110D01*
X6621Y24836D01*
X6624Y24812D01*
X6509Y24711D01*
X6482Y24718D01*
X6416Y24817D01*
X6317Y24884D01*
X6200Y24907D01*
X6157D01*
Y25525D01*
X6178Y25534D01*
X6346Y25662D01*
X6474Y25830D01*
X6554Y26024D01*
X6582Y26233D01*
X6554Y26442D01*
X6474Y26636D01*
X6346Y26804D01*
X6344Y26805D01*
Y26931D01*
X6346Y26932D01*
X6474Y27100D01*
X6554Y27294D01*
X6582Y27503D01*
X6554Y27712D01*
X6474Y27906D01*
X6346Y28074D01*
X6344Y28074D01*
Y28201D01*
X6346Y28202D01*
X6474Y28370D01*
X6554Y28564D01*
X6582Y28773D01*
X6554Y28982D01*
X6474Y29176D01*
X6346Y29344D01*
X6344Y29344D01*
Y29472D01*
X6346Y29472D01*
X6470Y29635D01*
X7631D01*
X7632Y29628D01*
X7699Y29529D01*
X7798Y29463D01*
X7915Y29440D01*
X8715D01*
X8832Y29463D01*
X8931Y29529D01*
X8998Y29628D01*
X9021Y29745D01*
Y30325D01*
X9539Y30842D01*
X12061D01*
X12104Y30715D01*
D02*
G37*
G36*
X37408Y55000D02*
X37431Y54883D01*
X37497Y54784D01*
X37597Y54717D01*
X37714Y54694D01*
X37728D01*
Y54506D01*
X37714D01*
X37597Y54483D01*
X37497Y54416D01*
X37431Y54317D01*
X37408Y54200D01*
Y53400D01*
X37431Y53283D01*
X37490Y53195D01*
Y51039D01*
X37402Y50974D01*
Y49650D01*
X37148D01*
Y50974D01*
X37060Y51039D01*
Y53155D01*
X37103Y53184D01*
X37169Y53283D01*
X37192Y53400D01*
Y54200D01*
X37169Y54317D01*
X37103Y54416D01*
X37003Y54483D01*
X36886Y54506D01*
X35986D01*
X35869Y54483D01*
X35770Y54416D01*
X35704Y54317D01*
X35681Y54200D01*
Y53400D01*
X35704Y53283D01*
X35770Y53184D01*
X35869Y53117D01*
X35986Y53094D01*
X36190D01*
Y51856D01*
X36072Y51807D01*
X34219Y53660D01*
Y54200D01*
X34196Y54317D01*
X34130Y54416D01*
X34031Y54483D01*
X33930Y54503D01*
Y54704D01*
X33945D01*
X34062Y54727D01*
X34161Y54794D01*
X34227Y54893D01*
X34250Y55010D01*
Y55699D01*
X34632D01*
X34718Y55572D01*
X34709Y55527D01*
X35300D01*
Y55400D01*
X35427D01*
Y54809D01*
X35536Y54831D01*
X35548Y54839D01*
X35788D01*
X35803Y54817D01*
X35887Y54761D01*
X35986Y54741D01*
X36309D01*
Y55400D01*
X36436D01*
Y55527D01*
X37145D01*
Y55699D01*
X37408D01*
Y55000D01*
D02*
G37*
G36*
X35094Y36815D02*
X35094Y36814D01*
Y35914D01*
X35117Y35797D01*
X35184Y35697D01*
X35283Y35631D01*
X35400Y35608D01*
X36200D01*
X36317Y35631D01*
X36416Y35697D01*
X36483Y35797D01*
X36484Y35803D01*
X36716D01*
X36717Y35797D01*
X36784Y35697D01*
X36883Y35631D01*
X37000Y35608D01*
X37615D01*
X37668Y35481D01*
X37532Y35345D01*
X37527D01*
Y34636D01*
Y33927D01*
X37800D01*
X37829Y33933D01*
X37892Y33816D01*
X37567Y33492D01*
X37446Y33310D01*
X37411Y33138D01*
X37399Y33133D01*
X37291Y33154D01*
Y32564D01*
Y31958D01*
X37403Y31866D01*
Y29689D01*
X37369Y29683D01*
X37270Y29616D01*
X37204Y29517D01*
X37181Y29400D01*
Y28600D01*
X37204Y28483D01*
X37270Y28384D01*
X37369Y28317D01*
X37486Y28294D01*
X38386D01*
X38503Y28317D01*
X38603Y28384D01*
X38669Y28483D01*
X38692Y28600D01*
Y29400D01*
X38669Y29517D01*
X38603Y29616D01*
X38524Y29669D01*
Y32239D01*
X38651Y32247D01*
X38667Y32130D01*
X38732Y31972D01*
X38836Y31836D01*
X38972Y31732D01*
X39130Y31667D01*
X39300Y31644D01*
X39470Y31667D01*
X39628Y31732D01*
X39764Y31836D01*
X39868Y31972D01*
X39933Y32130D01*
X39956Y32300D01*
X40069Y32392D01*
X44053D01*
X44147Y32277D01*
X44750D01*
Y32023D01*
X44159D01*
X44176Y31941D01*
X44132Y31883D01*
X44128Y31879D01*
X44075Y31844D01*
X44000Y31859D01*
X43877D01*
Y31250D01*
Y30641D01*
X44000D01*
X44099Y30661D01*
X44183Y30717D01*
X44317D01*
X44401Y30661D01*
X44500Y30641D01*
X44623D01*
Y31250D01*
X44877D01*
Y30641D01*
X45000D01*
X45099Y30661D01*
X45183Y30717D01*
X45239Y30801D01*
X45373Y30824D01*
X45383Y30817D01*
X45500Y30794D01*
X45844D01*
Y30450D01*
X45861Y30368D01*
X45846Y30294D01*
X45798Y30209D01*
X45734Y30166D01*
X45667Y30067D01*
X45644Y29950D01*
Y29450D01*
X45667Y29333D01*
X45694Y29293D01*
X45723Y29200D01*
X45694Y29107D01*
X45667Y29067D01*
X45644Y28950D01*
Y28826D01*
X45517Y28740D01*
X45400Y28756D01*
X45230Y28733D01*
X45072Y28668D01*
X44936Y28564D01*
X44832Y28428D01*
X44767Y28270D01*
X44744Y28100D01*
X44766Y27933D01*
X44769Y27906D01*
X44688Y27806D01*
X44555D01*
X44459Y27895D01*
X44446Y27925D01*
X44456Y28000D01*
X44433Y28170D01*
X44368Y28328D01*
X44264Y28464D01*
X44128Y28568D01*
X43970Y28633D01*
X43800Y28656D01*
X43751Y28649D01*
X43656Y28733D01*
Y28950D01*
X43633Y29067D01*
X43566Y29166D01*
X43467Y29233D01*
X43350Y29256D01*
X42879D01*
X42850Y29287D01*
X42796Y29383D01*
X42809Y29450D01*
Y29573D01*
X41591D01*
Y29450D01*
X41611Y29351D01*
X41633Y29318D01*
X41633Y29219D01*
X41531Y29108D01*
X40419D01*
Y29400D01*
X40396Y29517D01*
X40330Y29616D01*
X40231Y29683D01*
X40114Y29706D01*
X39214D01*
X39097Y29683D01*
X38997Y29616D01*
X38931Y29517D01*
X38908Y29400D01*
Y28600D01*
X38931Y28483D01*
X38997Y28384D01*
X39097Y28317D01*
X39214Y28294D01*
X39256D01*
Y28106D01*
X39214D01*
X39097Y28083D01*
X38997Y28016D01*
X38931Y27917D01*
X38908Y27800D01*
Y27000D01*
X38931Y26883D01*
X38997Y26784D01*
X39097Y26717D01*
X39214Y26694D01*
X40114D01*
X40231Y26717D01*
X40330Y26784D01*
X40396Y26883D01*
X40419Y27000D01*
Y27800D01*
X40396Y27917D01*
X40330Y28016D01*
X40231Y28083D01*
X40114Y28106D01*
X40071D01*
Y28292D01*
X41530D01*
X41615Y28174D01*
X41594Y28107D01*
X41567Y28067D01*
X41544Y27950D01*
Y27721D01*
X40045Y26221D01*
X38634D01*
X38539Y26337D01*
X37936D01*
Y26591D01*
X38527D01*
X38505Y26699D01*
X38499Y26708D01*
X38486Y26761D01*
X38570Y26817D01*
X38626Y26901D01*
X38645Y27000D01*
Y27273D01*
X37227D01*
Y27000D01*
X37247Y26901D01*
X37303Y26817D01*
X37387Y26761D01*
X37374Y26708D01*
X37367Y26699D01*
X37333Y26524D01*
X37198Y26479D01*
X36138Y27538D01*
X36006Y27627D01*
X35850Y27658D01*
X35850Y27658D01*
X32834D01*
X32759Y27750D01*
X32724Y27926D01*
X32674Y28000D01*
X32724Y28074D01*
X32759Y28250D01*
X32724Y28426D01*
X32674Y28500D01*
X32724Y28574D01*
X32759Y28750D01*
X32724Y28926D01*
X32674Y29000D01*
X32724Y29074D01*
X32759Y29250D01*
X32724Y29426D01*
X32674Y29500D01*
X32724Y29574D01*
X32759Y29750D01*
X32724Y29926D01*
X32674Y30000D01*
X32724Y30074D01*
X32759Y30250D01*
X32724Y30426D01*
X32674Y30500D01*
X32724Y30574D01*
X32759Y30750D01*
X32781Y30777D01*
X32939Y30784D01*
X33175Y30548D01*
X33175Y30548D01*
X33308Y30460D01*
X33464Y30429D01*
X35294D01*
Y30386D01*
X35317Y30269D01*
X35384Y30170D01*
X35483Y30104D01*
X35505Y30099D01*
X35537Y29964D01*
X35536Y29964D01*
X35432Y29828D01*
X35367Y29670D01*
X35344Y29500D01*
X35367Y29330D01*
X35432Y29172D01*
X35536Y29036D01*
X35672Y28932D01*
X35830Y28867D01*
X36000Y28844D01*
X36170Y28867D01*
X36328Y28932D01*
X36464Y29036D01*
X36568Y29172D01*
X36633Y29330D01*
X36656Y29500D01*
X36633Y29670D01*
X36568Y29828D01*
X36464Y29964D01*
X36463Y29964D01*
X36495Y30099D01*
X36517Y30104D01*
X36616Y30170D01*
X36683Y30269D01*
X36706Y30386D01*
Y31286D01*
X36683Y31403D01*
X36616Y31503D01*
X36517Y31569D01*
X36400Y31592D01*
X35821D01*
X35686Y31728D01*
X35738Y31855D01*
X35873D01*
Y32437D01*
X35341D01*
Y32252D01*
X35214Y32199D01*
X35023Y32390D01*
Y33283D01*
X35621Y33881D01*
X36200D01*
X36317Y33904D01*
X36416Y33970D01*
X36483Y34069D01*
X36506Y34186D01*
Y35086D01*
X36483Y35203D01*
X36416Y35303D01*
X36317Y35369D01*
X36200Y35392D01*
X35400D01*
X35283Y35369D01*
X35184Y35303D01*
X35028Y35268D01*
X34870Y35333D01*
X34700Y35356D01*
X34530Y35333D01*
X34372Y35268D01*
X34236Y35164D01*
X34132Y35028D01*
X34067Y34870D01*
X34044Y34700D01*
X34067Y34530D01*
X34132Y34372D01*
X34236Y34236D01*
X34372Y34132D01*
X34490Y34083D01*
X34536Y33949D01*
X34327Y33740D01*
X34239Y33608D01*
X34208Y33452D01*
X34208Y33452D01*
Y32239D01*
X34164Y32201D01*
X34089Y32167D01*
X33936Y32269D01*
X33827Y32291D01*
Y31700D01*
X33573D01*
Y32291D01*
X33512Y32278D01*
X33463Y32398D01*
X33558Y32462D01*
X33938Y32842D01*
X33938Y32842D01*
X34027Y32975D01*
X34058Y33131D01*
X34058Y33131D01*
Y33669D01*
X34058Y33669D01*
X34027Y33825D01*
X33938Y33958D01*
X33938Y33958D01*
X33108Y34788D01*
X33075Y34810D01*
X33068Y34828D01*
X32964Y34964D01*
X32828Y35068D01*
X32670Y35133D01*
X32500Y35156D01*
X32330Y35133D01*
X32172Y35068D01*
X32036Y34964D01*
X31932Y34828D01*
X31867Y34670D01*
X31844Y34500D01*
X31867Y34330D01*
X31932Y34172D01*
X32036Y34036D01*
X32172Y33932D01*
X32283Y33886D01*
X32328Y33769D01*
X32327Y33739D01*
X32302Y33708D01*
X32300Y33709D01*
X30600D01*
X30424Y33674D01*
X30385Y33686D01*
X30368Y33728D01*
X30264Y33864D01*
X30128Y33968D01*
X30086Y33985D01*
X30074Y34024D01*
X30109Y34200D01*
Y35900D01*
X30074Y36076D01*
X30058Y36100D01*
Y36581D01*
X30419Y36942D01*
X34990D01*
X35094Y36815D01*
D02*
G37*
G36*
X25691Y38841D02*
X26014D01*
X26113Y38861D01*
X26197Y38917D01*
X26253Y39001D01*
X26319Y39028D01*
X26464Y38931D01*
X26573Y38909D01*
Y39500D01*
X26827D01*
Y38909D01*
X26936Y38931D01*
X27135Y39065D01*
X27166Y39110D01*
X27292Y39122D01*
X28303Y38111D01*
X28303Y38111D01*
X28435Y38023D01*
X28591Y37992D01*
X28591Y37992D01*
X29349D01*
X29398Y37875D01*
X28862Y37338D01*
X28773Y37206D01*
X28742Y37050D01*
X28742Y37050D01*
Y36434D01*
X28650Y36359D01*
X28474Y36324D01*
X28400Y36274D01*
X28326Y36324D01*
X28150Y36359D01*
X27974Y36324D01*
X27900Y36274D01*
X27826Y36324D01*
X27650Y36359D01*
X27558Y36434D01*
Y36896D01*
X27585Y36915D01*
X27719Y37114D01*
X27741Y37223D01*
X27150D01*
Y37350D01*
X27023D01*
Y37941D01*
X26914Y37919D01*
X26715Y37785D01*
X26581Y37586D01*
X26565Y37506D01*
X26444Y37469D01*
X25199Y38714D01*
X25252Y38841D01*
X25437D01*
Y39500D01*
X25691D01*
Y38841D01*
D02*
G37*
G36*
X29116Y54572D02*
X27555Y53011D01*
X24900D01*
X24685Y52968D01*
X24503Y52847D01*
X22503Y50847D01*
X22382Y50665D01*
X22339Y50450D01*
Y41311D01*
X14434D01*
X14411Y41426D01*
X14344Y41525D01*
X14245Y41592D01*
X14128Y41615D01*
X13328D01*
X13211Y41592D01*
X13112Y41525D01*
X13045Y41426D01*
X13022Y41309D01*
Y39709D01*
X13045Y39592D01*
X13112Y39493D01*
X13167Y39456D01*
Y39292D01*
X12979Y39148D01*
X12811Y38929D01*
X12705Y38673D01*
X12669Y38399D01*
X12705Y38125D01*
X12811Y37869D01*
X12979Y37650D01*
X13198Y37482D01*
X13454Y37376D01*
X13728Y37340D01*
X14002Y37376D01*
X14258Y37482D01*
X14477Y37650D01*
X14645Y37869D01*
X14751Y38125D01*
X14787Y38399D01*
X14751Y38673D01*
X14706Y38781D01*
X14804Y38878D01*
X14830Y38867D01*
X15000Y38844D01*
X15170Y38867D01*
X15328Y38932D01*
X15464Y39036D01*
X15568Y39172D01*
X15633Y39330D01*
X15656Y39500D01*
X15633Y39670D01*
X15568Y39828D01*
X15464Y39964D01*
X15335Y40062D01*
X15334Y40076D01*
X15395Y40189D01*
X19847D01*
X19895Y40072D01*
X16531Y36708D01*
X13006D01*
X12964Y36764D01*
X12828Y36868D01*
X12670Y36933D01*
X12500Y36956D01*
X12330Y36933D01*
X12172Y36868D01*
X12036Y36764D01*
X11932Y36628D01*
X11867Y36470D01*
X11844Y36300D01*
X11867Y36130D01*
X11932Y35972D01*
X12036Y35836D01*
X12172Y35732D01*
X12330Y35667D01*
X12500Y35644D01*
X12670Y35667D01*
X12828Y35732D01*
X12964Y35836D01*
X13006Y35892D01*
X16700D01*
X16700Y35892D01*
X16856Y35923D01*
X16988Y36012D01*
X20669Y39692D01*
X23081D01*
Y39321D01*
X21362Y37602D01*
X21311Y37526D01*
X21265Y37471D01*
X21148Y37494D01*
X21036Y37569D01*
X20927Y37591D01*
Y37000D01*
X20800D01*
Y36873D01*
X20209D01*
X20231Y36764D01*
X20365Y36565D01*
X20518Y36462D01*
X20494Y36344D01*
X20379Y36288D01*
X20326Y36324D01*
X20150Y36359D01*
X19974Y36324D01*
X19826Y36224D01*
X19726Y36076D01*
X19691Y35900D01*
Y34200D01*
X19726Y34024D01*
X19826Y33876D01*
X19974Y33776D01*
X20150Y33741D01*
X20326Y33776D01*
X20400Y33826D01*
X20474Y33776D01*
X20650Y33741D01*
X20826Y33776D01*
X20941Y33853D01*
X20992Y33819D01*
X21023Y33813D01*
Y33948D01*
X21074Y34024D01*
X21109Y34200D01*
Y35050D01*
X21191D01*
Y34200D01*
X21226Y34024D01*
X21277Y33948D01*
Y33813D01*
X21308Y33819D01*
X21359Y33854D01*
X21474Y33776D01*
X21650Y33741D01*
X21818Y33775D01*
X21862Y33710D01*
X22560Y33012D01*
X22560Y33012D01*
X22692Y32923D01*
X22848Y32892D01*
X24298D01*
X24361Y32765D01*
X24332Y32728D01*
X24267Y32570D01*
X24244Y32400D01*
X24267Y32230D01*
X24332Y32072D01*
X24436Y31936D01*
X24572Y31832D01*
X24730Y31767D01*
X24900Y31744D01*
X24992Y31756D01*
X25044Y31635D01*
X25006Y31581D01*
X24964Y31547D01*
X24900Y31556D01*
X24730Y31533D01*
X24572Y31468D01*
X24436Y31364D01*
X24332Y31228D01*
X24267Y31070D01*
X24244Y30900D01*
X24260Y30785D01*
X24173Y30658D01*
X20919D01*
X20538Y31038D01*
X20406Y31127D01*
X20250Y31158D01*
X20250Y31158D01*
X19734D01*
X19659Y31250D01*
X19624Y31426D01*
X19574Y31500D01*
X19624Y31574D01*
X19659Y31750D01*
X19624Y31926D01*
X19574Y32000D01*
X19624Y32074D01*
X19659Y32250D01*
X19624Y32426D01*
X19574Y32500D01*
X19624Y32574D01*
X19659Y32750D01*
X19624Y32926D01*
X19574Y33000D01*
X19624Y33074D01*
X19659Y33250D01*
X19624Y33426D01*
X19524Y33574D01*
X19376Y33674D01*
X19200Y33709D01*
X17500D01*
X17324Y33674D01*
X17176Y33574D01*
X17076Y33426D01*
X17041Y33250D01*
X17076Y33074D01*
X17126Y33000D01*
X17076Y32926D01*
X17041Y32750D01*
X16966Y32658D01*
X11340D01*
X10188Y33809D01*
X10056Y33898D01*
X9900Y33929D01*
X9900Y33929D01*
X6989D01*
Y34074D01*
X6966Y34191D01*
X6899Y34291D01*
X6800Y34357D01*
X6683Y34380D01*
X5883D01*
X5766Y34357D01*
X5667Y34291D01*
X5600Y34191D01*
X5577Y34074D01*
Y33495D01*
X5487Y33405D01*
X5433Y33324D01*
X5306Y33363D01*
Y34086D01*
X5283Y34203D01*
X5216Y34303D01*
X5117Y34369D01*
X5000Y34392D01*
X4588D01*
X4539Y34510D01*
X4637Y34608D01*
X5000D01*
X5117Y34631D01*
X5216Y34697D01*
X5283Y34797D01*
X5306Y34914D01*
Y34916D01*
X5577D01*
Y34902D01*
X5600Y34785D01*
X5667Y34685D01*
X5766Y34619D01*
X5883Y34596D01*
X6683D01*
X6800Y34619D01*
X6899Y34685D01*
X6966Y34785D01*
X6989Y34902D01*
Y35802D01*
X6966Y35919D01*
X6899Y36018D01*
X6800Y36084D01*
X6683Y36107D01*
X5883D01*
X5766Y36084D01*
X5667Y36018D01*
X5600Y35919D01*
X5577Y35802D01*
Y35787D01*
X5306D01*
Y35814D01*
X5283Y35931D01*
X5216Y36030D01*
X5161Y36067D01*
Y45549D01*
X5619Y46007D01*
X5854Y45976D01*
X6128Y46012D01*
X6278Y46074D01*
X6288Y46065D01*
X6354Y45968D01*
X6250Y45813D01*
X6208Y45598D01*
Y45052D01*
X6201Y45051D01*
X6102Y44984D01*
X6036Y44885D01*
X6013Y44768D01*
Y43968D01*
X6036Y43851D01*
X6102Y43752D01*
X6201Y43685D01*
X6208Y43684D01*
Y43046D01*
X6184Y43030D01*
X6117Y42931D01*
X6094Y42814D01*
Y41914D01*
X6117Y41797D01*
X6184Y41697D01*
X6283Y41631D01*
X6400Y41608D01*
X6634D01*
X6655Y41482D01*
X6473Y41361D01*
X6458Y41345D01*
X6400D01*
X6301Y41326D01*
X6217Y41270D01*
X6161Y41186D01*
X6141Y41086D01*
Y40763D01*
X6800D01*
Y40509D01*
X6141D01*
Y40186D01*
X6161Y40087D01*
X6217Y40003D01*
X6239Y39988D01*
Y39948D01*
X6231Y39936D01*
X6209Y39827D01*
X7391D01*
X7369Y39936D01*
X7361Y39948D01*
Y39988D01*
X7383Y40003D01*
X7439Y40087D01*
X7459Y40186D01*
Y40404D01*
X7841D01*
Y40186D01*
X7861Y40087D01*
X7917Y40003D01*
X8001Y39947D01*
X8100Y39927D01*
X8373D01*
Y40636D01*
X8500D01*
Y40763D01*
X9159D01*
Y41057D01*
X9229Y41101D01*
X9283Y41113D01*
X9974Y40422D01*
Y39709D01*
X9997Y39592D01*
X10064Y39493D01*
X10163Y39426D01*
X10280Y39403D01*
X11080D01*
X11197Y39426D01*
X11296Y39493D01*
X11363Y39592D01*
X11386Y39709D01*
Y41309D01*
X11363Y41426D01*
X11296Y41525D01*
X11197Y41592D01*
X11080Y41615D01*
X10367D01*
X9222Y42760D01*
X9206Y42771D01*
Y42814D01*
X9183Y42931D01*
X9116Y43030D01*
X9017Y43096D01*
X8900Y43119D01*
X8100D01*
X7983Y43096D01*
X7884Y43030D01*
X7817Y42931D01*
X7816Y42924D01*
X7484D01*
X7483Y42931D01*
X7416Y43030D01*
X7329Y43088D01*
Y43684D01*
X7335Y43685D01*
X7435Y43752D01*
X7501Y43851D01*
X7524Y43968D01*
Y44768D01*
X7501Y44885D01*
X7435Y44984D01*
X7335Y45051D01*
X7329Y45052D01*
Y45366D01*
X7659Y45696D01*
X7753Y45677D01*
X8753D01*
X8870Y45700D01*
X8969Y45767D01*
X9036Y45866D01*
X9059Y45983D01*
Y48183D01*
X9036Y48300D01*
X8969Y48399D01*
X8870Y48466D01*
X8753Y48489D01*
X7753D01*
X7636Y48466D01*
X7537Y48399D01*
X7470Y48300D01*
X7447Y48183D01*
Y47070D01*
X6927Y46550D01*
X6820Y46622D01*
X6877Y46761D01*
X6913Y47035D01*
X6877Y47309D01*
X6771Y47565D01*
X6603Y47784D01*
X6415Y47928D01*
Y48200D01*
X7737Y49522D01*
X9992D01*
Y48477D01*
X9936Y48466D01*
X9837Y48399D01*
X9770Y48300D01*
X9747Y48183D01*
Y45983D01*
X9770Y45866D01*
X9837Y45767D01*
X9936Y45700D01*
X10053Y45677D01*
X10119D01*
Y44962D01*
X10069Y44929D01*
X9199D01*
X9162Y44984D01*
X9063Y45051D01*
X8946Y45074D01*
X8046D01*
X7929Y45051D01*
X7829Y44984D01*
X7763Y44885D01*
X7740Y44768D01*
Y43968D01*
X7763Y43851D01*
X7829Y43752D01*
X7929Y43685D01*
X8046Y43662D01*
X8946D01*
X9063Y43685D01*
X9162Y43752D01*
X9199Y43807D01*
X9974D01*
Y43109D01*
X9997Y42992D01*
X10064Y42893D01*
X10163Y42826D01*
X10280Y42803D01*
X11080D01*
X11197Y42826D01*
X11296Y42893D01*
X11363Y42992D01*
X11386Y43109D01*
Y44709D01*
X11363Y44826D01*
X11296Y44925D01*
X11241Y44962D01*
Y45748D01*
X11269Y45767D01*
X11336Y45866D01*
X11359Y45983D01*
Y48183D01*
X11336Y48300D01*
X11269Y48399D01*
X11170Y48466D01*
X11114Y48477D01*
Y49694D01*
X14000D01*
X14117Y49717D01*
X14216Y49784D01*
X14283Y49883D01*
X14306Y50000D01*
Y51444D01*
X17077D01*
Y50789D01*
X17063D01*
X16946Y50766D01*
X16846Y50699D01*
X16780Y50600D01*
X16757Y50483D01*
Y49683D01*
X16780Y49566D01*
X16846Y49467D01*
X16946Y49400D01*
X17063Y49377D01*
X17963D01*
X18080Y49400D01*
X18179Y49467D01*
X18245Y49566D01*
X18268Y49683D01*
Y50483D01*
X18245Y50600D01*
X18179Y50699D01*
X18080Y50766D01*
X17963Y50789D01*
X17948D01*
Y51444D01*
X21250D01*
X21367Y51467D01*
X21466Y51534D01*
X21533Y51633D01*
X21556Y51750D01*
Y54689D01*
X29067D01*
X29116Y54572D01*
D02*
G37*
G36*
X25968Y51302D02*
Y50698D01*
X25991Y50581D01*
X26058Y50481D01*
X26157Y50415D01*
X26274Y50392D01*
X27074D01*
X27191Y50415D01*
X27290Y50481D01*
X27357Y50581D01*
X27380Y50698D01*
Y50892D01*
X30296D01*
X30364Y50765D01*
X30328Y50710D01*
X30291Y50525D01*
Y48775D01*
X30328Y48590D01*
X30433Y48433D01*
X30590Y48328D01*
X30775Y48291D01*
X30960Y48328D01*
X31100Y48421D01*
X31240Y48328D01*
X31425Y48291D01*
X31610Y48328D01*
X31750Y48421D01*
X31890Y48328D01*
X32075Y48291D01*
X32163Y48308D01*
X32218Y48264D01*
X32290Y48160D01*
X32156Y47961D01*
X32134Y47852D01*
X33316D01*
X33294Y47961D01*
X33160Y48160D01*
X33232Y48264D01*
X33287Y48308D01*
X33375Y48291D01*
X33560Y48328D01*
X33700Y48421D01*
X33840Y48328D01*
X34025Y48291D01*
X34210Y48328D01*
X34350Y48421D01*
X34490Y48328D01*
X34675Y48291D01*
X34763Y48308D01*
X34818Y48264D01*
X34890Y48160D01*
X34756Y47961D01*
X34734Y47852D01*
X35916D01*
X35894Y47961D01*
X35760Y48160D01*
X35832Y48264D01*
X35887Y48308D01*
X35975Y48291D01*
X36160Y48328D01*
X36300Y48421D01*
X36440Y48328D01*
X36625Y48291D01*
X36713Y48308D01*
X36768Y48264D01*
X36840Y48160D01*
X36706Y47961D01*
X36684Y47852D01*
X37275D01*
Y47598D01*
X36684D01*
X36706Y47489D01*
X36840Y47290D01*
X36937Y47225D01*
X36953Y47061D01*
X36263Y46372D01*
X27406D01*
Y46386D01*
X27383Y46503D01*
X27316Y46603D01*
X27217Y46669D01*
X27100Y46692D01*
X26300D01*
X26183Y46669D01*
X26084Y46603D01*
X26017Y46503D01*
X25994Y46386D01*
Y46372D01*
X25806D01*
Y46386D01*
X25783Y46503D01*
X25716Y46603D01*
X25617Y46669D01*
X25500Y46692D01*
X24700D01*
X24583Y46669D01*
X24484Y46603D01*
X24417Y46503D01*
X24394Y46386D01*
Y45486D01*
X24417Y45369D01*
X24484Y45270D01*
X24583Y45204D01*
X24700Y45181D01*
X25500D01*
X25617Y45204D01*
X25716Y45270D01*
X25783Y45369D01*
X25806Y45486D01*
Y45501D01*
X25994D01*
Y45486D01*
X26017Y45369D01*
X26084Y45270D01*
X26183Y45204D01*
X26300Y45181D01*
X27100D01*
X27217Y45204D01*
X27316Y45270D01*
X27383Y45369D01*
X27406Y45486D01*
Y45501D01*
X32290D01*
Y44194D01*
X32163Y44092D01*
X32075Y44109D01*
X31890Y44072D01*
X31750Y43979D01*
X31610Y44072D01*
X31425Y44109D01*
X31240Y44072D01*
X31100Y43979D01*
X30960Y44072D01*
X30775Y44109D01*
X30590Y44072D01*
X30433Y43967D01*
X30328Y43810D01*
X30291Y43625D01*
Y41875D01*
X30328Y41690D01*
X30367Y41630D01*
Y41089D01*
X30367Y41089D01*
X30398Y40933D01*
X30408Y40918D01*
X30348Y40806D01*
X29586D01*
X29469Y40783D01*
X29370Y40716D01*
X29339Y40670D01*
X29328Y40668D01*
X29170Y40733D01*
X29000Y40756D01*
X28830Y40733D01*
X28672Y40668D01*
X28536Y40564D01*
X28480Y40490D01*
X28322Y40468D01*
X27643Y41147D01*
X27461Y41268D01*
X27247Y41311D01*
X23461D01*
Y50218D01*
X24277Y51034D01*
X24394Y50985D01*
Y50714D01*
X24417Y50597D01*
X24484Y50497D01*
X24583Y50431D01*
X24700Y50408D01*
X25500D01*
X25617Y50431D01*
X25716Y50497D01*
X25783Y50597D01*
X25806Y50714D01*
Y51340D01*
X25841Y51366D01*
X25968Y51302D01*
D02*
G37*
G36*
X21250Y51750D02*
X14000D01*
Y50000D01*
X9000D01*
Y56250D01*
X21250D01*
Y51750D01*
D02*
G37*
G36*
X42936Y38711D02*
X43072Y38607D01*
X43230Y38542D01*
X43400Y38519D01*
X43570Y38542D01*
X43631Y38567D01*
X43703Y38459D01*
X43103Y37860D01*
X42982Y37678D01*
X42940Y37467D01*
X42884Y37430D01*
X42817Y37331D01*
X42794Y37214D01*
Y36314D01*
X42817Y36197D01*
X42884Y36097D01*
X42983Y36031D01*
X43100Y36008D01*
X43463D01*
X43561Y35910D01*
X43512Y35792D01*
X43100D01*
X42983Y35769D01*
X42884Y35703D01*
X42817Y35603D01*
X42816Y35597D01*
X41176D01*
X41017Y35565D01*
X40974Y35583D01*
X40700Y35619D01*
X40426Y35583D01*
X40170Y35477D01*
X39951Y35309D01*
X39807Y35121D01*
X39429D01*
X39214Y35078D01*
X39199Y35068D01*
X39085Y35145D01*
X39091Y35173D01*
X38500D01*
Y35427D01*
X39091D01*
X39069Y35536D01*
X38975Y35676D01*
X39043Y35803D01*
X39964D01*
X40178Y35846D01*
X40360Y35967D01*
X40437Y36044D01*
X41450D01*
X41567Y36067D01*
X41666Y36134D01*
X41733Y36233D01*
X41756Y36350D01*
Y37850D01*
X41733Y37967D01*
X41666Y38066D01*
X41567Y38133D01*
X41450Y38156D01*
X39950D01*
X39905Y38147D01*
X39843Y38264D01*
X40346Y38767D01*
X42894D01*
X42936Y38711D01*
D02*
G37*
%LPC*%
G36*
X7250Y32513D02*
X7142Y32492D01*
X6942Y32358D01*
X6808Y32158D01*
X6787Y32050D01*
X7250D01*
Y32513D01*
D02*
G37*
G36*
X8188Y32632D02*
X7915D01*
X7816Y32612D01*
X7732Y32556D01*
X7676Y32472D01*
X7622Y32486D01*
X7613Y32492D01*
X7504Y32513D01*
Y31923D01*
Y31332D01*
X7613Y31354D01*
X7622Y31359D01*
X7676Y31373D01*
X7732Y31289D01*
X7816Y31233D01*
X7915Y31214D01*
X8188D01*
Y31923D01*
Y32632D01*
D02*
G37*
G36*
X8715D02*
X8442D01*
Y32050D01*
X8974D01*
Y32373D01*
X8954Y32472D01*
X8898Y32556D01*
X8814Y32612D01*
X8715Y32632D01*
D02*
G37*
G36*
X7250Y31796D02*
X6787D01*
X6808Y31687D01*
X6942Y31487D01*
X7142Y31354D01*
X7250Y31332D01*
Y31796D01*
D02*
G37*
G36*
X32186Y54459D02*
X31863D01*
Y53927D01*
X32445D01*
Y54200D01*
X32426Y54299D01*
X32370Y54383D01*
X32285Y54439D01*
X32186Y54459D01*
D02*
G37*
G36*
X32445Y53673D02*
X31863D01*
Y53141D01*
X32186D01*
X32285Y53161D01*
X32370Y53217D01*
X32426Y53301D01*
X32445Y53400D01*
Y53673D01*
D02*
G37*
G36*
X14359Y28409D02*
X13700D01*
X13041D01*
Y28086D01*
X13061Y27987D01*
X13117Y27903D01*
X13139Y27888D01*
Y27848D01*
X13131Y27836D01*
X13109Y27727D01*
X14291D01*
X14269Y27836D01*
X14261Y27848D01*
Y27888D01*
X14283Y27903D01*
X14339Y27987D01*
X14359Y28086D01*
Y28409D01*
D02*
G37*
G36*
X13573Y29245D02*
X13300D01*
X13201Y29226D01*
X13117Y29170D01*
X13061Y29086D01*
X13041Y28986D01*
Y28663D01*
X13573D01*
Y29245D01*
D02*
G37*
G36*
X35173Y55273D02*
X34709D01*
X34731Y55164D01*
X34865Y54965D01*
X35064Y54831D01*
X35173Y54809D01*
Y55273D01*
D02*
G37*
G36*
X37145D02*
X36563D01*
Y54741D01*
X36886D01*
X36986Y54761D01*
X37070Y54817D01*
X37126Y54901D01*
X37145Y55000D01*
Y55273D01*
D02*
G37*
G36*
X36400Y33273D02*
X36127D01*
Y32564D01*
Y31855D01*
X36400D01*
X36499Y31874D01*
X36583Y31930D01*
X36639Y32014D01*
X36645Y32042D01*
X36783Y32091D01*
X36928Y31995D01*
X37037Y31973D01*
Y32564D01*
Y33154D01*
X36928Y33133D01*
X36783Y33036D01*
X36645Y33085D01*
X36639Y33113D01*
X36583Y33197D01*
X36499Y33253D01*
X36400Y33273D01*
D02*
G37*
G36*
X43623Y31859D02*
X43500D01*
X43401Y31839D01*
X43317Y31783D01*
X43315Y31781D01*
X43185D01*
X43183Y31783D01*
X43099Y31839D01*
X43000Y31859D01*
X42877D01*
Y31350D01*
X42623D01*
Y31859D01*
X42500D01*
X42401Y31839D01*
X42317Y31783D01*
X42261Y31699D01*
X42241Y31600D01*
Y31418D01*
X42032Y31209D01*
X41850D01*
X41751Y31189D01*
X41635Y31135D01*
X41436Y31269D01*
X41327Y31291D01*
Y30700D01*
Y30109D01*
X41436Y30131D01*
X41596Y30238D01*
X41667Y30133D01*
X41611Y30049D01*
X41591Y29950D01*
Y29827D01*
X42809D01*
Y29950D01*
X42789Y30049D01*
X42733Y30133D01*
X42649Y30189D01*
X42608Y30197D01*
Y30444D01*
X42609Y30450D01*
Y30632D01*
X42818Y30841D01*
X43000D01*
X43099Y30861D01*
X43117Y30873D01*
X43258Y30817D01*
X43261Y30801D01*
X43317Y30717D01*
X43401Y30661D01*
X43500Y30641D01*
X43623D01*
Y31250D01*
Y31859D01*
D02*
G37*
G36*
X35873Y33273D02*
X35600D01*
X35501Y33253D01*
X35417Y33197D01*
X35361Y33113D01*
X35341Y33014D01*
Y32691D01*
X35873D01*
Y33273D01*
D02*
G37*
G36*
X38386Y28059D02*
X38063D01*
Y27527D01*
X38645D01*
Y27800D01*
X38626Y27899D01*
X38570Y27983D01*
X38486Y28039D01*
X38386Y28059D01*
D02*
G37*
G36*
X37809D02*
X37486D01*
X37387Y28039D01*
X37303Y27983D01*
X37247Y27899D01*
X37227Y27800D01*
Y27527D01*
X37809D01*
Y28059D01*
D02*
G37*
G36*
X41073Y31291D02*
X40964Y31269D01*
X40765Y31135D01*
X40631Y30936D01*
X40609Y30827D01*
X41073D01*
Y31291D01*
D02*
G37*
G36*
Y30573D02*
X40609D01*
X40631Y30464D01*
X40765Y30265D01*
X40964Y30131D01*
X41073Y30109D01*
Y30573D01*
D02*
G37*
G36*
X37273Y35345D02*
X37000D01*
X36901Y35326D01*
X36817Y35270D01*
X36761Y35186D01*
X36741Y35086D01*
Y34763D01*
X37273D01*
Y35345D01*
D02*
G37*
G36*
Y34509D02*
X36741D01*
Y34186D01*
X36761Y34087D01*
X36817Y34003D01*
X36901Y33947D01*
X37000Y33927D01*
X37273D01*
Y34509D01*
D02*
G37*
G36*
X27277Y37941D02*
Y37477D01*
X27741D01*
X27719Y37586D01*
X27585Y37785D01*
X27386Y37919D01*
X27277Y37941D01*
D02*
G37*
G36*
X17836Y49218D02*
X17513D01*
Y48559D01*
X17386D01*
Y48432D01*
X16677D01*
Y48159D01*
X16696Y48060D01*
X16752Y47976D01*
X16825Y47928D01*
Y47375D01*
X16774Y47299D01*
X16755Y47200D01*
Y46927D01*
X17464D01*
X18173D01*
Y47200D01*
X18153Y47299D01*
X18097Y47383D01*
X18013Y47439D01*
X17946Y47452D01*
Y47928D01*
X18019Y47976D01*
X18034Y47998D01*
X18673D01*
Y48600D01*
Y49191D01*
X18564Y49169D01*
X18491Y49120D01*
X18034D01*
X18019Y49142D01*
X17935Y49198D01*
X17836Y49218D01*
D02*
G37*
G36*
X19391Y48473D02*
X18927D01*
Y48009D01*
X19036Y48031D01*
X19235Y48165D01*
X19369Y48364D01*
X19391Y48473D01*
D02*
G37*
G36*
X16235Y50789D02*
X15335D01*
X15218Y50766D01*
X15119Y50699D01*
X15053Y50600D01*
X15030Y50483D01*
Y49683D01*
X15053Y49566D01*
X15119Y49467D01*
X15218Y49400D01*
X15261Y49392D01*
X15249Y49265D01*
X15208D01*
X15091Y49242D01*
X14992Y49175D01*
X14926Y49076D01*
X14903Y48959D01*
Y48159D01*
X14926Y48042D01*
X14992Y47943D01*
X15091Y47876D01*
X15208Y47853D01*
X16108D01*
X16225Y47876D01*
X16325Y47943D01*
X16391Y48042D01*
X16414Y48159D01*
Y48959D01*
X16391Y49076D01*
X16325Y49175D01*
X16225Y49242D01*
X16221Y49243D01*
Y49377D01*
X16235D01*
X16352Y49400D01*
X16452Y49467D01*
X16518Y49566D01*
X16541Y49683D01*
Y50483D01*
X16518Y50600D01*
X16452Y50699D01*
X16352Y50766D01*
X16235Y50789D01*
D02*
G37*
G36*
X18927Y49191D02*
Y48727D01*
X19391D01*
X19369Y48836D01*
X19235Y49035D01*
X19036Y49169D01*
X18927Y49191D01*
D02*
G37*
G36*
X17259Y49218D02*
X16936D01*
X16837Y49198D01*
X16752Y49142D01*
X16696Y49058D01*
X16677Y48959D01*
Y48686D01*
X17259D01*
Y49218D01*
D02*
G37*
G36*
X18173Y45073D02*
X17464D01*
X16755D01*
Y44800D01*
X16774Y44701D01*
X16830Y44617D01*
X16903Y44569D01*
Y44227D01*
X18091D01*
X18069Y44336D01*
X18024Y44402D01*
Y44569D01*
X18097Y44617D01*
X18153Y44701D01*
X18173Y44800D01*
Y45073D01*
D02*
G37*
G36*
X18091Y43973D02*
X17627D01*
Y43509D01*
X17736Y43531D01*
X17935Y43665D01*
X18069Y43864D01*
X18091Y43973D01*
D02*
G37*
G36*
X17373D02*
X16909D01*
X16931Y43864D01*
X17065Y43665D01*
X17264Y43531D01*
X17373Y43509D01*
Y43973D01*
D02*
G37*
G36*
X18173Y46673D02*
X17464D01*
X16755D01*
Y46400D01*
X16774Y46301D01*
X16825Y46225D01*
Y45775D01*
X16774Y45699D01*
X16755Y45600D01*
Y45327D01*
X17464D01*
X18173D01*
Y45600D01*
X18153Y45699D01*
X18097Y45783D01*
X18013Y45839D01*
X17946Y45852D01*
Y46148D01*
X18013Y46161D01*
X18097Y46217D01*
X18153Y46301D01*
X18173Y46400D01*
Y46673D01*
D02*
G37*
G36*
X13353Y48489D02*
X12353D01*
X12236Y48466D01*
X12137Y48399D01*
X12070Y48300D01*
X12047Y48183D01*
Y45983D01*
X12070Y45866D01*
X12137Y45767D01*
X12236Y45700D01*
X12353Y45677D01*
X13353D01*
X13470Y45700D01*
X13569Y45767D01*
X13636Y45866D01*
X13659Y45983D01*
Y46239D01*
X15033D01*
X15070Y46184D01*
X15169Y46117D01*
X15176Y46116D01*
Y45884D01*
X15169Y45883D01*
X15070Y45816D01*
X15004Y45717D01*
X14981Y45600D01*
Y45237D01*
X14545Y44802D01*
X14430Y44823D01*
X14402Y44839D01*
X14344Y44925D01*
X14245Y44992D01*
X14128Y45015D01*
X13328D01*
X13211Y44992D01*
X13112Y44925D01*
X13045Y44826D01*
X13022Y44709D01*
Y43109D01*
X13045Y42992D01*
X13112Y42893D01*
X13211Y42826D01*
X13328Y42803D01*
X14128D01*
X14245Y42826D01*
X14344Y42893D01*
X14411Y42992D01*
X14434Y43109D01*
Y43348D01*
X14445D01*
X14660Y43391D01*
X14842Y43512D01*
X15824Y44494D01*
X16186D01*
X16303Y44517D01*
X16403Y44584D01*
X16469Y44683D01*
X16492Y44800D01*
Y45600D01*
X16469Y45717D01*
X16403Y45816D01*
X16303Y45883D01*
X16297Y45884D01*
Y46116D01*
X16303Y46117D01*
X16403Y46184D01*
X16469Y46283D01*
X16492Y46400D01*
Y47200D01*
X16469Y47317D01*
X16403Y47416D01*
X16303Y47483D01*
X16186Y47506D01*
X15286D01*
X15169Y47483D01*
X15070Y47416D01*
X15033Y47361D01*
X13659D01*
Y48183D01*
X13636Y48300D01*
X13569Y48399D01*
X13470Y48466D01*
X13353Y48489D01*
D02*
G37*
G36*
X9159Y40509D02*
X8627D01*
Y39927D01*
X8900D01*
X8999Y39947D01*
X9083Y40003D01*
X9139Y40087D01*
X9159Y40186D01*
Y40509D01*
D02*
G37*
G36*
X20673Y37591D02*
X20564Y37569D01*
X20365Y37435D01*
X20231Y37236D01*
X20209Y37127D01*
X20673D01*
Y37591D01*
D02*
G37*
G36*
X7391Y39573D02*
X6927D01*
Y39109D01*
X7036Y39131D01*
X7235Y39265D01*
X7369Y39464D01*
X7391Y39573D01*
D02*
G37*
G36*
X6673D02*
X6209D01*
X6231Y39464D01*
X6365Y39265D01*
X6564Y39131D01*
X6673Y39109D01*
Y39573D01*
D02*
G37*
G36*
X32598Y47598D02*
X32134D01*
X32156Y47489D01*
X32290Y47290D01*
X32489Y47156D01*
X32598Y47134D01*
Y47598D01*
D02*
G37*
G36*
X27074Y50176D02*
X26274D01*
X26157Y50153D01*
X26058Y50087D01*
X25991Y49987D01*
X25968Y49870D01*
Y48970D01*
X25991Y48853D01*
X26058Y48754D01*
X26157Y48688D01*
X26239Y48672D01*
Y48407D01*
X26183Y48396D01*
X26084Y48330D01*
X26017Y48231D01*
X25994Y48114D01*
Y47214D01*
X26017Y47097D01*
X26084Y46997D01*
X26183Y46931D01*
X26300Y46908D01*
X27100D01*
X27217Y46931D01*
X27316Y46997D01*
X27383Y47097D01*
X27406Y47214D01*
Y48114D01*
X27383Y48231D01*
X27316Y48330D01*
X27217Y48396D01*
X27109Y48418D01*
Y48672D01*
X27191Y48688D01*
X27290Y48754D01*
X27357Y48853D01*
X27380Y48970D01*
Y49870D01*
X27357Y49987D01*
X27290Y50087D01*
X27191Y50153D01*
X27074Y50176D01*
D02*
G37*
G36*
X35916Y47598D02*
X35452D01*
Y47134D01*
X35561Y47156D01*
X35760Y47290D01*
X35894Y47489D01*
X35916Y47598D01*
D02*
G37*
G36*
X35198D02*
X34734D01*
X34756Y47489D01*
X34890Y47290D01*
X35089Y47156D01*
X35198Y47134D01*
Y47598D01*
D02*
G37*
G36*
X33316D02*
X32852D01*
Y47134D01*
X32961Y47156D01*
X33160Y47290D01*
X33294Y47489D01*
X33316Y47598D01*
D02*
G37*
G36*
X25500Y50192D02*
X24700D01*
X24583Y50169D01*
X24484Y50103D01*
X24417Y50003D01*
X24394Y49886D01*
Y48986D01*
X24417Y48869D01*
X24484Y48770D01*
X24583Y48704D01*
X24665Y48688D01*
Y48412D01*
X24583Y48396D01*
X24484Y48330D01*
X24417Y48231D01*
X24394Y48114D01*
Y47214D01*
X24417Y47097D01*
X24484Y46997D01*
X24583Y46931D01*
X24700Y46908D01*
X25500D01*
X25617Y46931D01*
X25716Y46997D01*
X25783Y47097D01*
X25806Y47214D01*
Y48114D01*
X25783Y48231D01*
X25716Y48330D01*
X25617Y48396D01*
X25535Y48412D01*
Y48688D01*
X25617Y48704D01*
X25716Y48770D01*
X25783Y48869D01*
X25806Y48986D01*
Y49886D01*
X25783Y50003D01*
X25716Y50103D01*
X25617Y50169D01*
X25500Y50192D01*
D02*
G37*
%LPD*%
D10*
X10300Y5000D02*
G03*
X10300Y5000I-300J0D01*
G01*
X47800Y10000D02*
G03*
X47800Y10000I-300J0D01*
G01*
X7800Y55000D02*
G03*
X7800Y55000I-300J0D01*
G01*
D11*
X30775Y42750D02*
D03*
X31425D02*
D03*
X32075D02*
D03*
X32725D02*
D03*
X33375D02*
D03*
X34025D02*
D03*
X34675D02*
D03*
X35325D02*
D03*
X35975D02*
D03*
X36625D02*
D03*
X37275D02*
D03*
X37925D02*
D03*
X38575D02*
D03*
X39225D02*
D03*
X30775Y49650D02*
D03*
X31425D02*
D03*
X32075D02*
D03*
X32725D02*
D03*
X33375D02*
D03*
X34025D02*
D03*
X34675D02*
D03*
X35325D02*
D03*
X35975D02*
D03*
X36625D02*
D03*
X37275D02*
D03*
X37925D02*
D03*
X38575D02*
D03*
X39225D02*
D03*
D12*
X24764Y16700D02*
D03*
X23036D02*
D03*
X43464Y47600D02*
D03*
X41736D02*
D03*
X43464Y49200D02*
D03*
X41736D02*
D03*
X38164Y53800D02*
D03*
X36436D02*
D03*
X38164Y55400D02*
D03*
X36436D02*
D03*
X33464Y53800D02*
D03*
X31736D02*
D03*
X31767Y55410D02*
D03*
X33495D02*
D03*
X45736Y39700D02*
D03*
X47464D02*
D03*
X17513Y50083D02*
D03*
X15785D02*
D03*
X17386Y48559D02*
D03*
X15658D02*
D03*
X15736Y46800D02*
D03*
X17464D02*
D03*
X15736Y45200D02*
D03*
X17464D02*
D03*
X8496Y44368D02*
D03*
X6768D02*
D03*
X23836Y39500D02*
D03*
X25564D02*
D03*
X31764Y40100D02*
D03*
X30036D02*
D03*
X33536D02*
D03*
X35264D02*
D03*
X39664Y27400D02*
D03*
X37936D02*
D03*
X39664Y29000D02*
D03*
X37936D02*
D03*
X36836Y20800D02*
D03*
X38564D02*
D03*
X39836Y12800D02*
D03*
X41564D02*
D03*
X39936Y5900D02*
D03*
X41664D02*
D03*
X39836Y7400D02*
D03*
X41564D02*
D03*
X39836Y11300D02*
D03*
X41564D02*
D03*
X8336Y20500D02*
D03*
X10064D02*
D03*
X8336Y17400D02*
D03*
X10064D02*
D03*
X5750Y22677D02*
D03*
X4022D02*
D03*
Y24201D02*
D03*
X5750D02*
D03*
D13*
X26700Y45936D02*
D03*
Y47664D02*
D03*
X25100Y45936D02*
D03*
Y47664D02*
D03*
X26674Y51148D02*
D03*
Y49420D02*
D03*
X25100Y51164D02*
D03*
Y49436D02*
D03*
X43500Y35036D02*
D03*
Y36764D02*
D03*
X8500Y42364D02*
D03*
Y40636D02*
D03*
X6800Y42364D02*
D03*
Y40636D02*
D03*
X3500Y45264D02*
D03*
Y43536D02*
D03*
X35800Y36364D02*
D03*
Y34636D02*
D03*
X37400Y36364D02*
D03*
Y34636D02*
D03*
X47200Y35036D02*
D03*
Y36764D02*
D03*
X45600Y35036D02*
D03*
Y36764D02*
D03*
X36000Y30836D02*
D03*
Y32564D02*
D03*
X13700Y30264D02*
D03*
Y28536D02*
D03*
X6283Y35352D02*
D03*
Y33624D02*
D03*
X4600Y33636D02*
D03*
Y35364D02*
D03*
X8315Y30195D02*
D03*
Y31923D02*
D03*
D14*
X41590Y43584D02*
D03*
Y45616D02*
D03*
X43800Y44600D02*
D03*
D15*
X49500Y49400D02*
D03*
Y47400D02*
D03*
D16*
X46800Y49750D02*
D03*
Y49100D02*
D03*
Y48450D02*
D03*
Y47800D02*
D03*
Y47150D02*
D03*
D17*
X45800Y41700D02*
D03*
X13728Y38399D02*
D03*
X5854Y47035D02*
D03*
X42732Y23058D02*
D03*
X42700Y20700D02*
D03*
X7680Y24836D02*
D03*
Y22550D02*
D03*
X30820Y9700D02*
D03*
Y7160D02*
D03*
X28280Y9700D02*
D03*
Y7160D02*
D03*
X25740Y9700D02*
D03*
Y7160D02*
D03*
X23200Y9700D02*
D03*
Y7160D02*
D03*
X20660Y9700D02*
D03*
Y7160D02*
D03*
X18120Y9700D02*
D03*
X40700Y34560D02*
D03*
D18*
X10553Y53083D02*
D03*
D19*
X12853Y47083D02*
D03*
X10553D02*
D03*
X8253D02*
D03*
D20*
X13728Y40509D02*
D03*
Y43909D02*
D03*
X10680Y40509D02*
D03*
Y43909D02*
D03*
D21*
X30616Y2590D02*
D03*
X28584D02*
D03*
X29600Y4800D02*
D03*
X26916Y2590D02*
D03*
X24884D02*
D03*
X25900Y4800D02*
D03*
X23216Y2490D02*
D03*
X21184D02*
D03*
X22200Y4700D02*
D03*
X19700Y2500D02*
D03*
X17668D02*
D03*
X18684Y4710D02*
D03*
X27984Y14510D02*
D03*
X30016D02*
D03*
X29000Y12300D02*
D03*
X24400Y14400D02*
D03*
X26432D02*
D03*
X25416Y12190D02*
D03*
X20884Y14410D02*
D03*
X22916D02*
D03*
X21900Y12200D02*
D03*
X17368Y14400D02*
D03*
X19400D02*
D03*
X18384Y12190D02*
D03*
D22*
X12800Y21500D02*
D03*
Y17400D02*
D03*
D23*
X42200Y29700D02*
D03*
X46300D02*
D03*
Y28700D02*
D03*
D24*
X42100Y30700D02*
D03*
X46400D02*
D03*
Y27700D02*
D03*
X42100D02*
D03*
D25*
X42750Y31350D02*
D03*
X45750D02*
D03*
Y27050D02*
D03*
X42750D02*
D03*
D26*
X43750Y31250D02*
D03*
X44750D02*
D03*
Y27150D02*
D03*
X43750D02*
D03*
D27*
X42600Y28700D02*
D03*
D28*
X20150Y35050D02*
D03*
X20650D02*
D03*
X21150D02*
D03*
X21650D02*
D03*
X22150D02*
D03*
X22650D02*
D03*
X23150D02*
D03*
X23650D02*
D03*
X24150D02*
D03*
X24650D02*
D03*
X25150D02*
D03*
X25650D02*
D03*
X26150D02*
D03*
X26650D02*
D03*
X27150D02*
D03*
X27650D02*
D03*
X28150D02*
D03*
X28650D02*
D03*
X29150D02*
D03*
X29650D02*
D03*
Y21950D02*
D03*
X29150D02*
D03*
X28650D02*
D03*
X28150D02*
D03*
X27650D02*
D03*
X27150D02*
D03*
X26650D02*
D03*
X26150D02*
D03*
X25650D02*
D03*
X25150D02*
D03*
X24650D02*
D03*
X24150D02*
D03*
X23650D02*
D03*
X23150D02*
D03*
X22650D02*
D03*
X22150D02*
D03*
X21650D02*
D03*
X21150D02*
D03*
X20650D02*
D03*
X20150D02*
D03*
D29*
X31450Y33250D02*
D03*
Y32750D02*
D03*
Y32250D02*
D03*
Y31750D02*
D03*
Y31250D02*
D03*
Y30750D02*
D03*
Y30250D02*
D03*
Y29750D02*
D03*
Y29250D02*
D03*
Y28750D02*
D03*
Y28250D02*
D03*
Y27750D02*
D03*
Y27250D02*
D03*
Y26750D02*
D03*
Y26250D02*
D03*
Y25750D02*
D03*
Y25250D02*
D03*
Y24750D02*
D03*
Y24250D02*
D03*
Y23750D02*
D03*
X18350D02*
D03*
Y24250D02*
D03*
Y24750D02*
D03*
Y25250D02*
D03*
Y25750D02*
D03*
Y26250D02*
D03*
Y26750D02*
D03*
Y27250D02*
D03*
Y27750D02*
D03*
Y28250D02*
D03*
Y28750D02*
D03*
Y29250D02*
D03*
Y29750D02*
D03*
Y30250D02*
D03*
Y30750D02*
D03*
Y31250D02*
D03*
Y31750D02*
D03*
Y32250D02*
D03*
Y32750D02*
D03*
Y33250D02*
D03*
D30*
X2300Y24500D02*
X3000Y25200D01*
X2599Y24201D02*
X4022D01*
X3000Y25200D02*
Y33764D01*
X4588Y35352D01*
X4600Y35364D01*
X4500Y45681D02*
X5854Y47035D01*
X4083Y45264D02*
X4500Y45681D01*
X4600Y45581D01*
Y35364D02*
Y45581D01*
X3500Y45264D02*
X4083D01*
X13728Y40509D02*
X13991D01*
X15000Y39500D01*
X15600Y9800D02*
X16900Y8500D01*
X24400D01*
X25740Y7160D01*
X13700Y27600D02*
Y28536D01*
X13969Y40750D02*
X22900D01*
Y50450D01*
X24900Y52450D01*
X27787D01*
X30747Y55410D01*
X31767D01*
X35300Y55400D02*
X36436D01*
X18759Y48559D02*
X18800Y48600D01*
X17386Y48559D02*
X18759D01*
X10221Y44368D02*
X10680Y43909D01*
X8496Y44368D02*
X10221D01*
X6800Y40894D02*
X6870Y40964D01*
X28719Y39250D02*
X38909D01*
X13728Y40509D02*
X13969Y40750D01*
X38909Y39250D02*
X43800Y44141D01*
Y44600D01*
X13728Y38399D02*
Y40509D01*
X35800Y36364D02*
X37400D01*
X36800Y20836D02*
X36836Y20800D01*
X30820Y7160D02*
X36836Y13176D01*
Y20800D01*
X28280Y7160D02*
X30820D01*
X3500Y42300D02*
Y43536D01*
X5854Y48432D02*
X7505Y50083D01*
X17464Y44136D02*
X17500Y44100D01*
X17464Y44136D02*
Y45200D01*
X17386Y45278D02*
X17464Y45200D01*
X12853Y47083D02*
X13136Y46800D01*
X15736D01*
Y45200D02*
Y46800D01*
X14445Y43909D02*
X15736Y45200D01*
X13728Y43909D02*
X14445D01*
X10553Y50083D02*
Y53083D01*
Y47083D02*
Y50083D01*
X7505D02*
X10553D01*
X5854Y47035D02*
Y48432D01*
X10553Y53083D02*
X11216Y52420D01*
X10680Y40509D02*
Y40939D01*
X6768Y44368D02*
Y45598D01*
X8253Y47083D01*
X10553D02*
X10680Y46956D01*
Y43909D02*
Y46956D01*
X6800Y40636D02*
Y40894D01*
X8825Y42364D02*
X10680Y40509D01*
X6768Y42395D02*
X6800Y42364D01*
X8500D01*
X8825D01*
X6768Y42395D02*
Y44368D01*
X6800Y39700D02*
Y40636D01*
X39964Y36364D02*
X40700Y37100D01*
X37400Y36364D02*
X39964D01*
X39429Y34560D02*
X40700D01*
X37964Y33095D02*
X39429Y34560D01*
X37964Y29027D02*
Y33095D01*
X37936Y29000D02*
X37964Y29027D01*
X43500Y36764D02*
Y37464D01*
Y36764D02*
X45227Y35036D01*
X45600D01*
X43500Y37464D02*
X45736Y39700D01*
Y41636D01*
X45800Y41700D01*
X19000Y55250D02*
X29500D01*
X30510Y56260D01*
X39240D01*
X39750Y55750D01*
X41176Y35036D02*
X43500D01*
X40700Y34560D02*
X41176Y35036D01*
X28200Y39769D02*
X28719Y39250D01*
X28200Y39769D02*
Y39797D01*
X27247Y40750D02*
X28200Y39797D01*
X22900Y40750D02*
X27247D01*
X6870Y40964D02*
X8521D01*
X17386Y45278D02*
Y48559D01*
D31*
X47400Y30200D02*
Y32600D01*
X45600Y34400D02*
X47400Y32600D01*
X45600Y34400D02*
Y35036D01*
X27350Y39641D02*
X28591Y38400D01*
X25564Y39500D02*
X26700D01*
X29000Y40100D02*
X30036D01*
X28591Y38400D02*
X35000D01*
X35264Y40100D02*
X36500D01*
X30775Y41089D02*
X31764Y40100D01*
X30775Y41089D02*
Y42750D01*
X33375Y40261D02*
Y42750D01*
Y40261D02*
X33536Y40100D01*
X41564Y12800D02*
X41564Y12800D01*
Y11300D02*
Y12800D01*
Y6000D02*
X41664Y5900D01*
X41564Y6000D02*
Y7400D01*
X39536Y7700D02*
X39836Y7400D01*
X38700Y7700D02*
X39536D01*
X39736Y11200D02*
X39836Y11300D01*
X37900Y11200D02*
X39736D01*
X40300Y45600D02*
X40316Y45616D01*
X41590D01*
X39600Y48500D02*
X40486D01*
X39225Y48875D02*
X39600Y48500D01*
X39225Y48875D02*
Y49650D01*
X38575Y48508D02*
Y49650D01*
Y48508D02*
X39037Y48046D01*
X41290D01*
X41736Y47600D01*
X40486Y48500D02*
X41186Y49200D01*
X41736D01*
X39300Y33300D02*
X45085D01*
X46400Y31985D01*
X39800Y32800D02*
X45019D01*
X39300Y32300D02*
X39800Y32800D01*
X45019D02*
X45750Y32069D01*
X37400Y34636D02*
X38064Y35300D01*
X38500D01*
X36000Y32564D02*
X37164D01*
X3023Y22677D02*
X4022D01*
X18120Y11926D02*
X18384Y12190D01*
X18120Y9700D02*
Y11926D01*
X20660Y10960D02*
X21900Y12200D01*
X20660Y9700D02*
Y10960D01*
X23200Y9974D02*
X25416Y12190D01*
X23200Y9700D02*
Y9974D01*
X26400Y9700D02*
X29000Y12300D01*
X25740Y9700D02*
X26400D01*
X23540Y7160D02*
X25900Y4800D01*
X23200Y7160D02*
X23540D01*
X20660Y6240D02*
X22200Y4700D01*
X20660Y6240D02*
Y7160D01*
X18120Y5274D02*
X18684Y4710D01*
X18120Y5274D02*
Y7160D01*
X33605Y51900D02*
X34675Y50830D01*
X25702Y51900D02*
X33605D01*
X25100Y51298D02*
X25702Y51900D01*
X33639Y51300D02*
X34025Y50914D01*
X26826Y51300D02*
X33639D01*
X26674Y51148D02*
X26826Y51300D01*
X25100Y51164D02*
Y51298D01*
X34675Y49650D02*
Y50830D01*
X34025Y49650D02*
Y50914D01*
X47000Y34836D02*
X47200Y35036D01*
X47000Y33700D02*
Y34836D01*
Y33700D02*
X47900Y32800D01*
Y29200D02*
Y32800D01*
X47400Y28700D02*
X47900Y29200D01*
X46300Y28700D02*
X47400D01*
X46300Y29700D02*
X46900D01*
X47400Y30200D01*
X16700Y36300D02*
X20500Y40100D01*
X12500Y36300D02*
X16700D01*
X12500Y30200D02*
X12564Y30264D01*
X13700D01*
X24764Y16700D02*
X35100D01*
X35736Y34700D02*
X35800Y34636D01*
X34615Y32221D02*
Y33452D01*
X35800Y34636D01*
X21800Y16700D02*
X23036D01*
X36000Y29500D02*
Y30836D01*
X34615Y32221D02*
X36000Y30836D01*
X45400Y27400D02*
X45750Y27050D01*
X45400Y27400D02*
Y28100D01*
X43750Y27150D02*
X43800Y27200D01*
Y28000D01*
X46400Y30700D02*
Y31985D01*
X45750Y31350D02*
Y32069D01*
X35757Y24700D02*
X39200D01*
X37286Y25814D02*
X40214D01*
X35850Y27250D02*
X37286Y25814D01*
X44750Y26750D02*
Y27150D01*
X43414Y25414D02*
X44750Y26750D01*
X37936Y26464D02*
Y27400D01*
X40214Y25814D02*
X42100Y27700D01*
X39664Y29000D02*
X39964Y28700D01*
X39664Y27400D02*
Y29000D01*
X39964Y28700D02*
X42600D01*
X42100Y30700D02*
X42200Y30600D01*
X42100Y30700D02*
X42100Y30700D01*
X42750Y31350D01*
X41200Y30700D02*
X42100D01*
X42200Y29700D02*
Y30600D01*
X43650Y31350D02*
X43750Y31250D01*
X42750Y31350D02*
X43650D01*
X43750Y31250D02*
X44750D01*
Y32150D01*
X45600Y35036D02*
X47200D01*
X47236Y36800D02*
X48300D01*
X47200Y36764D02*
X47236Y36800D01*
X45600Y36764D02*
X47200D01*
X42700Y26200D02*
X42750Y26250D01*
Y27050D01*
X46400Y27700D02*
X47300D01*
X38500Y5900D02*
X39936D01*
X38400Y12800D02*
X38400Y12800D01*
X39836D01*
X7100Y17400D02*
X8336D01*
X7100Y20500D02*
X8336D01*
X10064Y17400D02*
X12800D01*
X10064Y20500D02*
X11800D01*
X12800Y21500D01*
X9050Y22550D02*
X9100Y22600D01*
X7680Y22550D02*
X9050D01*
X42800Y20600D02*
X44300D01*
X42700Y20700D02*
X42800Y20600D01*
X42732Y23058D02*
X42834Y22956D01*
X7377Y31923D02*
X8315D01*
X5750Y22677D02*
Y24201D01*
Y26208D02*
X5775Y26233D01*
X5750Y24201D02*
Y26208D01*
Y24201D02*
X7045D01*
X7680Y24836D01*
X4480Y33599D02*
X4505Y33574D01*
Y31313D02*
Y33574D01*
X5775Y33116D02*
X6180Y33521D01*
X5775Y31313D02*
Y33116D01*
X8163Y30043D02*
X8315Y30195D01*
X5775Y30043D02*
X8163D01*
X43464Y47600D02*
X44014D01*
X44214Y47800D01*
X46800D01*
X43464Y49200D02*
X44014D01*
X44764Y48450D01*
X46800D01*
X35269Y37750D02*
X36219Y38700D01*
X39136D01*
X40336Y39900D01*
X44125D01*
X35435Y37350D02*
X36385Y38300D01*
X39302D01*
X40177Y39175D01*
X43400D01*
X34700Y34700D02*
X35736D01*
X21650Y37314D02*
X23836Y39500D01*
X21650Y35050D02*
Y37314D01*
X20500Y40100D02*
X23573D01*
X27350Y39641D02*
Y39869D01*
X27019Y40200D02*
X27350Y39869D01*
X24600Y40200D02*
X27019D01*
X24036Y39636D02*
X24600Y40200D01*
X26650Y35050D02*
Y36686D01*
X23836Y39500D02*
X26650Y36686D01*
X27150Y35050D02*
Y37350D01*
X21150Y35050D02*
Y36650D01*
X20800Y37000D02*
X21150Y36650D01*
X9370Y31250D02*
X18350D01*
X8315Y30195D02*
X9370Y31250D01*
X11171Y32250D02*
X18350D01*
X9900Y33521D02*
X11171Y32250D01*
X6180Y33521D02*
X9900D01*
X9594Y26750D02*
X18350D01*
X7680Y24836D02*
X9594Y26750D01*
X12800Y21500D02*
Y23300D01*
X13750Y24250D01*
X18350D01*
Y22950D02*
Y23750D01*
X12800Y17400D02*
X18350Y22950D01*
X24300Y16700D02*
X24764D01*
X23786Y17214D02*
X24300Y16700D01*
X23786Y17214D02*
Y17224D01*
X23611Y17400D02*
X23786Y17224D01*
X23600Y17400D02*
X23611D01*
X20150Y20850D02*
Y21950D01*
Y20850D02*
X23600Y17400D01*
X24764Y16700D02*
X26750Y18686D01*
X26100Y19800D02*
X26150Y19850D01*
Y21950D01*
X26650Y20400D02*
Y21950D01*
Y20400D02*
X26750Y20300D01*
Y18686D02*
Y20300D01*
X31450Y23750D02*
X32200Y23000D01*
X42674D01*
X38564Y20800D02*
X40474D01*
X42674Y23000D01*
X42732Y23058D01*
X31450Y27250D02*
X35850D01*
X31450Y26750D02*
X35192D01*
X35571Y26371D01*
X31450Y26250D02*
X34773D01*
X35609Y25414D01*
X31450Y25750D02*
X34707D01*
X35757Y24700D01*
X35609Y25414D02*
X43414D01*
X31450Y24750D02*
X33250D01*
X31450Y24250D02*
X31500Y24200D01*
X35000D01*
X33250Y24750D02*
X33400Y24900D01*
X29150Y35050D02*
Y37050D01*
X29850Y37750D01*
X35269D01*
X30250Y37350D02*
X35435D01*
X29650Y36750D02*
X30250Y37350D01*
X29650Y35050D02*
Y36750D01*
X16150Y27750D02*
X18350D01*
X16100Y27800D02*
X16150Y27750D01*
X16150Y29250D02*
X18350D01*
X16100Y29200D02*
X16150Y29250D01*
X16369Y28550D02*
X16569Y28750D01*
X18350D01*
X15414Y28550D02*
X16369D01*
X13700Y30264D02*
X16186D01*
X16700Y29750D01*
X18350D01*
X13700Y30264D02*
X15414Y28550D01*
X21650Y20450D02*
Y21950D01*
Y20450D02*
X21800Y20300D01*
X31450Y31750D02*
X31500Y31700D01*
X33700D01*
X31450Y31250D02*
X33050D01*
X33464Y30836D01*
X36000D01*
X23573Y40100D02*
X24036Y39636D01*
X28275Y29425D02*
X28450Y29250D01*
X31450D01*
X20800Y29600D02*
X25800D01*
X18350Y30250D02*
X20150D01*
X20800Y29600D01*
X20250Y30750D02*
X20750Y30250D01*
X18350Y30750D02*
X20250D01*
X20750Y30250D02*
X26450D01*
X31400Y30200D02*
X31450Y30250D01*
X26450Y30250D02*
X26600Y30100D01*
X28985Y30200D02*
X31400D01*
X26700Y31500D02*
X27685D01*
X28985Y30200D01*
X24900Y30900D02*
X25050Y30750D01*
X27869D01*
X28869Y29750D01*
X31450D01*
X29050Y30750D02*
X31450D01*
X24900Y32200D02*
X24900Y32200D01*
X24900Y32200D02*
Y32400D01*
X25700Y31800D02*
X26050Y32150D01*
X27650D01*
X29050Y30750D01*
X28969Y32250D02*
X31450D01*
X28869Y32150D02*
X28969Y32250D01*
X28216Y32150D02*
X28869D01*
X27816Y32550D02*
X28216Y32150D01*
X24900Y32400D02*
X25050Y32550D01*
X27816D01*
X24900Y32200D02*
X25000Y32300D01*
X22600Y34114D02*
X22964Y33750D01*
X22600Y34114D02*
Y35000D01*
X22650Y35050D01*
X22150Y33998D02*
Y35050D01*
Y33998D02*
X22848Y33300D01*
X28100D01*
X28600Y32800D01*
X22964Y33750D02*
X29450D01*
X29800Y33400D01*
X31450Y33250D02*
X32850D01*
X33000Y33400D01*
X32500Y34500D02*
X32819D01*
X33650Y33669D01*
Y33131D02*
Y33669D01*
X33269Y32750D02*
X33650Y33131D01*
X31450Y32750D02*
X33269D01*
D32*
X26700Y45936D02*
X32700D01*
X36444D01*
X32700D02*
X32725Y45911D01*
X36444Y45936D02*
X37952Y47445D01*
Y49623D01*
X37925Y49650D02*
X37952Y49623D01*
X32725Y42750D02*
Y45911D01*
X25100Y45936D02*
X26700D01*
X28280Y7160D02*
X29600Y5840D01*
Y4800D02*
Y5840D01*
X43800Y44600D02*
X46350Y47150D01*
X46800D01*
X34600Y44600D02*
X34675Y44525D01*
Y42750D02*
Y44525D01*
X37275Y47725D02*
Y49650D01*
X35325Y47725D02*
Y49650D01*
X32725Y47725D02*
Y49650D01*
X30700Y53800D02*
X31736D01*
X25100Y47664D02*
Y49436D01*
X26674Y47690D02*
Y49420D01*
X33464Y53800D02*
X35975Y51289D01*
Y49650D02*
Y51289D01*
X33495Y53831D02*
Y55410D01*
X37925Y53561D02*
X38164Y53800D01*
X37925Y49650D02*
Y53561D01*
X38164Y53800D02*
Y55400D01*
X36436Y53800D02*
X36625Y53611D01*
Y49650D02*
Y53611D01*
X15658Y48559D02*
X15785Y48686D01*
Y50083D01*
X17513D02*
Y52237D01*
X17500Y52250D02*
X17513Y52237D01*
X4588Y35352D02*
X6283D01*
D33*
X49500Y51950D02*
D03*
Y44950D02*
D03*
D34*
X46800Y50950D02*
D03*
Y45950D02*
D03*
D35*
X18120Y7160D02*
D03*
D36*
X4505Y31313D02*
D03*
D37*
X5775D02*
D03*
X4505Y30043D02*
D03*
X5775D02*
D03*
X4505Y28773D02*
D03*
X5775D02*
D03*
X4505Y27503D02*
D03*
X5775D02*
D03*
X4505Y26233D02*
D03*
X5775D02*
D03*
D38*
X40700Y37100D02*
D03*
D39*
X35300Y55400D02*
D03*
X15000Y39500D02*
D03*
X15600Y9800D02*
D03*
X13700Y27600D02*
D03*
X18800Y48600D02*
D03*
X29000Y40100D02*
D03*
X26700Y39500D02*
D03*
X35000Y38400D02*
D03*
X36500Y40100D02*
D03*
X38700Y7700D02*
D03*
X37900Y11200D02*
D03*
X40300Y45600D02*
D03*
X39300Y33300D02*
D03*
Y32300D02*
D03*
X38500Y35300D02*
D03*
X37164Y32564D02*
D03*
X2300Y24500D02*
D03*
X3023Y22677D02*
D03*
X12500Y36300D02*
D03*
Y30200D02*
D03*
X35100Y16700D02*
D03*
X21800D02*
D03*
X36000Y29500D02*
D03*
X45400Y28100D02*
D03*
X43800Y28000D02*
D03*
X35571Y26371D02*
D03*
X39200Y24700D02*
D03*
X37936Y26464D02*
D03*
X41200Y30700D02*
D03*
X44750Y32150D02*
D03*
X48300Y36800D02*
D03*
X42700Y26200D02*
D03*
X47300Y27700D02*
D03*
X38500Y5900D02*
D03*
X38400Y12800D02*
D03*
X3500Y42300D02*
D03*
X17500Y44100D02*
D03*
X7100Y17400D02*
D03*
Y20500D02*
D03*
X9100Y22600D02*
D03*
X44300Y20600D02*
D03*
X7377Y31923D02*
D03*
X34600Y44600D02*
D03*
X37275Y47725D02*
D03*
X35325D02*
D03*
X32725D02*
D03*
X30700Y53800D02*
D03*
X6800Y39700D02*
D03*
X44125Y39900D02*
D03*
X43400Y39175D02*
D03*
X34700Y34700D02*
D03*
X39750Y55750D02*
D03*
X27150Y37350D02*
D03*
X20800Y37000D02*
D03*
X26100Y19800D02*
D03*
X35000Y24200D02*
D03*
X33400Y24900D02*
D03*
X16100Y27800D02*
D03*
Y29200D02*
D03*
X21800Y20300D02*
D03*
X33700Y31700D02*
D03*
X25800Y29600D02*
D03*
X28275Y29425D02*
D03*
X24900Y30900D02*
D03*
X26600Y30100D02*
D03*
X26700Y31500D02*
D03*
X25700Y31800D02*
D03*
X24900Y32400D02*
D03*
X28600Y32800D02*
D03*
X29800Y33400D02*
D03*
X33000D02*
D03*
X32500Y34500D02*
D03*
M02*
