G04 Layer_Physical_Order=2*
G04 Layer_Color=16711680*
%FSLAX43Y43*%
%MOMM*%
G71*
G01*
G75*
%ADD17C,1.500*%
%ADD30C,0.500*%
%ADD31C,0.200*%
%ADD32C,0.254*%
%ADD33O,1.900X1.250*%
%ADD34C,1.450*%
%ADD35R,1.500X1.500*%
%ADD36R,1.000X1.000*%
%ADD37C,1.000*%
%ADD38R,1.500X1.500*%
%ADD39C,0.700*%
G36*
X50000Y52910D02*
X49905Y52826D01*
X49825Y52837D01*
X49627D01*
Y51950D01*
Y51063D01*
X49825D01*
X49905Y51074D01*
X50000Y50990D01*
Y45910D01*
X49905Y45826D01*
X49825Y45837D01*
X49627D01*
Y44950D01*
Y44063D01*
X49825D01*
X49905Y44074D01*
X50000Y43990D01*
Y1000D01*
X1000D01*
Y57000D01*
X50000D01*
Y52910D01*
D02*
G37*
%LPC*%
G36*
X37809Y27054D02*
X37701Y27033D01*
X37501Y26899D01*
X37367Y26699D01*
X37346Y26591D01*
X37809D01*
Y27054D01*
D02*
G37*
G36*
X38063D02*
Y26591D01*
X38527D01*
X38505Y26699D01*
X38372Y26899D01*
X38172Y27033D01*
X38063Y27054D01*
D02*
G37*
G36*
X42573Y26791D02*
X42464Y26769D01*
X42265Y26635D01*
X42131Y26436D01*
X42109Y26327D01*
X42573D01*
Y26791D01*
D02*
G37*
G36*
X42827D02*
Y26327D01*
X43291D01*
X43269Y26436D01*
X43135Y26635D01*
X42936Y26769D01*
X42827Y26791D01*
D02*
G37*
G36*
X16691Y27673D02*
X16227D01*
Y27209D01*
X16336Y27231D01*
X16535Y27365D01*
X16669Y27564D01*
X16691Y27673D01*
D02*
G37*
G36*
X44125Y40556D02*
X43955Y40533D01*
X43797Y40468D01*
X43661Y40364D01*
X43557Y40228D01*
X43492Y40070D01*
X43469Y39900D01*
X43351Y39824D01*
X43230Y39808D01*
X43072Y39743D01*
X42936Y39639D01*
X42832Y39503D01*
X42767Y39345D01*
X42744Y39175D01*
X42767Y39005D01*
X42832Y38847D01*
X42936Y38711D01*
X43072Y38607D01*
X43192Y38558D01*
Y36200D01*
X43192Y36200D01*
X43223Y36044D01*
X43312Y35912D01*
X43392Y35831D01*
Y28506D01*
X43336Y28464D01*
X43232Y28328D01*
X43167Y28170D01*
X43144Y28000D01*
X43167Y27830D01*
X43232Y27672D01*
X43336Y27536D01*
X43472Y27432D01*
X43630Y27367D01*
X43800Y27344D01*
X43970Y27367D01*
X44128Y27432D01*
X44264Y27536D01*
X44368Y27672D01*
X44433Y27830D01*
X44456Y28000D01*
X44433Y28170D01*
X44368Y28328D01*
X44264Y28464D01*
X44208Y28506D01*
Y31663D01*
X44335Y31701D01*
X44514Y31581D01*
X44623Y31559D01*
Y32150D01*
Y32741D01*
X44514Y32719D01*
X44335Y32599D01*
X44208Y32637D01*
Y35836D01*
X44335Y35888D01*
X44992Y35231D01*
Y32847D01*
X44877Y32753D01*
Y32150D01*
Y31547D01*
X44992Y31453D01*
Y28606D01*
X44936Y28564D01*
X44832Y28428D01*
X44767Y28270D01*
X44744Y28100D01*
X44767Y27930D01*
X44832Y27772D01*
X44936Y27636D01*
X45072Y27532D01*
X45230Y27467D01*
X45400Y27444D01*
X45570Y27467D01*
X45728Y27532D01*
X45864Y27636D01*
X45968Y27772D01*
X46033Y27930D01*
X46056Y28100D01*
X46033Y28270D01*
X45968Y28428D01*
X45864Y28564D01*
X45808Y28606D01*
Y35400D01*
X45777Y35556D01*
X45688Y35688D01*
X45688Y35688D01*
X44533Y36844D01*
Y39394D01*
X44589Y39436D01*
X44693Y39572D01*
X44758Y39730D01*
X44781Y39900D01*
X44758Y40070D01*
X44693Y40228D01*
X44589Y40364D01*
X44453Y40468D01*
X44295Y40533D01*
X44125Y40556D01*
D02*
G37*
G36*
X47891Y27573D02*
X47427D01*
Y27109D01*
X47536Y27131D01*
X47735Y27265D01*
X47869Y27464D01*
X47891Y27573D01*
D02*
G37*
G36*
X13573Y27473D02*
X13109D01*
X13131Y27364D01*
X13265Y27165D01*
X13464Y27031D01*
X13573Y27009D01*
Y27473D01*
D02*
G37*
G36*
X47173Y27573D02*
X46709D01*
X46731Y27464D01*
X46865Y27265D01*
X47064Y27131D01*
X47173Y27109D01*
Y27573D01*
D02*
G37*
G36*
X38527Y26337D02*
X38063D01*
Y25873D01*
X38172Y25895D01*
X38372Y26028D01*
X38505Y26228D01*
X38527Y26337D01*
D02*
G37*
G36*
X33991Y24773D02*
X33527D01*
Y24309D01*
X33636Y24331D01*
X33835Y24465D01*
X33969Y24664D01*
X33991Y24773D01*
D02*
G37*
G36*
X33273Y25491D02*
X33164Y25469D01*
X32965Y25335D01*
X32831Y25136D01*
X32809Y25027D01*
X33273D01*
Y25491D01*
D02*
G37*
G36*
Y24773D02*
X32809D01*
X32831Y24664D01*
X32965Y24465D01*
X33164Y24331D01*
X33273Y24309D01*
Y24773D01*
D02*
G37*
G36*
X3150Y23268D02*
Y22804D01*
X3614D01*
X3592Y22913D01*
X3458Y23112D01*
X3259Y23246D01*
X3150Y23268D01*
D02*
G37*
G36*
X39300Y33956D02*
X39130Y33933D01*
X38972Y33868D01*
X38836Y33764D01*
X38732Y33628D01*
X38667Y33470D01*
X38644Y33300D01*
X38663Y33159D01*
X38362Y32858D01*
X38273Y32725D01*
X38242Y32569D01*
X38242Y32569D01*
Y31319D01*
X36702Y29779D01*
X36578Y29804D01*
X36568Y29828D01*
X36464Y29964D01*
X36328Y30068D01*
X36170Y30133D01*
X36000Y30156D01*
X35830Y30133D01*
X35672Y30068D01*
X35536Y29964D01*
X35432Y29828D01*
X35367Y29670D01*
X35344Y29500D01*
X35354Y29430D01*
X34633Y28709D01*
X34544Y28577D01*
X34513Y28421D01*
X34513Y28421D01*
Y24633D01*
X34432Y24528D01*
X34367Y24370D01*
X34344Y24200D01*
X34367Y24030D01*
X34432Y23872D01*
X34536Y23736D01*
X34592Y23694D01*
Y17106D01*
X34532Y17028D01*
X34467Y16870D01*
X34444Y16700D01*
X34467Y16530D01*
X34532Y16372D01*
X34636Y16236D01*
X34772Y16132D01*
X34930Y16067D01*
X35100Y16044D01*
X35270Y16067D01*
X35428Y16132D01*
X35564Y16236D01*
X35668Y16372D01*
X35733Y16530D01*
X35756Y16700D01*
X35733Y16870D01*
X35668Y17028D01*
X35564Y17164D01*
X35428Y17268D01*
X35408Y17276D01*
Y23694D01*
X35464Y23736D01*
X35568Y23872D01*
X35633Y24030D01*
X35656Y24200D01*
X35633Y24370D01*
X35568Y24528D01*
X35464Y24664D01*
X35329Y24767D01*
Y25644D01*
X35456Y25731D01*
X35571Y25715D01*
X35741Y25738D01*
X35899Y25803D01*
X36035Y25907D01*
X36139Y26043D01*
X36204Y26201D01*
X36227Y26371D01*
X36204Y26541D01*
X36139Y26699D01*
X36035Y26835D01*
X35979Y26877D01*
Y27902D01*
X38675Y30598D01*
X38792Y30549D01*
Y25206D01*
X38736Y25164D01*
X38632Y25028D01*
X38567Y24870D01*
X38544Y24700D01*
X38567Y24530D01*
X38632Y24372D01*
X38736Y24236D01*
X38872Y24132D01*
X39030Y24067D01*
X39200Y24044D01*
X39370Y24067D01*
X39528Y24132D01*
X39664Y24236D01*
X39768Y24372D01*
X39833Y24530D01*
X39856Y24700D01*
X39833Y24870D01*
X39768Y25028D01*
X39664Y25164D01*
X39608Y25206D01*
Y31724D01*
X39628Y31732D01*
X39764Y31836D01*
X39868Y31972D01*
X39933Y32130D01*
X39956Y32300D01*
X39933Y32470D01*
X39868Y32628D01*
X39806Y32709D01*
X39776Y32800D01*
X39806Y32891D01*
X39868Y32972D01*
X39933Y33130D01*
X39956Y33300D01*
X39933Y33470D01*
X39868Y33628D01*
X39764Y33764D01*
X39628Y33868D01*
X39470Y33933D01*
X39300Y33956D01*
D02*
G37*
G36*
X43291Y26073D02*
X42827D01*
Y25609D01*
X42936Y25631D01*
X43135Y25765D01*
X43269Y25964D01*
X43291Y26073D01*
D02*
G37*
G36*
X37809Y26337D02*
X37346D01*
X37367Y26228D01*
X37501Y26028D01*
X37701Y25895D01*
X37809Y25873D01*
Y26337D01*
D02*
G37*
G36*
X42573Y26073D02*
X42109D01*
X42131Y25964D01*
X42265Y25765D01*
X42464Y25631D01*
X42573Y25609D01*
Y26073D01*
D02*
G37*
G36*
X33527Y25491D02*
Y25027D01*
X33991D01*
X33969Y25136D01*
X33835Y25335D01*
X33636Y25469D01*
X33527Y25491D01*
D02*
G37*
G36*
X4378Y26106D02*
X3761D01*
X3770Y26036D01*
X3846Y25853D01*
X3967Y25695D01*
X4125Y25574D01*
X4308Y25498D01*
X4378Y25489D01*
Y26106D01*
D02*
G37*
G36*
X13573Y28191D02*
X13464Y28169D01*
X13265Y28035D01*
X13131Y27836D01*
X13109Y27727D01*
X13573D01*
Y28191D01*
D02*
G37*
G36*
X7250Y31796D02*
X6787D01*
X6808Y31687D01*
X6942Y31487D01*
X7142Y31354D01*
X7250Y31332D01*
Y31796D01*
D02*
G37*
G36*
X7968D02*
X7504D01*
Y31332D01*
X7613Y31354D01*
X7813Y31487D01*
X7946Y31687D01*
X7968Y31796D01*
D02*
G37*
G36*
X34291Y31573D02*
X33827D01*
Y31109D01*
X33936Y31131D01*
X34135Y31265D01*
X34269Y31464D01*
X34291Y31573D01*
D02*
G37*
G36*
X41327Y31291D02*
Y30827D01*
X41791D01*
X41769Y30936D01*
X41635Y31135D01*
X41436Y31269D01*
X41327Y31291D01*
D02*
G37*
G36*
X33573Y31573D02*
X33109D01*
X33131Y31464D01*
X33265Y31265D01*
X33464Y31131D01*
X33573Y31109D01*
Y31573D01*
D02*
G37*
G36*
X37754Y32437D02*
X37291D01*
Y31973D01*
X37399Y31995D01*
X37599Y32128D01*
X37733Y32328D01*
X37754Y32437D01*
D02*
G37*
G36*
X5775Y32120D02*
X5566Y32092D01*
X5372Y32012D01*
X5354Y31998D01*
X5228Y32019D01*
X5221Y32029D01*
X5122Y32096D01*
X5005Y32119D01*
X4005D01*
X3888Y32096D01*
X3789Y32029D01*
X3722Y31930D01*
X3699Y31813D01*
Y30813D01*
X3722Y30696D01*
X3789Y30597D01*
X3809Y30583D01*
X3846Y30423D01*
X3844Y30418D01*
X3770Y30240D01*
X3761Y30170D01*
X4505D01*
Y29916D01*
X3761D01*
X3770Y29846D01*
X3846Y29663D01*
X3967Y29505D01*
X4011Y29472D01*
Y29344D01*
X3967Y29311D01*
X3846Y29153D01*
X3770Y28970D01*
X3761Y28900D01*
X4505D01*
Y28646D01*
X3761D01*
X3770Y28576D01*
X3846Y28393D01*
X3967Y28235D01*
X3973Y28230D01*
Y28103D01*
X3934Y28074D01*
X3806Y27906D01*
X3726Y27712D01*
X3698Y27503D01*
X3726Y27294D01*
X3806Y27100D01*
X3934Y26932D01*
X3973Y26903D01*
Y26776D01*
X3967Y26771D01*
X3846Y26613D01*
X3770Y26430D01*
X3761Y26360D01*
X4505D01*
Y26233D01*
X4632D01*
Y25489D01*
X4702Y25498D01*
X4885Y25574D01*
X5043Y25695D01*
X5048Y25701D01*
X5175D01*
X5204Y25662D01*
X5372Y25534D01*
X5566Y25454D01*
X5775Y25426D01*
X5984Y25454D01*
X6178Y25534D01*
X6346Y25662D01*
X6474Y25830D01*
X6554Y26024D01*
X6582Y26233D01*
X6554Y26442D01*
X6474Y26636D01*
X6346Y26804D01*
X6344Y26805D01*
Y26931D01*
X6346Y26932D01*
X6474Y27100D01*
X6554Y27294D01*
X6582Y27503D01*
X6554Y27712D01*
X6474Y27906D01*
X6346Y28074D01*
X6344Y28074D01*
Y28201D01*
X6346Y28202D01*
X6474Y28370D01*
X6554Y28564D01*
X6582Y28773D01*
X6554Y28982D01*
X6474Y29176D01*
X6346Y29344D01*
X6344Y29344D01*
Y29472D01*
X6346Y29472D01*
X6474Y29640D01*
X6554Y29834D01*
X6582Y30043D01*
X6554Y30252D01*
X6474Y30446D01*
X6346Y30614D01*
X6344Y30615D01*
Y30742D01*
X6346Y30742D01*
X6474Y30910D01*
X6554Y31104D01*
X6582Y31313D01*
X6554Y31522D01*
X6474Y31716D01*
X6346Y31884D01*
X6178Y32012D01*
X5984Y32092D01*
X5775Y32120D01*
D02*
G37*
G36*
X37037Y32437D02*
X36573D01*
X36595Y32328D01*
X36728Y32128D01*
X36928Y31995D01*
X37037Y31973D01*
Y32437D01*
D02*
G37*
G36*
X33573Y32291D02*
X33464Y32269D01*
X33265Y32135D01*
X33131Y31936D01*
X33109Y31827D01*
X33573D01*
Y32291D01*
D02*
G37*
G36*
X33827D02*
Y31827D01*
X34291D01*
X34269Y31936D01*
X34135Y32135D01*
X33936Y32269D01*
X33827Y32291D01*
D02*
G37*
G36*
X15000Y40156D02*
X14830Y40133D01*
X14672Y40068D01*
X14536Y39964D01*
X14432Y39828D01*
X14367Y39670D01*
X14344Y39500D01*
X14367Y39330D01*
X14432Y39172D01*
X14439Y39163D01*
Y27631D01*
X14312Y27618D01*
X14296Y27700D01*
X14269Y27836D01*
X14135Y28035D01*
X13936Y28169D01*
X13827Y28191D01*
Y27600D01*
Y27009D01*
X13936Y27031D01*
X14135Y27165D01*
X14269Y27364D01*
X14296Y27500D01*
X14312Y27582D01*
X14439Y27569D01*
Y10400D01*
X14482Y10185D01*
X14603Y10003D01*
X14965Y9642D01*
X14967Y9630D01*
X15032Y9472D01*
X15136Y9336D01*
X15272Y9232D01*
X15430Y9167D01*
X15600Y9144D01*
X15770Y9167D01*
X15928Y9232D01*
X16064Y9336D01*
X16168Y9472D01*
X16233Y9630D01*
X16256Y9800D01*
X16233Y9970D01*
X16168Y10128D01*
X16064Y10264D01*
X15928Y10368D01*
X15770Y10433D01*
X15758Y10435D01*
X15561Y10632D01*
Y27309D01*
X15688Y27349D01*
X15864Y27231D01*
X15973Y27209D01*
Y27800D01*
Y28391D01*
X15864Y28369D01*
X15688Y28251D01*
X15561Y28291D01*
Y28709D01*
X15688Y28749D01*
X15864Y28631D01*
X15973Y28609D01*
Y29200D01*
Y29791D01*
X15864Y29769D01*
X15688Y29651D01*
X15561Y29691D01*
Y39163D01*
X15568Y39172D01*
X15633Y39330D01*
X15656Y39500D01*
X15633Y39670D01*
X15568Y39828D01*
X15464Y39964D01*
X15328Y40068D01*
X15170Y40133D01*
X15000Y40156D01*
D02*
G37*
G36*
X16691Y29073D02*
X16227D01*
Y28609D01*
X16336Y28631D01*
X16535Y28765D01*
X16669Y28964D01*
X16691Y29073D01*
D02*
G37*
G36*
X16227Y28391D02*
Y27927D01*
X16691D01*
X16669Y28036D01*
X16535Y28235D01*
X16336Y28369D01*
X16227Y28391D01*
D02*
G37*
G36*
X47173Y28291D02*
X47064Y28269D01*
X46865Y28135D01*
X46731Y27936D01*
X46709Y27827D01*
X47173D01*
Y28291D01*
D02*
G37*
G36*
X47427D02*
Y27827D01*
X47891D01*
X47869Y27936D01*
X47735Y28135D01*
X47536Y28269D01*
X47427Y28291D01*
D02*
G37*
G36*
X41791Y30573D02*
X41327D01*
Y30109D01*
X41436Y30131D01*
X41635Y30265D01*
X41769Y30464D01*
X41791Y30573D01*
D02*
G37*
G36*
X41073Y31291D02*
X40964Y31269D01*
X40765Y31135D01*
X40631Y30936D01*
X40609Y30827D01*
X41073D01*
Y31291D01*
D02*
G37*
G36*
Y30573D02*
X40609D01*
X40631Y30464D01*
X40765Y30265D01*
X40964Y30131D01*
X41073Y30109D01*
Y30573D01*
D02*
G37*
G36*
X16227Y29791D02*
Y29327D01*
X16691D01*
X16669Y29436D01*
X16535Y29635D01*
X16336Y29769D01*
X16227Y29791D01*
D02*
G37*
G36*
X12500Y36956D02*
X12330Y36933D01*
X12172Y36868D01*
X12036Y36764D01*
X11932Y36628D01*
X11867Y36470D01*
X11844Y36300D01*
X11867Y36130D01*
X11932Y35972D01*
X12036Y35836D01*
X12092Y35794D01*
Y30706D01*
X12036Y30664D01*
X11932Y30528D01*
X11867Y30370D01*
X11844Y30200D01*
X11867Y30030D01*
X11932Y29872D01*
X12036Y29736D01*
X12172Y29632D01*
X12330Y29567D01*
X12500Y29544D01*
X12670Y29567D01*
X12828Y29632D01*
X12964Y29736D01*
X13068Y29872D01*
X13133Y30030D01*
X13156Y30200D01*
X13133Y30370D01*
X13068Y30528D01*
X12964Y30664D01*
X12908Y30706D01*
Y35794D01*
X12964Y35836D01*
X13068Y35972D01*
X13133Y36130D01*
X13156Y36300D01*
X13133Y36470D01*
X13068Y36628D01*
X12964Y36764D01*
X12828Y36868D01*
X12670Y36933D01*
X12500Y36956D01*
D02*
G37*
G36*
X9227Y23191D02*
Y22727D01*
X9691D01*
X9669Y22836D01*
X9535Y23035D01*
X9336Y23169D01*
X9227Y23191D01*
D02*
G37*
G36*
X28407Y10696D02*
Y9827D01*
X29276D01*
X29258Y9962D01*
X29157Y10206D01*
X28996Y10416D01*
X28786Y10577D01*
X28542Y10678D01*
X28407Y10696D01*
D02*
G37*
G36*
X30693D02*
X30558Y10678D01*
X30314Y10577D01*
X30104Y10416D01*
X29943Y10206D01*
X29842Y9962D01*
X29824Y9827D01*
X30693D01*
Y10696D01*
D02*
G37*
G36*
X31816Y9573D02*
X30947D01*
Y8704D01*
X31082Y8722D01*
X31326Y8823D01*
X31536Y8984D01*
X31697Y9194D01*
X31798Y9438D01*
X31816Y9573D01*
D02*
G37*
G36*
X29276D02*
X28407D01*
Y8704D01*
X28542Y8722D01*
X28786Y8823D01*
X28996Y8984D01*
X29157Y9194D01*
X29258Y9438D01*
X29276Y9573D01*
D02*
G37*
G36*
X30693D02*
X29824D01*
X29842Y9438D01*
X29943Y9194D01*
X30104Y8984D01*
X30314Y8823D01*
X30558Y8722D01*
X30693Y8704D01*
Y9573D01*
D02*
G37*
G36*
X38527Y13391D02*
Y12927D01*
X38991D01*
X38969Y13036D01*
X38835Y13235D01*
X38636Y13369D01*
X38527Y13391D01*
D02*
G37*
G36*
X21673Y16573D02*
X21209D01*
X21231Y16464D01*
X21365Y16265D01*
X21564Y16131D01*
X21673Y16109D01*
Y16573D01*
D02*
G37*
G36*
X38273Y13391D02*
X38164Y13369D01*
X37965Y13235D01*
X37831Y13036D01*
X37809Y12927D01*
X38273D01*
Y13391D01*
D02*
G37*
G36*
Y12673D02*
X37809D01*
X37831Y12564D01*
X37965Y12365D01*
X38164Y12231D01*
X38273Y12209D01*
Y12673D01*
D02*
G37*
G36*
X38991D02*
X38527D01*
Y12209D01*
X38636Y12231D01*
X38835Y12365D01*
X38969Y12564D01*
X38991Y12673D01*
D02*
G37*
G36*
X38373Y6491D02*
X38264Y6469D01*
X38065Y6335D01*
X37931Y6136D01*
X37909Y6027D01*
X38373D01*
Y6491D01*
D02*
G37*
G36*
X38627D02*
Y6027D01*
X39091D01*
X39069Y6136D01*
X38935Y6335D01*
X38736Y6469D01*
X38627Y6491D01*
D02*
G37*
G36*
X39091Y5773D02*
X38627D01*
Y5309D01*
X38736Y5331D01*
X38935Y5465D01*
X39069Y5664D01*
X39091Y5773D01*
D02*
G37*
G36*
X10000Y6439D02*
X9627Y6390D01*
X9280Y6246D01*
X8982Y6018D01*
X8754Y5720D01*
X8610Y5373D01*
X8561Y5000D01*
X8610Y4627D01*
X8754Y4280D01*
X8982Y3982D01*
X9280Y3754D01*
X9627Y3610D01*
X10000Y3561D01*
X10373Y3610D01*
X10720Y3754D01*
X11018Y3982D01*
X11246Y4280D01*
X11390Y4627D01*
X11439Y5000D01*
X11390Y5373D01*
X11246Y5720D01*
X11018Y6018D01*
X10720Y6246D01*
X10373Y6390D01*
X10000Y6439D01*
D02*
G37*
G36*
X38373Y5773D02*
X37909D01*
X37931Y5664D01*
X38065Y5465D01*
X38264Y5331D01*
X38373Y5309D01*
Y5773D01*
D02*
G37*
G36*
X46000Y7064D02*
X45985Y7061D01*
X45970Y7063D01*
X45627Y7029D01*
X45598Y7020D01*
X45568Y7017D01*
X45238Y6917D01*
X45212Y6903D01*
X45183Y6894D01*
X44879Y6732D01*
X44856Y6713D01*
X44829Y6699D01*
X44563Y6480D01*
X44543Y6457D01*
X44520Y6437D01*
X44301Y6171D01*
X44287Y6144D01*
X44268Y6121D01*
X44106Y5817D01*
X44097Y5788D01*
X44083Y5762D01*
X43983Y5432D01*
X43980Y5402D01*
X43971Y5373D01*
X43937Y5030D01*
X43940Y5000D01*
X43937Y4970D01*
X43971Y4627D01*
X43980Y4598D01*
X43983Y4568D01*
X44083Y4238D01*
X44097Y4212D01*
X44106Y4183D01*
X44268Y3879D01*
X44287Y3856D01*
X44301Y3829D01*
X44520Y3563D01*
X44543Y3543D01*
X44563Y3520D01*
X44829Y3301D01*
X44856Y3287D01*
X44879Y3268D01*
X45183Y3106D01*
X45212Y3097D01*
X45238Y3083D01*
X45568Y2983D01*
X45598Y2980D01*
X45627Y2971D01*
X45970Y2937D01*
X45985Y2939D01*
X46000Y2936D01*
X46015Y2939D01*
X46030Y2937D01*
X46373Y2971D01*
X46402Y2980D01*
X46432Y2983D01*
X46762Y3083D01*
X46788Y3097D01*
X46817Y3106D01*
X47121Y3268D01*
X47144Y3287D01*
X47171Y3301D01*
X47437Y3520D01*
X47457Y3543D01*
X47480Y3563D01*
X47699Y3829D01*
X47713Y3856D01*
X47732Y3879D01*
X47894Y4183D01*
X47903Y4212D01*
X47917Y4238D01*
X48017Y4568D01*
X48020Y4598D01*
X48029Y4627D01*
X48063Y4970D01*
X48060Y5000D01*
X48063Y5030D01*
X48029Y5373D01*
X48020Y5402D01*
X48017Y5432D01*
X47917Y5762D01*
X47903Y5788D01*
X47894Y5817D01*
X47732Y6121D01*
X47713Y6144D01*
X47699Y6171D01*
X47480Y6437D01*
X47457Y6457D01*
X47437Y6480D01*
X47171Y6699D01*
X47144Y6713D01*
X47121Y6732D01*
X46817Y6894D01*
X46788Y6903D01*
X46762Y6917D01*
X46432Y7017D01*
X46402Y7020D01*
X46373Y7029D01*
X46030Y7063D01*
X46015Y7061D01*
X46000Y7064D01*
D02*
G37*
G36*
X47500Y11439D02*
X47127Y11390D01*
X46780Y11246D01*
X46482Y11018D01*
X46254Y10720D01*
X46110Y10373D01*
X46061Y10000D01*
X46110Y9627D01*
X46254Y9280D01*
X46482Y8982D01*
X46780Y8754D01*
X47127Y8610D01*
X47500Y8561D01*
X47873Y8610D01*
X48220Y8754D01*
X48518Y8982D01*
X48746Y9280D01*
X48890Y9627D01*
X48939Y10000D01*
X48890Y10373D01*
X48746Y10720D01*
X48518Y11018D01*
X48220Y11246D01*
X47873Y11390D01*
X47500Y11439D01*
D02*
G37*
G36*
X4000Y7064D02*
X3985Y7061D01*
X3970Y7063D01*
X3627Y7029D01*
X3598Y7020D01*
X3568Y7017D01*
X3238Y6917D01*
X3212Y6903D01*
X3183Y6894D01*
X2879Y6732D01*
X2856Y6713D01*
X2829Y6699D01*
X2563Y6480D01*
X2543Y6457D01*
X2520Y6437D01*
X2301Y6171D01*
X2287Y6144D01*
X2268Y6121D01*
X2106Y5817D01*
X2097Y5788D01*
X2083Y5762D01*
X1983Y5432D01*
X1980Y5402D01*
X1971Y5373D01*
X1937Y5030D01*
X1940Y5000D01*
X1937Y4970D01*
X1971Y4627D01*
X1980Y4598D01*
X1983Y4568D01*
X2083Y4238D01*
X2097Y4212D01*
X2106Y4183D01*
X2268Y3879D01*
X2287Y3856D01*
X2301Y3829D01*
X2520Y3563D01*
X2543Y3543D01*
X2563Y3520D01*
X2829Y3301D01*
X2856Y3287D01*
X2879Y3268D01*
X3183Y3106D01*
X3212Y3097D01*
X3238Y3083D01*
X3568Y2983D01*
X3598Y2980D01*
X3627Y2971D01*
X3970Y2937D01*
X3985Y2939D01*
X4000Y2936D01*
X4015Y2939D01*
X4030Y2937D01*
X4373Y2971D01*
X4402Y2980D01*
X4432Y2983D01*
X4762Y3083D01*
X4788Y3097D01*
X4817Y3106D01*
X5121Y3268D01*
X5144Y3287D01*
X5171Y3301D01*
X5437Y3520D01*
X5457Y3543D01*
X5480Y3563D01*
X5699Y3829D01*
X5713Y3856D01*
X5732Y3879D01*
X5894Y4183D01*
X5903Y4212D01*
X5917Y4238D01*
X6017Y4568D01*
X6020Y4598D01*
X6029Y4627D01*
X6063Y4970D01*
X6060Y5000D01*
X6063Y5030D01*
X6029Y5373D01*
X6020Y5402D01*
X6017Y5432D01*
X5917Y5762D01*
X5903Y5788D01*
X5894Y5817D01*
X5732Y6121D01*
X5713Y6144D01*
X5699Y6171D01*
X5480Y6437D01*
X5457Y6457D01*
X5437Y6480D01*
X5171Y6699D01*
X5144Y6713D01*
X5121Y6732D01*
X4817Y6894D01*
X4788Y6903D01*
X4762Y6917D01*
X4432Y7017D01*
X4402Y7020D01*
X4373Y7029D01*
X4030Y7063D01*
X4015Y7061D01*
X4000Y7064D01*
D02*
G37*
G36*
X30820Y8219D02*
X30546Y8183D01*
X30290Y8077D01*
X30071Y7909D01*
X29903Y7690D01*
X29797Y7434D01*
X29761Y7160D01*
X29797Y6886D01*
X29903Y6630D01*
X30071Y6411D01*
X30290Y6243D01*
X30546Y6137D01*
X30820Y6101D01*
X31094Y6137D01*
X31350Y6243D01*
X31569Y6411D01*
X31737Y6630D01*
X31843Y6886D01*
X31879Y7160D01*
X31843Y7434D01*
X31737Y7690D01*
X31569Y7909D01*
X31350Y8077D01*
X31094Y8183D01*
X30820Y8219D01*
D02*
G37*
G36*
X24900Y33056D02*
X24730Y33033D01*
X24572Y32968D01*
X24436Y32864D01*
X24332Y32728D01*
X24295Y32637D01*
X22912Y31254D01*
X22823Y31122D01*
X22792Y30966D01*
X22792Y30966D01*
Y16434D01*
X16782Y10423D01*
X16693Y10291D01*
X16662Y10135D01*
X16662Y10135D01*
Y8210D01*
X16662Y8210D01*
X16693Y8054D01*
X16782Y7922D01*
X17064Y7639D01*
Y7038D01*
X16947Y6990D01*
X7239Y16698D01*
X7276Y16819D01*
X7336Y16831D01*
X7535Y16965D01*
X7669Y17164D01*
X7691Y17273D01*
X7100D01*
Y17400D01*
X6973D01*
Y17991D01*
X6864Y17969D01*
X6665Y17835D01*
X6531Y17636D01*
X6519Y17576D01*
X6398Y17539D01*
X2784Y21153D01*
Y21979D01*
X2896Y22071D01*
Y22677D01*
Y23283D01*
X2784Y23375D01*
Y24063D01*
X2868Y24172D01*
X2933Y24330D01*
X2956Y24500D01*
X2933Y24670D01*
X2868Y24828D01*
X2764Y24964D01*
X2628Y25068D01*
X2470Y25133D01*
X2300Y25156D01*
X2130Y25133D01*
X1972Y25068D01*
X1836Y24964D01*
X1732Y24828D01*
X1667Y24670D01*
X1644Y24500D01*
X1662Y24365D01*
Y20921D01*
X1705Y20706D01*
X1826Y20524D01*
X16787Y5563D01*
X16969Y5442D01*
X17184Y5399D01*
X27660D01*
X27875Y5442D01*
X28057Y5563D01*
X28677Y6183D01*
X28680Y6189D01*
X28810Y6243D01*
X29029Y6411D01*
X29197Y6630D01*
X29303Y6886D01*
X29339Y7160D01*
X29303Y7434D01*
X29197Y7690D01*
X29029Y7909D01*
X28810Y8077D01*
X28554Y8183D01*
X28280Y8219D01*
X28006Y8183D01*
X27750Y8077D01*
X27531Y7909D01*
X27363Y7690D01*
X27257Y7434D01*
X27221Y7160D01*
X27257Y6886D01*
X27356Y6648D01*
X27331Y6585D01*
X27287Y6521D01*
X26713D01*
X26664Y6648D01*
X26763Y6886D01*
X26799Y7160D01*
X26763Y7434D01*
X26657Y7690D01*
X26489Y7909D01*
X26320Y8039D01*
X26294Y8192D01*
X27284Y9183D01*
X27434Y9153D01*
X27564Y8984D01*
X27774Y8823D01*
X28018Y8722D01*
X28153Y8704D01*
Y9700D01*
Y10696D01*
X28018Y10678D01*
X27774Y10577D01*
X27752Y10560D01*
X27638Y10616D01*
Y12086D01*
X28563Y13012D01*
X28563Y13012D01*
X28652Y13144D01*
X28683Y13300D01*
Y28919D01*
X28739Y28961D01*
X28843Y29097D01*
X28908Y29255D01*
X28931Y29425D01*
X28908Y29595D01*
X28843Y29753D01*
X28739Y29889D01*
X28603Y29993D01*
X28445Y30058D01*
X28275Y30081D01*
X28105Y30058D01*
X27947Y29993D01*
X27811Y29889D01*
X27707Y29753D01*
X27642Y29595D01*
X27619Y29425D01*
X27642Y29255D01*
X27707Y29097D01*
X27811Y28961D01*
X27867Y28919D01*
Y13469D01*
X26942Y12543D01*
X26853Y12411D01*
X26822Y12255D01*
X26822Y12255D01*
Y10163D01*
X26695Y10138D01*
X26657Y10230D01*
X26489Y10449D01*
X26270Y10617D01*
X26014Y10723D01*
X25908Y10737D01*
X25858Y10787D01*
Y19103D01*
X25973Y19197D01*
Y19800D01*
X26100D01*
Y19927D01*
X26691D01*
X26669Y20036D01*
X26535Y20235D01*
X26495Y20262D01*
X26477Y20356D01*
X26388Y20488D01*
X26256Y20577D01*
X26100Y20608D01*
X25985Y20585D01*
X25858Y20660D01*
Y27981D01*
X26888Y29012D01*
X26888Y29012D01*
X26977Y29144D01*
X27008Y29300D01*
X27008Y29300D01*
Y29594D01*
X27064Y29636D01*
X27168Y29772D01*
X27233Y29930D01*
X27256Y30100D01*
X27233Y30270D01*
X27168Y30428D01*
X27064Y30564D01*
X26928Y30668D01*
X26895Y30682D01*
X26833Y30845D01*
X26842Y30863D01*
X26870Y30867D01*
X27028Y30932D01*
X27164Y31036D01*
X27268Y31172D01*
X27333Y31330D01*
X27356Y31500D01*
X27333Y31670D01*
X27268Y31828D01*
X27164Y31964D01*
X27028Y32068D01*
X26870Y32133D01*
X26700Y32156D01*
X26530Y32133D01*
X26422Y32088D01*
X26268Y32128D01*
X26164Y32264D01*
X26028Y32368D01*
X25870Y32433D01*
X25700Y32456D01*
X25551Y32436D01*
X25533Y32570D01*
X25468Y32728D01*
X25364Y32864D01*
X25228Y32968D01*
X25070Y33033D01*
X24900Y33056D01*
D02*
G37*
G36*
X22391Y16573D02*
X21927D01*
Y16109D01*
X22036Y16131D01*
X22235Y16265D01*
X22369Y16464D01*
X22391Y16573D01*
D02*
G37*
G36*
X7227Y21091D02*
Y20627D01*
X7691D01*
X7669Y20736D01*
X7535Y20935D01*
X7336Y21069D01*
X7227Y21091D01*
D02*
G37*
G36*
X44173Y21191D02*
X44064Y21169D01*
X43865Y21035D01*
X43731Y20836D01*
X43709Y20727D01*
X44173D01*
Y21191D01*
D02*
G37*
G36*
X6973Y21091D02*
X6864Y21069D01*
X6665Y20935D01*
X6531Y20736D01*
X6509Y20627D01*
X6973D01*
Y21091D01*
D02*
G37*
G36*
X21673Y20891D02*
X21564Y20869D01*
X21365Y20735D01*
X21231Y20536D01*
X21209Y20427D01*
X21673D01*
Y20891D01*
D02*
G37*
G36*
X21927D02*
Y20427D01*
X22391D01*
X22369Y20536D01*
X22235Y20735D01*
X22036Y20869D01*
X21927Y20891D01*
D02*
G37*
G36*
X3614Y22550D02*
X3150D01*
Y22086D01*
X3259Y22108D01*
X3458Y22242D01*
X3592Y22441D01*
X3614Y22550D01*
D02*
G37*
G36*
X8973Y23191D02*
X8864Y23169D01*
X8665Y23035D01*
X8531Y22836D01*
X8509Y22727D01*
X8973D01*
Y23191D01*
D02*
G37*
G36*
X9691Y22473D02*
X9227D01*
Y22009D01*
X9336Y22031D01*
X9535Y22165D01*
X9669Y22364D01*
X9691Y22473D01*
D02*
G37*
G36*
X44427Y21191D02*
Y20727D01*
X44891D01*
X44869Y20836D01*
X44735Y21035D01*
X44536Y21169D01*
X44427Y21191D01*
D02*
G37*
G36*
X8973Y22473D02*
X8509D01*
X8531Y22364D01*
X8665Y22165D01*
X8864Y22031D01*
X8973Y22009D01*
Y22473D01*
D02*
G37*
G36*
X26691Y19673D02*
X26227D01*
Y19209D01*
X26336Y19231D01*
X26535Y19365D01*
X26669Y19564D01*
X26691Y19673D01*
D02*
G37*
G36*
X21673Y20173D02*
X21209D01*
X21231Y20064D01*
X21365Y19865D01*
X21564Y19731D01*
X21673Y19709D01*
Y20173D01*
D02*
G37*
G36*
X7227Y17991D02*
Y17527D01*
X7691D01*
X7669Y17636D01*
X7535Y17835D01*
X7336Y17969D01*
X7227Y17991D01*
D02*
G37*
G36*
X21673Y17291D02*
X21564Y17269D01*
X21365Y17135D01*
X21231Y16936D01*
X21209Y16827D01*
X21673D01*
Y17291D01*
D02*
G37*
G36*
X21927D02*
Y16827D01*
X22391D01*
X22369Y16936D01*
X22235Y17135D01*
X22036Y17269D01*
X21927Y17291D01*
D02*
G37*
G36*
X44173Y20473D02*
X43709D01*
X43731Y20364D01*
X43865Y20165D01*
X44064Y20031D01*
X44173Y20009D01*
Y20473D01*
D02*
G37*
G36*
X44891D02*
X44427D01*
Y20009D01*
X44536Y20031D01*
X44735Y20165D01*
X44869Y20364D01*
X44891Y20473D01*
D02*
G37*
G36*
X7691Y20373D02*
X7227D01*
Y19909D01*
X7336Y19931D01*
X7535Y20065D01*
X7669Y20264D01*
X7691Y20373D01*
D02*
G37*
G36*
X22391Y20173D02*
X21927D01*
Y19709D01*
X22036Y19731D01*
X22235Y19865D01*
X22369Y20064D01*
X22391Y20173D01*
D02*
G37*
G36*
X6973Y20373D02*
X6509D01*
X6531Y20264D01*
X6665Y20065D01*
X6864Y19931D01*
X6973Y19909D01*
Y20373D01*
D02*
G37*
G36*
X7504Y32513D02*
Y32050D01*
X7968D01*
X7946Y32158D01*
X7813Y32358D01*
X7613Y32492D01*
X7504Y32513D01*
D02*
G37*
G36*
X37866Y47598D02*
X37402D01*
Y47134D01*
X37511Y47156D01*
X37710Y47290D01*
X37844Y47489D01*
X37866Y47598D01*
D02*
G37*
G36*
X32598Y48316D02*
X32489Y48294D01*
X32290Y48160D01*
X32156Y47961D01*
X32134Y47852D01*
X32598D01*
Y48316D01*
D02*
G37*
G36*
X37148Y47598D02*
X36684D01*
X36706Y47489D01*
X36840Y47290D01*
X37039Y47156D01*
X37148Y47134D01*
Y47598D01*
D02*
G37*
G36*
X35198D02*
X34734D01*
X34756Y47489D01*
X34890Y47290D01*
X35089Y47156D01*
X35198Y47134D01*
Y47598D01*
D02*
G37*
G36*
X35916D02*
X35452D01*
Y47134D01*
X35561Y47156D01*
X35760Y47290D01*
X35894Y47489D01*
X35916Y47598D01*
D02*
G37*
G36*
X37148Y48316D02*
X37039Y48294D01*
X36840Y48160D01*
X36706Y47961D01*
X36684Y47852D01*
X37148D01*
Y48316D01*
D02*
G37*
G36*
X37402D02*
Y47852D01*
X37866D01*
X37844Y47961D01*
X37710Y48160D01*
X37511Y48294D01*
X37402Y48316D01*
D02*
G37*
G36*
X35452D02*
Y47852D01*
X35916D01*
X35894Y47961D01*
X35760Y48160D01*
X35561Y48294D01*
X35452Y48316D01*
D02*
G37*
G36*
X32852D02*
Y47852D01*
X33316D01*
X33294Y47961D01*
X33160Y48160D01*
X32961Y48294D01*
X32852Y48316D01*
D02*
G37*
G36*
X35198D02*
X35089Y48294D01*
X34890Y48160D01*
X34756Y47961D01*
X34734Y47852D01*
X35198D01*
Y48316D01*
D02*
G37*
G36*
X47771Y45823D02*
X46927D01*
Y44979D01*
X47056Y44996D01*
X47294Y45095D01*
X47498Y45252D01*
X47655Y45456D01*
X47754Y45694D01*
X47771Y45823D01*
D02*
G37*
G36*
X40891Y45473D02*
X40427D01*
Y45009D01*
X40536Y45031D01*
X40735Y45165D01*
X40869Y45364D01*
X40891Y45473D01*
D02*
G37*
G36*
X46673Y45823D02*
X45829D01*
X45846Y45694D01*
X45945Y45456D01*
X46102Y45252D01*
X46306Y45095D01*
X46544Y44996D01*
X46673Y44979D01*
Y45823D01*
D02*
G37*
G36*
X34473Y45191D02*
X34364Y45169D01*
X34165Y45035D01*
X34031Y44836D01*
X34009Y44727D01*
X34473D01*
Y45191D01*
D02*
G37*
G36*
X34727D02*
Y44727D01*
X35191D01*
X35169Y44836D01*
X35035Y45035D01*
X34836Y45169D01*
X34727Y45191D01*
D02*
G37*
G36*
X32598Y47598D02*
X32134D01*
X32156Y47489D01*
X32290Y47290D01*
X32489Y47156D01*
X32598Y47134D01*
Y47598D01*
D02*
G37*
G36*
X33316D02*
X32852D01*
Y47134D01*
X32961Y47156D01*
X33160Y47290D01*
X33294Y47489D01*
X33316Y47598D01*
D02*
G37*
G36*
X46927Y46921D02*
Y46077D01*
X47771D01*
X47754Y46206D01*
X47655Y46444D01*
X47498Y46648D01*
X47294Y46805D01*
X47056Y46904D01*
X46927Y46921D01*
D02*
G37*
G36*
X49373Y45837D02*
X49175D01*
X48946Y45806D01*
X48732Y45718D01*
X48548Y45577D01*
X48407Y45393D01*
X48319Y45179D01*
X48305Y45077D01*
X49373D01*
Y45837D01*
D02*
G37*
G36*
X46673Y46921D02*
X46544Y46904D01*
X46306Y46805D01*
X46102Y46648D01*
X45945Y46444D01*
X45846Y46206D01*
X45829Y46077D01*
X46673D01*
Y46921D01*
D02*
G37*
G36*
X18673Y48473D02*
X18209D01*
X18231Y48364D01*
X18365Y48165D01*
X18564Y48031D01*
X18673Y48009D01*
Y48473D01*
D02*
G37*
G36*
X30827Y54391D02*
Y53927D01*
X31291D01*
X31269Y54036D01*
X31135Y54235D01*
X30936Y54369D01*
X30827Y54391D01*
D02*
G37*
G36*
X35173Y55273D02*
X34709D01*
X34731Y55164D01*
X34865Y54965D01*
X35064Y54831D01*
X35173Y54809D01*
Y55273D01*
D02*
G37*
G36*
X30573Y54391D02*
X30464Y54369D01*
X30265Y54235D01*
X30131Y54036D01*
X30109Y53927D01*
X30573D01*
Y54391D01*
D02*
G37*
G36*
X31291Y53673D02*
X30827D01*
Y53209D01*
X30936Y53231D01*
X31135Y53365D01*
X31269Y53564D01*
X31291Y53673D01*
D02*
G37*
G36*
X7500Y56439D02*
X7127Y56390D01*
X6780Y56246D01*
X6482Y56018D01*
X6254Y55720D01*
X6110Y55373D01*
X6061Y55000D01*
X6110Y54627D01*
X6254Y54280D01*
X6482Y53982D01*
X6780Y53754D01*
X7127Y53610D01*
X7500Y53561D01*
X7873Y53610D01*
X8220Y53754D01*
X8518Y53982D01*
X8746Y54280D01*
X8890Y54627D01*
X8939Y55000D01*
X8890Y55373D01*
X8746Y55720D01*
X8518Y56018D01*
X8220Y56246D01*
X7873Y56390D01*
X7500Y56439D01*
D02*
G37*
G36*
X4000Y56064D02*
X3985Y56061D01*
X3970Y56063D01*
X3627Y56029D01*
X3598Y56020D01*
X3568Y56017D01*
X3238Y55917D01*
X3212Y55903D01*
X3183Y55894D01*
X2879Y55732D01*
X2856Y55713D01*
X2829Y55699D01*
X2563Y55480D01*
X2543Y55457D01*
X2520Y55437D01*
X2301Y55171D01*
X2287Y55144D01*
X2268Y55121D01*
X2106Y54817D01*
X2097Y54788D01*
X2083Y54762D01*
X1983Y54432D01*
X1980Y54402D01*
X1971Y54373D01*
X1937Y54030D01*
X1940Y54000D01*
X1937Y53970D01*
X1971Y53627D01*
X1980Y53598D01*
X1983Y53568D01*
X2083Y53238D01*
X2097Y53212D01*
X2106Y53183D01*
X2268Y52879D01*
X2287Y52856D01*
X2301Y52829D01*
X2520Y52563D01*
X2543Y52543D01*
X2563Y52520D01*
X2829Y52301D01*
X2856Y52287D01*
X2879Y52268D01*
X3183Y52106D01*
X3212Y52097D01*
X3238Y52083D01*
X3568Y51983D01*
X3598Y51980D01*
X3627Y51971D01*
X3970Y51937D01*
X3985Y51939D01*
X4000Y51936D01*
X4015Y51939D01*
X4030Y51937D01*
X4373Y51971D01*
X4402Y51980D01*
X4432Y51983D01*
X4762Y52083D01*
X4788Y52097D01*
X4817Y52106D01*
X5121Y52268D01*
X5144Y52287D01*
X5171Y52301D01*
X5437Y52520D01*
X5457Y52543D01*
X5480Y52563D01*
X5699Y52829D01*
X5713Y52856D01*
X5732Y52879D01*
X5894Y53183D01*
X5903Y53212D01*
X5917Y53238D01*
X6017Y53568D01*
X6020Y53598D01*
X6029Y53627D01*
X6063Y53970D01*
X6060Y54000D01*
X6063Y54030D01*
X6029Y54373D01*
X6020Y54402D01*
X6017Y54432D01*
X5917Y54762D01*
X5903Y54788D01*
X5894Y54817D01*
X5732Y55121D01*
X5713Y55144D01*
X5699Y55171D01*
X5480Y55437D01*
X5457Y55457D01*
X5437Y55480D01*
X5171Y55699D01*
X5144Y55713D01*
X5121Y55732D01*
X4817Y55894D01*
X4788Y55903D01*
X4762Y55917D01*
X4432Y56017D01*
X4402Y56020D01*
X4373Y56029D01*
X4030Y56063D01*
X4015Y56061D01*
X4000Y56064D01*
D02*
G37*
G36*
X43000D02*
X42985Y56061D01*
X42970Y56063D01*
X42627Y56029D01*
X42598Y56020D01*
X42568Y56017D01*
X42238Y55917D01*
X42212Y55903D01*
X42183Y55894D01*
X41879Y55732D01*
X41856Y55713D01*
X41829Y55699D01*
X41563Y55480D01*
X41543Y55457D01*
X41520Y55437D01*
X41301Y55171D01*
X41287Y55144D01*
X41268Y55121D01*
X41106Y54817D01*
X41097Y54788D01*
X41083Y54762D01*
X40983Y54432D01*
X40980Y54402D01*
X40971Y54373D01*
X40937Y54030D01*
X40940Y54000D01*
X40937Y53970D01*
X40971Y53627D01*
X40980Y53598D01*
X40983Y53568D01*
X41083Y53238D01*
X41097Y53212D01*
X41106Y53183D01*
X41268Y52879D01*
X41287Y52856D01*
X41301Y52829D01*
X41520Y52563D01*
X41543Y52543D01*
X41563Y52520D01*
X41829Y52301D01*
X41856Y52287D01*
X41879Y52268D01*
X42183Y52106D01*
X42212Y52097D01*
X42238Y52083D01*
X42568Y51983D01*
X42598Y51980D01*
X42627Y51971D01*
X42970Y51937D01*
X42985Y51939D01*
X43000Y51936D01*
X43015Y51939D01*
X43030Y51937D01*
X43373Y51971D01*
X43402Y51980D01*
X43432Y51983D01*
X43762Y52083D01*
X43788Y52097D01*
X43817Y52106D01*
X44121Y52268D01*
X44144Y52287D01*
X44171Y52301D01*
X44437Y52520D01*
X44457Y52543D01*
X44480Y52563D01*
X44699Y52829D01*
X44713Y52856D01*
X44732Y52879D01*
X44894Y53183D01*
X44903Y53212D01*
X44917Y53238D01*
X45017Y53568D01*
X45020Y53598D01*
X45029Y53627D01*
X45063Y53970D01*
X45060Y54000D01*
X45063Y54030D01*
X45029Y54373D01*
X45020Y54402D01*
X45017Y54432D01*
X44917Y54762D01*
X44903Y54788D01*
X44894Y54817D01*
X44732Y55121D01*
X44713Y55144D01*
X44699Y55171D01*
X44480Y55437D01*
X44457Y55457D01*
X44437Y55480D01*
X44171Y55699D01*
X44144Y55713D01*
X44121Y55732D01*
X43817Y55894D01*
X43788Y55903D01*
X43762Y55917D01*
X43432Y56017D01*
X43402Y56020D01*
X43373Y56029D01*
X43030Y56063D01*
X43015Y56061D01*
X43000Y56064D01*
D02*
G37*
G36*
X35427Y55991D02*
Y55527D01*
X35891D01*
X35869Y55636D01*
X35735Y55835D01*
X35536Y55969D01*
X35427Y55991D01*
D02*
G37*
G36*
X35891Y55273D02*
X35427D01*
Y54809D01*
X35536Y54831D01*
X35735Y54965D01*
X35869Y55164D01*
X35891Y55273D01*
D02*
G37*
G36*
X35173Y55991D02*
X35064Y55969D01*
X34865Y55835D01*
X34731Y55636D01*
X34709Y55527D01*
X35173D01*
Y55991D01*
D02*
G37*
G36*
X46673Y50823D02*
X45829D01*
X45846Y50694D01*
X45945Y50456D01*
X46102Y50252D01*
X46306Y50095D01*
X46544Y49996D01*
X46673Y49979D01*
Y50823D01*
D02*
G37*
G36*
X47771D02*
X46927D01*
Y49979D01*
X47056Y49996D01*
X47294Y50095D01*
X47498Y50252D01*
X47655Y50456D01*
X47754Y50694D01*
X47771Y50823D01*
D02*
G37*
G36*
X18927Y49191D02*
Y48727D01*
X19391D01*
X19369Y48836D01*
X19235Y49035D01*
X19036Y49169D01*
X18927Y49191D01*
D02*
G37*
G36*
X19391Y48473D02*
X18927D01*
Y48009D01*
X19036Y48031D01*
X19235Y48165D01*
X19369Y48364D01*
X19391Y48473D01*
D02*
G37*
G36*
X18673Y49191D02*
X18564Y49169D01*
X18365Y49035D01*
X18231Y48836D01*
X18209Y48727D01*
X18673D01*
Y49191D01*
D02*
G37*
G36*
X49373Y52837D02*
X49175D01*
X48946Y52806D01*
X48732Y52718D01*
X48548Y52577D01*
X48407Y52393D01*
X48319Y52179D01*
X48305Y52077D01*
X49373D01*
Y52837D01*
D02*
G37*
G36*
X30573Y53673D02*
X30109D01*
X30131Y53564D01*
X30265Y53365D01*
X30464Y53231D01*
X30573Y53209D01*
Y53673D01*
D02*
G37*
G36*
X46927Y51921D02*
Y51077D01*
X47771D01*
X47754Y51206D01*
X47655Y51444D01*
X47498Y51648D01*
X47294Y51805D01*
X47056Y51904D01*
X46927Y51921D01*
D02*
G37*
G36*
X49373Y51823D02*
X48305D01*
X48319Y51721D01*
X48407Y51507D01*
X48548Y51323D01*
X48732Y51182D01*
X48946Y51094D01*
X49175Y51063D01*
X49373D01*
Y51823D01*
D02*
G37*
G36*
X46673Y51921D02*
X46544Y51904D01*
X46306Y51805D01*
X46102Y51648D01*
X45945Y51444D01*
X45846Y51206D01*
X45829Y51077D01*
X46673D01*
Y51921D01*
D02*
G37*
G36*
X17627Y44691D02*
Y44227D01*
X18091D01*
X18069Y44336D01*
X17935Y44535D01*
X17736Y44669D01*
X17627Y44691D01*
D02*
G37*
G36*
X21391Y36873D02*
X20927D01*
Y36409D01*
X21036Y36431D01*
X21235Y36565D01*
X21369Y36764D01*
X21391Y36873D01*
D02*
G37*
G36*
X27023Y37223D02*
X26559D01*
X26581Y37114D01*
X26715Y36915D01*
X26914Y36781D01*
X27023Y36759D01*
Y37223D01*
D02*
G37*
G36*
X20673Y36873D02*
X20209D01*
X20231Y36764D01*
X20365Y36565D01*
X20564Y36431D01*
X20673Y36409D01*
Y36873D01*
D02*
G37*
G36*
X48173Y36673D02*
X47709D01*
X47731Y36564D01*
X47865Y36365D01*
X48064Y36231D01*
X48173Y36209D01*
Y36673D01*
D02*
G37*
G36*
X48891D02*
X48427D01*
Y36209D01*
X48536Y36231D01*
X48735Y36365D01*
X48869Y36564D01*
X48891Y36673D01*
D02*
G37*
G36*
X20673Y37591D02*
X20564Y37569D01*
X20365Y37435D01*
X20231Y37236D01*
X20209Y37127D01*
X20673D01*
Y37591D01*
D02*
G37*
G36*
X20927D02*
Y37127D01*
X21391D01*
X21369Y37236D01*
X21235Y37435D01*
X21036Y37569D01*
X20927Y37591D01*
D02*
G37*
G36*
X48427Y37391D02*
Y36927D01*
X48891D01*
X48869Y37036D01*
X48735Y37235D01*
X48536Y37369D01*
X48427Y37391D01*
D02*
G37*
G36*
X27741Y37223D02*
X27277D01*
Y36759D01*
X27386Y36781D01*
X27585Y36915D01*
X27719Y37114D01*
X27741Y37223D01*
D02*
G37*
G36*
X48173Y37391D02*
X48064Y37369D01*
X47865Y37235D01*
X47731Y37036D01*
X47709Y36927D01*
X48173D01*
Y37391D01*
D02*
G37*
G36*
X29800Y34056D02*
X29630Y34033D01*
X29472Y33968D01*
X29336Y33864D01*
X29232Y33728D01*
X29167Y33570D01*
X29144Y33400D01*
X29151Y33348D01*
X29146Y33343D01*
X29031Y33289D01*
X28928Y33368D01*
X28770Y33433D01*
X28600Y33456D01*
X28430Y33433D01*
X28272Y33368D01*
X28136Y33264D01*
X28032Y33128D01*
X27967Y32970D01*
X27944Y32800D01*
X27967Y32630D01*
X28032Y32472D01*
X28136Y32336D01*
X28272Y32232D01*
X28430Y32167D01*
X28600Y32144D01*
X28670Y32154D01*
X29292Y31531D01*
Y12900D01*
X29292Y12900D01*
X29323Y12744D01*
X29412Y12612D01*
X31296Y10727D01*
X31224Y10619D01*
X31082Y10678D01*
X30947Y10696D01*
Y9827D01*
X31816D01*
X31798Y9962D01*
X31739Y10104D01*
X31847Y10176D01*
X34212Y7812D01*
X34344Y7723D01*
X34500Y7692D01*
X34500Y7692D01*
X38045D01*
X38067Y7530D01*
X38132Y7372D01*
X38236Y7236D01*
X38372Y7132D01*
X38530Y7067D01*
X38700Y7044D01*
X38870Y7067D01*
X39028Y7132D01*
X39164Y7236D01*
X39268Y7372D01*
X39333Y7530D01*
X39356Y7700D01*
X39333Y7870D01*
X39268Y8028D01*
X39164Y8164D01*
X39028Y8268D01*
X38870Y8333D01*
X38700Y8356D01*
X38630Y8346D01*
X38588Y8388D01*
X38456Y8477D01*
X38300Y8508D01*
X38300Y8508D01*
X34669D01*
X32502Y10675D01*
X32551Y10792D01*
X37394D01*
X37436Y10736D01*
X37572Y10632D01*
X37730Y10567D01*
X37900Y10544D01*
X38070Y10567D01*
X38228Y10632D01*
X38364Y10736D01*
X38468Y10872D01*
X38533Y11030D01*
X38556Y11200D01*
X38533Y11370D01*
X38468Y11528D01*
X38364Y11664D01*
X38228Y11768D01*
X38070Y11833D01*
X37900Y11856D01*
X37730Y11833D01*
X37572Y11768D01*
X37436Y11664D01*
X37394Y11608D01*
X32169D01*
X30532Y13245D01*
Y33076D01*
X30532Y33076D01*
X30501Y33232D01*
X30445Y33316D01*
X30456Y33400D01*
X30433Y33570D01*
X30368Y33728D01*
X30264Y33864D01*
X30128Y33968D01*
X29970Y34033D01*
X29800Y34056D01*
D02*
G37*
G36*
X40700Y35619D02*
X40426Y35583D01*
X40170Y35477D01*
X39951Y35309D01*
X39783Y35090D01*
X39677Y34834D01*
X39641Y34560D01*
X39677Y34286D01*
X39783Y34030D01*
X39951Y33811D01*
X40170Y33643D01*
X40426Y33537D01*
X40700Y33501D01*
X40974Y33537D01*
X41230Y33643D01*
X41449Y33811D01*
X41617Y34030D01*
X41723Y34286D01*
X41759Y34560D01*
X41723Y34834D01*
X41617Y35090D01*
X41449Y35309D01*
X41230Y35477D01*
X40974Y35583D01*
X40700Y35619D01*
D02*
G37*
G36*
X37291Y33154D02*
Y32691D01*
X37754D01*
X37733Y32799D01*
X37599Y32999D01*
X37399Y33133D01*
X37291Y33154D01*
D02*
G37*
G36*
X7250Y32513D02*
X7212Y32505D01*
X7200Y32508D01*
X7044Y32477D01*
X6912Y32388D01*
X6823Y32256D01*
X6792Y32100D01*
X6795Y32088D01*
X6787Y32050D01*
X7250D01*
Y32513D01*
D02*
G37*
G36*
X37037Y33154D02*
X36928Y33133D01*
X36728Y32999D01*
X36595Y32799D01*
X36573Y32691D01*
X37037D01*
Y33154D01*
D02*
G37*
G36*
X38627Y35891D02*
Y35427D01*
X39091D01*
X39069Y35536D01*
X38935Y35735D01*
X38736Y35869D01*
X38627Y35891D01*
D02*
G37*
G36*
X39750Y56406D02*
X39580Y56383D01*
X39422Y56318D01*
X39286Y56214D01*
X39182Y56078D01*
X39117Y55920D01*
X39094Y55750D01*
X39117Y55580D01*
X39182Y55422D01*
X39189Y55413D01*
Y46414D01*
X39103Y46328D01*
X38982Y46146D01*
X38939Y45931D01*
Y38300D01*
X38982Y38085D01*
X39103Y37903D01*
X39644Y37363D01*
Y36350D01*
X39667Y36233D01*
X39734Y36134D01*
X39833Y36067D01*
X39950Y36044D01*
X41450D01*
X41567Y36067D01*
X41666Y36134D01*
X41733Y36233D01*
X41756Y36350D01*
Y37850D01*
X41733Y37967D01*
X41666Y38066D01*
X41567Y38133D01*
X41450Y38156D01*
X40437D01*
X40061Y38532D01*
Y44902D01*
X40173Y44994D01*
Y45600D01*
X40300D01*
Y45727D01*
X40891D01*
X40869Y45836D01*
X40735Y46035D01*
X40536Y46169D01*
X40311Y46214D01*
Y55413D01*
X40318Y55422D01*
X40383Y55580D01*
X40406Y55750D01*
X40383Y55920D01*
X40318Y56078D01*
X40214Y56214D01*
X40078Y56318D01*
X39920Y56383D01*
X39750Y56406D01*
D02*
G37*
G36*
X38373Y35891D02*
X38264Y35869D01*
X38065Y35735D01*
X37931Y35536D01*
X37909Y35427D01*
X38373D01*
Y35891D01*
D02*
G37*
G36*
Y35173D02*
X37909D01*
X37931Y35064D01*
X38065Y34865D01*
X38264Y34731D01*
X38373Y34709D01*
Y35173D01*
D02*
G37*
G36*
X39091D02*
X38627D01*
Y34709D01*
X38736Y34731D01*
X38935Y34865D01*
X39069Y35064D01*
X39091Y35173D01*
D02*
G37*
G36*
X27023Y37941D02*
X26914Y37919D01*
X26715Y37785D01*
X26581Y37586D01*
X26559Y37477D01*
X27023D01*
Y37941D01*
D02*
G37*
G36*
X3627Y42891D02*
Y42427D01*
X4091D01*
X4069Y42536D01*
X3935Y42735D01*
X3736Y42869D01*
X3627Y42891D01*
D02*
G37*
G36*
X17373Y43973D02*
X16909D01*
X16931Y43864D01*
X17065Y43665D01*
X17264Y43531D01*
X17373Y43509D01*
Y43973D01*
D02*
G37*
G36*
X3373Y42891D02*
X3264Y42869D01*
X3065Y42735D01*
X2931Y42536D01*
X2909Y42427D01*
X3373D01*
Y42891D01*
D02*
G37*
G36*
Y42173D02*
X2909D01*
X2931Y42064D01*
X3065Y41865D01*
X3264Y41731D01*
X3373Y41709D01*
Y42173D01*
D02*
G37*
G36*
X4091D02*
X3627D01*
Y41709D01*
X3736Y41731D01*
X3935Y41865D01*
X4069Y42064D01*
X4091Y42173D01*
D02*
G37*
G36*
X49373Y44823D02*
X48305D01*
X48319Y44721D01*
X48407Y44507D01*
X48548Y44323D01*
X48732Y44182D01*
X48946Y44094D01*
X49175Y44063D01*
X49373D01*
Y44823D01*
D02*
G37*
G36*
X17373Y44691D02*
X17264Y44669D01*
X17065Y44535D01*
X16931Y44336D01*
X16909Y44227D01*
X17373D01*
Y44691D01*
D02*
G37*
G36*
X35191Y44473D02*
X34727D01*
Y44009D01*
X34836Y44031D01*
X35035Y44165D01*
X35169Y44364D01*
X35191Y44473D01*
D02*
G37*
G36*
X18091Y43973D02*
X17627D01*
Y43509D01*
X17736Y43531D01*
X17935Y43665D01*
X18069Y43864D01*
X18091Y43973D01*
D02*
G37*
G36*
X34473Y44473D02*
X34009D01*
X34031Y44364D01*
X34165Y44165D01*
X34364Y44031D01*
X34473Y44009D01*
Y44473D01*
D02*
G37*
G36*
X6673Y39573D02*
X6209D01*
X6231Y39464D01*
X6365Y39265D01*
X6564Y39131D01*
X6673Y39109D01*
Y39573D01*
D02*
G37*
G36*
X7391D02*
X6927D01*
Y39109D01*
X7036Y39131D01*
X7235Y39265D01*
X7369Y39464D01*
X7391Y39573D01*
D02*
G37*
G36*
X27291Y39373D02*
X26827D01*
Y38909D01*
X26936Y38931D01*
X27135Y39065D01*
X27269Y39264D01*
X27291Y39373D01*
D02*
G37*
G36*
X27277Y37941D02*
Y37477D01*
X27741D01*
X27719Y37586D01*
X27585Y37785D01*
X27386Y37919D01*
X27277Y37941D01*
D02*
G37*
G36*
X26573Y39373D02*
X26109D01*
X26131Y39264D01*
X26265Y39065D01*
X26464Y38931D01*
X26573Y38909D01*
Y39373D01*
D02*
G37*
G36*
X6927Y40291D02*
Y39827D01*
X7391D01*
X7369Y39936D01*
X7235Y40135D01*
X7036Y40269D01*
X6927Y40291D01*
D02*
G37*
G36*
X36500Y40756D02*
X36330Y40733D01*
X36172Y40668D01*
X36036Y40564D01*
X35994Y40508D01*
X35781D01*
X35781Y40508D01*
X35625Y40477D01*
X35492Y40388D01*
X35492Y40388D01*
X32862Y37758D01*
X32773Y37625D01*
X32742Y37469D01*
X32742Y37469D01*
Y37101D01*
X32625Y37052D01*
X29646Y40030D01*
X29656Y40100D01*
X29633Y40270D01*
X29568Y40428D01*
X29464Y40564D01*
X29328Y40668D01*
X29170Y40733D01*
X29000Y40756D01*
X28830Y40733D01*
X28672Y40668D01*
X28536Y40564D01*
X28432Y40428D01*
X28367Y40270D01*
X28344Y40100D01*
X28367Y39930D01*
X28432Y39772D01*
X28536Y39636D01*
X28672Y39532D01*
X28830Y39467D01*
X29000Y39444D01*
X29070Y39454D01*
X32092Y36431D01*
Y35006D01*
X32036Y34964D01*
X31932Y34828D01*
X31867Y34670D01*
X31844Y34500D01*
X31867Y34330D01*
X31932Y34172D01*
X32036Y34036D01*
X32172Y33932D01*
X32330Y33867D01*
X32374Y33861D01*
X32432Y33728D01*
X32367Y33570D01*
X32344Y33400D01*
X32367Y33230D01*
X32432Y33072D01*
X32536Y32936D01*
X32672Y32832D01*
X32830Y32767D01*
X33000Y32744D01*
X33170Y32767D01*
X33328Y32832D01*
X33464Y32936D01*
X33568Y33072D01*
X33633Y33230D01*
X33656Y33400D01*
X33633Y33570D01*
X33568Y33728D01*
X33558Y33741D01*
Y37300D01*
X34175Y37917D01*
X34292Y37869D01*
Y35206D01*
X34236Y35164D01*
X34132Y35028D01*
X34067Y34870D01*
X34044Y34700D01*
X34067Y34530D01*
X34132Y34372D01*
X34236Y34236D01*
X34372Y34132D01*
X34530Y34067D01*
X34700Y34044D01*
X34870Y34067D01*
X35028Y34132D01*
X35164Y34236D01*
X35268Y34372D01*
X35333Y34530D01*
X35356Y34700D01*
X35333Y34870D01*
X35268Y35028D01*
X35164Y35164D01*
X35108Y35206D01*
Y37758D01*
X35169Y37767D01*
X35328Y37832D01*
X35463Y37936D01*
X35568Y38072D01*
X35633Y38230D01*
X35655Y38400D01*
X35633Y38570D01*
X35568Y38728D01*
X35463Y38863D01*
X35371Y38934D01*
X35343Y39085D01*
X35889Y39631D01*
X36036Y39636D01*
X36172Y39532D01*
X36330Y39467D01*
X36500Y39444D01*
X36670Y39467D01*
X36828Y39532D01*
X36964Y39636D01*
X37068Y39772D01*
X37133Y39930D01*
X37156Y40100D01*
X37133Y40270D01*
X37068Y40428D01*
X36964Y40564D01*
X36828Y40668D01*
X36670Y40733D01*
X36500Y40756D01*
D02*
G37*
G36*
X6673Y40291D02*
X6564Y40269D01*
X6365Y40135D01*
X6231Y39936D01*
X6209Y39827D01*
X6673D01*
Y40291D01*
D02*
G37*
G36*
X26573Y40091D02*
X26464Y40069D01*
X26265Y39935D01*
X26131Y39736D01*
X26109Y39627D01*
X26573D01*
Y40091D01*
D02*
G37*
G36*
X26827D02*
Y39627D01*
X27291D01*
X27269Y39736D01*
X27135Y39935D01*
X26936Y40069D01*
X26827Y40091D01*
D02*
G37*
%LPD*%
D17*
X30820Y9700D02*
D03*
Y7160D02*
D03*
X28280Y9700D02*
D03*
Y7160D02*
D03*
X25740Y9700D02*
D03*
Y7160D02*
D03*
X23200Y9700D02*
D03*
Y7160D02*
D03*
X20660Y9700D02*
D03*
Y7160D02*
D03*
X18120Y9700D02*
D03*
X40700Y34560D02*
D03*
D30*
X15000Y10400D02*
Y39500D01*
Y10400D02*
X15600Y9800D01*
X2223Y24423D02*
X2300Y24500D01*
X2223Y20921D02*
Y24423D01*
Y20921D02*
X17184Y5960D01*
X27660D01*
X28280Y6580D01*
Y7160D01*
X39500Y45931D02*
X39750Y46181D01*
Y55750D01*
X39500Y38300D02*
X40700Y37100D01*
X39500Y38300D02*
Y45931D01*
D31*
X29000Y39900D02*
Y40100D01*
X38300Y8100D02*
X38700Y7700D01*
X34500Y8100D02*
X38300D01*
X29700Y12900D02*
X34500Y8100D01*
X17070Y10135D02*
X23200Y16265D01*
X38650Y32569D02*
X39300Y33219D01*
Y33300D01*
X38650Y31150D02*
Y32569D01*
X35571Y28071D02*
X38650Y31150D01*
X39200Y32200D02*
X39300Y32300D01*
X39200Y24700D02*
Y32200D01*
X37164Y32564D02*
X37200Y32600D01*
X35571Y26371D02*
Y28071D01*
X3000Y22700D02*
X3023Y22677D01*
X28275Y13300D02*
Y29425D01*
X27230Y9705D02*
Y12255D01*
X28275Y13300D01*
X25735Y8210D02*
X27230Y9705D01*
X24250Y8210D02*
X25735D01*
X23200Y7160D02*
X24250Y8210D01*
X22150Y8650D02*
Y10396D01*
X20660Y7160D02*
X22150Y8650D01*
X23850Y31050D02*
X24500Y31700D01*
X23850Y15430D02*
Y31050D01*
X18120Y9700D02*
X23850Y15430D01*
X17070Y8210D02*
X18120Y7160D01*
X17070Y8210D02*
Y10135D01*
X12500Y30200D02*
Y36300D01*
X34921Y28421D02*
X36000Y29500D01*
X20660Y9700D02*
Y9776D01*
X45400Y28100D02*
Y35400D01*
X43800Y28000D02*
Y36000D01*
X37936Y26464D02*
X38000Y26400D01*
X44700Y32200D02*
X44750Y32150D01*
X7200Y32100D02*
X7377Y31923D01*
X44125Y36675D02*
X45400Y35400D01*
X44125Y36675D02*
Y39900D01*
X43600Y36200D02*
X43800Y36000D01*
X43600Y36200D02*
Y38975D01*
X43400Y39175D02*
X43600Y38975D01*
X34700Y34700D02*
Y38100D01*
X35000Y38400D01*
X27100Y37400D02*
X27150Y37350D01*
X25740Y9700D02*
X26054Y10014D01*
X20660Y9700D02*
X24250Y13290D01*
Y30250D01*
X22150Y10396D02*
X24650Y12896D01*
X23200Y9700D02*
X25050Y11550D01*
X26100Y19800D02*
Y20200D01*
X34921Y24279D02*
Y28421D01*
Y24279D02*
X35000Y24200D01*
Y16800D02*
X35100Y16700D01*
X35000Y16800D02*
Y24200D01*
X25050Y11550D02*
Y28850D01*
X25800Y29600D01*
X25450Y28150D02*
X26600Y29300D01*
X25450Y10618D02*
Y28150D01*
Y10618D02*
X26054Y10014D01*
X24250Y30250D02*
X24900Y30900D01*
X26600Y29300D02*
Y30100D01*
X24650Y29450D02*
X26700Y31500D01*
X24650Y12896D02*
Y29450D01*
X24500Y31700D02*
X25600D01*
X25700Y31800D01*
X23200Y16265D02*
Y30966D01*
X24634Y32400D01*
X24900D01*
X28600Y32800D02*
X29700Y31700D01*
Y12900D02*
Y31700D01*
X32000Y11200D02*
X37900D01*
X30124Y13076D02*
X32000Y11200D01*
X30124Y13076D02*
Y33076D01*
X29800Y33400D02*
X30124Y33076D01*
X35781Y40100D02*
X36500D01*
X32500Y34500D02*
Y36600D01*
X33150Y37469D02*
X35781Y40100D01*
X33000Y33400D02*
X33150Y33550D01*
Y37469D01*
X29000Y40100D02*
X32500Y36600D01*
D32*
X37275Y47725D02*
X37300Y47700D01*
X35300D02*
X35325Y47725D01*
X32700Y47700D02*
X32725Y47725D01*
X30700Y53800D02*
X30700Y53800D01*
D33*
X49500Y51950D02*
D03*
Y44950D02*
D03*
D34*
X46800Y50950D02*
D03*
Y45950D02*
D03*
D35*
X18120Y7160D02*
D03*
D36*
X4505Y31313D02*
D03*
D37*
X5775D02*
D03*
X4505Y30043D02*
D03*
X5775D02*
D03*
X4505Y28773D02*
D03*
X5775D02*
D03*
X4505Y27503D02*
D03*
X5775D02*
D03*
X4505Y26233D02*
D03*
X5775D02*
D03*
D38*
X40700Y37100D02*
D03*
D39*
X35300Y55400D02*
D03*
X15000Y39500D02*
D03*
X15600Y9800D02*
D03*
X13700Y27600D02*
D03*
X18800Y48600D02*
D03*
X29000Y40100D02*
D03*
X26700Y39500D02*
D03*
X35000Y38400D02*
D03*
X36500Y40100D02*
D03*
X38700Y7700D02*
D03*
X37900Y11200D02*
D03*
X40300Y45600D02*
D03*
X39300Y33300D02*
D03*
Y32300D02*
D03*
X38500Y35300D02*
D03*
X37164Y32564D02*
D03*
X2300Y24500D02*
D03*
X3023Y22677D02*
D03*
X12500Y36300D02*
D03*
Y30200D02*
D03*
X35100Y16700D02*
D03*
X21800D02*
D03*
X36000Y29500D02*
D03*
X45400Y28100D02*
D03*
X43800Y28000D02*
D03*
X35571Y26371D02*
D03*
X39200Y24700D02*
D03*
X37936Y26464D02*
D03*
X41200Y30700D02*
D03*
X44750Y32150D02*
D03*
X48300Y36800D02*
D03*
X42700Y26200D02*
D03*
X47300Y27700D02*
D03*
X38500Y5900D02*
D03*
X38400Y12800D02*
D03*
X3500Y42300D02*
D03*
X17500Y44100D02*
D03*
X7100Y17400D02*
D03*
Y20500D02*
D03*
X9100Y22600D02*
D03*
X44300Y20600D02*
D03*
X7377Y31923D02*
D03*
X34600Y44600D02*
D03*
X37275Y47725D02*
D03*
X35325D02*
D03*
X32725D02*
D03*
X30700Y53800D02*
D03*
X6800Y39700D02*
D03*
X44125Y39900D02*
D03*
X43400Y39175D02*
D03*
X34700Y34700D02*
D03*
X39750Y55750D02*
D03*
X27150Y37350D02*
D03*
X20800Y37000D02*
D03*
X26100Y19800D02*
D03*
X35000Y24200D02*
D03*
X33400Y24900D02*
D03*
X16100Y27800D02*
D03*
Y29200D02*
D03*
X21800Y20300D02*
D03*
X33700Y31700D02*
D03*
X25800Y29600D02*
D03*
X28275Y29425D02*
D03*
X24900Y30900D02*
D03*
X26600Y30100D02*
D03*
X26700Y31500D02*
D03*
X25700Y31800D02*
D03*
X24900Y32400D02*
D03*
X28600Y32800D02*
D03*
X29800Y33400D02*
D03*
X33000D02*
D03*
X32500Y34500D02*
D03*
M02*
