G04 Layer_Color=2752767*
%FSLAX43Y43*%
%MOMM*%
G71*
G01*
G75*
%ADD32C,0.254*%
%ADD75C,0.381*%
%ADD78C,0.051*%
%ADD79C,0.406*%
%ADD80C,0.356*%
D32*
X-837Y94415D02*
G03*
X-837Y94415I-847J0D01*
G01*
X-2531Y97801D02*
X-2107D01*
X-2531D02*
Y98648D01*
X-2107D01*
Y99071D01*
X-1261D01*
Y98648D02*
Y99071D01*
Y98648D02*
X-837D01*
Y97801D02*
Y98648D01*
X-1261Y97801D02*
X-837D01*
X-1261Y97378D02*
Y97801D01*
X-2107Y97378D02*
X-1261D01*
X-2107D02*
Y97801D01*
X-2531Y89758D02*
Y90181D01*
X-2107Y90605D01*
X-2531Y91028D02*
X-2107Y90605D01*
X-2531Y91028D02*
Y91451D01*
X-2107D01*
X-1684Y91028D01*
X-1261Y91451D01*
X-837D01*
Y91028D02*
Y91451D01*
X-1261Y90605D02*
X-837Y91028D01*
X-1261Y90605D02*
X-837Y90181D01*
Y89758D02*
Y90181D01*
X-1261Y89758D02*
X-837D01*
X-1684Y90181D02*
X-1261Y89758D01*
X-2107D02*
X-1684Y90181D01*
X-2531Y89758D02*
X-2107D01*
X-1684Y85948D02*
X-837Y87641D01*
X-2531D02*
X-837D01*
X-2531D02*
X-1684Y85948D01*
X-2107Y82561D02*
X-1684Y82138D01*
X-2531Y82561D02*
X-2107D01*
X-2531D02*
X-2107Y82985D01*
X-2531Y83408D02*
X-2107Y82985D01*
X-2531Y83408D02*
X-2107D01*
X-1684Y83831D01*
X-1261Y83408D01*
X-837D01*
X-1261Y82985D02*
X-837Y83408D01*
X-1261Y82985D02*
X-837Y82561D01*
X-1261D02*
X-837D01*
X-1684Y82138D02*
X-1261Y82561D01*
X-2531Y78328D02*
X-1684Y78751D01*
X-837Y78328D01*
X-1261Y79175D02*
X-837Y78328D01*
X-1261Y79175D02*
X-837Y80021D01*
X-1684Y79598D02*
X-837Y80021D01*
X-2531D02*
X-1684Y79598D01*
X-2531Y80021D02*
X-2107Y79175D01*
X-2531Y78328D02*
X-2107Y79175D01*
X276390Y98648D02*
X276644Y98902D01*
X277152D01*
X277406Y98648D01*
Y97632D01*
X277152Y97378D01*
X276644D01*
X276390Y97632D01*
Y98648D01*
X278167Y97124D02*
X278421Y97378D01*
Y97632D01*
X278167D01*
Y97378D01*
X278421D01*
X278167Y97124D01*
X277913Y96870D01*
X280453Y98902D02*
X279945Y98648D01*
X279437Y98140D01*
Y97632D01*
X279691Y97378D01*
X280199D01*
X280453Y97632D01*
Y97886D01*
X280199Y98140D01*
X279437D01*
X281976Y98902D02*
X280960D01*
Y98140D01*
X281468Y98394D01*
X281722D01*
X281976Y98140D01*
Y97632D01*
X281722Y97378D01*
X281214D01*
X280960Y97632D01*
X282484Y98648D02*
X282738Y98902D01*
X283246D01*
X283500Y98648D01*
Y97632D01*
X283246Y97378D01*
X282738D01*
X282484Y97632D01*
Y98648D01*
X284007Y97378D02*
Y98394D01*
X284261D01*
X284515Y98140D01*
Y97378D01*
Y98140D01*
X284769Y98394D01*
X285023Y98140D01*
Y97378D01*
X285531D02*
Y98394D01*
X285785D01*
X286039Y98140D01*
Y97378D01*
Y98140D01*
X286293Y98394D01*
X286547Y98140D01*
Y97378D01*
X289086D02*
X288578Y97886D01*
Y98394D01*
X289086Y98902D01*
X290863Y97378D02*
X289848D01*
X290863Y98394D01*
Y98648D01*
X290609Y98902D01*
X290102D01*
X289848Y98648D01*
X292387Y98902D02*
X291371D01*
Y98140D01*
X291879Y98394D01*
X292133D01*
X292387Y98140D01*
Y97632D01*
X292133Y97378D01*
X291625D01*
X291371Y97632D01*
X293148Y97124D02*
X293402Y97378D01*
Y97632D01*
X293148D01*
Y97378D01*
X293402D01*
X293148Y97124D01*
X292895Y96870D01*
X295434Y98902D02*
X294418D01*
Y98140D01*
X294926Y98394D01*
X295180D01*
X295434Y98140D01*
Y97632D01*
X295180Y97378D01*
X294672D01*
X294418Y97632D01*
X295942D02*
X296196Y97378D01*
X296703D01*
X296957Y97632D01*
Y98648D01*
X296703Y98902D01*
X296196D01*
X295942Y98648D01*
Y98394D01*
X296196Y98140D01*
X296957D01*
X297465Y97378D02*
Y98394D01*
X297719D01*
X297973Y98140D01*
Y97378D01*
Y98140D01*
X298227Y98394D01*
X298481Y98140D01*
Y97378D01*
X298989D02*
X299496D01*
X299243D01*
Y98394D01*
X298989D01*
X300258Y97378D02*
X300766D01*
X300512D01*
Y98902D01*
X300258D01*
X301528Y97378D02*
X302036Y97886D01*
Y98394D01*
X301528Y98902D01*
X276390Y94330D02*
X277406D01*
X276390Y90520D02*
X277406D01*
X276390Y86710D02*
X277406D01*
X276390Y82900D02*
X277406D01*
X276390Y79090D02*
X277406D01*
X248712Y97378D02*
X249220D01*
X248966D01*
Y98902D01*
X248712Y98648D01*
X250235Y97124D02*
X250489Y97378D01*
Y97632D01*
X250235D01*
Y97378D01*
X250489D01*
X250235Y97124D01*
X249982Y96870D01*
X251505Y98648D02*
X251759Y98902D01*
X252267D01*
X252521Y98648D01*
Y98394D01*
X252267Y98140D01*
X252013D01*
X252267D01*
X252521Y97886D01*
Y97632D01*
X252267Y97378D01*
X251759D01*
X251505Y97632D01*
X253029Y98648D02*
X253283Y98902D01*
X253790D01*
X254044Y98648D01*
Y97632D01*
X253790Y97378D01*
X253283D01*
X253029Y97632D01*
Y98648D01*
X254552D02*
X254806Y98902D01*
X255314D01*
X255568Y98648D01*
Y97632D01*
X255314Y97378D01*
X254806D01*
X254552Y97632D01*
Y98648D01*
X256076Y97378D02*
Y98394D01*
X256329D01*
X256583Y98140D01*
Y97378D01*
Y98140D01*
X256837Y98394D01*
X257091Y98140D01*
Y97378D01*
X257599D02*
Y98394D01*
X257853D01*
X258107Y98140D01*
Y97378D01*
Y98140D01*
X258361Y98394D01*
X258615Y98140D01*
Y97378D01*
X261154D02*
X260646Y97886D01*
Y98394D01*
X261154Y98902D01*
X262931D02*
X261916D01*
Y98140D01*
X262424Y98394D01*
X262677D01*
X262931Y98140D01*
Y97632D01*
X262677Y97378D01*
X262170D01*
X261916Y97632D01*
X263439Y97378D02*
X263947D01*
X263693D01*
Y98902D01*
X263439Y98648D01*
X264963Y97124D02*
X265217Y97378D01*
Y97632D01*
X264963D01*
Y97378D01*
X265217D01*
X264963Y97124D01*
X264709Y96870D01*
X266232Y97378D02*
X266740D01*
X266486D01*
Y98902D01*
X266232Y98648D01*
X267502D02*
X267756Y98902D01*
X268264D01*
X268518Y98648D01*
Y98394D01*
X268264Y98140D01*
X268518Y97886D01*
Y97632D01*
X268264Y97378D01*
X267756D01*
X267502Y97632D01*
Y97886D01*
X267756Y98140D01*
X267502Y98394D01*
Y98648D01*
X267756Y98140D02*
X268264D01*
X269025Y97378D02*
Y98394D01*
X269279D01*
X269533Y98140D01*
Y97378D01*
Y98140D01*
X269787Y98394D01*
X270041Y98140D01*
Y97378D01*
X270549D02*
X271057D01*
X270803D01*
Y98394D01*
X270549D01*
X271819Y97378D02*
X272326D01*
X272072D01*
Y98902D01*
X271819D01*
X273088Y97378D02*
X273596Y97886D01*
Y98394D01*
X273088Y98902D01*
X248712Y94330D02*
X249728D01*
X248712Y90520D02*
X249728D01*
X248712Y86710D02*
X249728D01*
X248712Y82900D02*
X249728D01*
X248712Y79090D02*
X249728D01*
X140336Y97378D02*
Y98902D01*
X141098D01*
X141352Y98648D01*
Y98140D01*
X141098Y97886D01*
X140336D01*
X140844D02*
X141352Y97378D01*
X142113D02*
X142621D01*
X142875Y97632D01*
Y98140D01*
X142621Y98394D01*
X142113D01*
X141859Y98140D01*
Y97632D01*
X142113Y97378D01*
X143383Y98394D02*
Y97632D01*
X143637Y97378D01*
X144399D01*
Y98394D01*
X144906Y97378D02*
Y98394D01*
X145668D01*
X145922Y98140D01*
Y97378D01*
X147446Y98902D02*
Y97378D01*
X146684D01*
X146430Y97632D01*
Y98140D01*
X146684Y98394D01*
X147446D01*
X148715Y97378D02*
X148207D01*
X147953Y97632D01*
Y98140D01*
X148207Y98394D01*
X148715D01*
X148969Y98140D01*
Y97886D01*
X147953D01*
X150493Y98902D02*
Y97378D01*
X149731D01*
X149477Y97632D01*
Y98140D01*
X149731Y98394D01*
X150493D01*
X140336Y93568D02*
Y95092D01*
X141098D01*
X141352Y94838D01*
Y94330D01*
X141098Y94076D01*
X140336D01*
X140844D02*
X141352Y93568D01*
X142113D02*
X142621D01*
X142875Y93822D01*
Y94330D01*
X142621Y94584D01*
X142113D01*
X141859Y94330D01*
Y93822D01*
X142113Y93568D01*
X143383Y94584D02*
Y93822D01*
X143637Y93568D01*
X144399D01*
Y94584D01*
X144906Y93568D02*
Y94584D01*
X145668D01*
X145922Y94330D01*
Y93568D01*
X147446Y95092D02*
Y93568D01*
X146684D01*
X146430Y93822D01*
Y94330D01*
X146684Y94584D01*
X147446D01*
X148715Y93568D02*
X148207D01*
X147953Y93822D01*
Y94330D01*
X148207Y94584D01*
X148715D01*
X148969Y94330D01*
Y94076D01*
X147953D01*
X150493Y95092D02*
Y93568D01*
X149731D01*
X149477Y93822D01*
Y94330D01*
X149731Y94584D01*
X150493D01*
X140336Y89758D02*
Y91282D01*
X141098D01*
X141352Y91028D01*
Y90520D01*
X141098Y90266D01*
X140336D01*
X140844D02*
X141352Y89758D01*
X142621D02*
X142113D01*
X141859Y90012D01*
Y90520D01*
X142113Y90774D01*
X142621D01*
X142875Y90520D01*
Y90266D01*
X141859D01*
X144399Y90774D02*
X143637D01*
X143383Y90520D01*
Y90012D01*
X143637Y89758D01*
X144399D01*
X145160Y91028D02*
Y90774D01*
X144906D01*
X145414D01*
X145160D01*
Y90012D01*
X145414Y89758D01*
X146430Y90774D02*
X146938D01*
X147192Y90520D01*
Y89758D01*
X146430D01*
X146176Y90012D01*
X146430Y90266D01*
X147192D01*
X147699Y89758D02*
Y90774D01*
X148461D01*
X148715Y90520D01*
Y89758D01*
X149731Y89250D02*
X149985D01*
X150239Y89504D01*
Y90774D01*
X149477D01*
X149223Y90520D01*
Y90012D01*
X149477Y89758D01*
X150239D01*
X150746D02*
X151254D01*
X151000D01*
Y91282D01*
X150746D01*
X152778Y89758D02*
X152270D01*
X152016Y90012D01*
Y90520D01*
X152270Y90774D01*
X152778D01*
X153032Y90520D01*
Y90266D01*
X152016D01*
X140844Y85948D02*
X140336Y86456D01*
Y86964D01*
X140844Y87472D01*
X141605Y85948D02*
Y87472D01*
X142113Y86964D01*
X142621Y87472D01*
Y85948D01*
X143129D02*
X143637D01*
X143383D01*
Y86964D01*
X143129D01*
X144399D02*
X145414Y85948D01*
X144906Y86456D01*
X145414Y86964D01*
X144399Y85948D01*
X146684D02*
X146176D01*
X145922Y86202D01*
Y86710D01*
X146176Y86964D01*
X146684D01*
X146938Y86710D01*
Y86456D01*
X145922D01*
X148461Y87472D02*
Y85948D01*
X147699D01*
X147446Y86202D01*
Y86710D01*
X147699Y86964D01*
X148461D01*
X148969Y85948D02*
X149477Y86456D01*
Y86964D01*
X148969Y87472D01*
X140844Y82138D02*
X140336Y82646D01*
Y83154D01*
X140844Y83662D01*
X141605Y82138D02*
Y83662D01*
X142113Y83154D01*
X142621Y83662D01*
Y82138D01*
X143129D02*
X143637D01*
X143383D01*
Y83154D01*
X143129D01*
X144399D02*
X145414Y82138D01*
X144906Y82646D01*
X145414Y83154D01*
X144399Y82138D01*
X146684D02*
X146176D01*
X145922Y82392D01*
Y82900D01*
X146176Y83154D01*
X146684D01*
X146938Y82900D01*
Y82646D01*
X145922D01*
X148461Y83662D02*
Y82138D01*
X147699D01*
X147446Y82392D01*
Y82900D01*
X147699Y83154D01*
X148461D01*
X148969Y82138D02*
X149477Y82646D01*
Y83154D01*
X148969Y83662D01*
X140336Y78328D02*
Y79852D01*
X141098D01*
X141352Y79598D01*
Y79090D01*
X141098Y78836D01*
X140336D01*
X140844D02*
X141352Y78328D01*
X142113D02*
X142621D01*
X142875Y78582D01*
Y79090D01*
X142621Y79344D01*
X142113D01*
X141859Y79090D01*
Y78582D01*
X142113Y78328D01*
X143383Y79344D02*
Y78582D01*
X143637Y78328D01*
X144399D01*
Y79344D01*
X144906Y78328D02*
Y79344D01*
X145668D01*
X145922Y79090D01*
Y78328D01*
X147446Y79852D02*
Y78328D01*
X146684D01*
X146430Y78582D01*
Y79090D01*
X146684Y79344D01*
X147446D01*
X148715Y78328D02*
X148207D01*
X147953Y78582D01*
Y79090D01*
X148207Y79344D01*
X148715D01*
X148969Y79090D01*
Y78836D01*
X147953D01*
X150493Y79852D02*
Y78328D01*
X149731D01*
X149477Y78582D01*
Y79090D01*
X149731Y79344D01*
X150493D01*
X125354Y97378D02*
Y98902D01*
X126115D01*
X126369Y98648D01*
Y98140D01*
X126115Y97886D01*
X125354D01*
X127131Y98394D02*
X127639D01*
X127893Y98140D01*
Y97378D01*
X127131D01*
X126877Y97632D01*
X127131Y97886D01*
X127893D01*
X129416Y98902D02*
Y97378D01*
X128655D01*
X128401Y97632D01*
Y98140D01*
X128655Y98394D01*
X129416D01*
X125354Y93568D02*
Y95092D01*
X126115D01*
X126369Y94838D01*
Y94330D01*
X126115Y94076D01*
X125354D01*
X127131Y94584D02*
X127639D01*
X127893Y94330D01*
Y93568D01*
X127131D01*
X126877Y93822D01*
X127131Y94076D01*
X127893D01*
X129416Y95092D02*
Y93568D01*
X128655D01*
X128401Y93822D01*
Y94330D01*
X128655Y94584D01*
X129416D01*
X125354Y89758D02*
Y91282D01*
X126115D01*
X126369Y91028D01*
Y90520D01*
X126115Y90266D01*
X125354D01*
X127131Y90774D02*
X127639D01*
X127893Y90520D01*
Y89758D01*
X127131D01*
X126877Y90012D01*
X127131Y90266D01*
X127893D01*
X129416Y91282D02*
Y89758D01*
X128655D01*
X128401Y90012D01*
Y90520D01*
X128655Y90774D01*
X129416D01*
X125354Y85948D02*
Y87472D01*
X126115D01*
X126369Y87218D01*
Y86710D01*
X126115Y86456D01*
X125354D01*
X127131Y86964D02*
X127639D01*
X127893Y86710D01*
Y85948D01*
X127131D01*
X126877Y86202D01*
X127131Y86456D01*
X127893D01*
X129416Y87472D02*
Y85948D01*
X128655D01*
X128401Y86202D01*
Y86710D01*
X128655Y86964D01*
X129416D01*
X125354Y82138D02*
Y83662D01*
X126115D01*
X126369Y83408D01*
Y82900D01*
X126115Y82646D01*
X125354D01*
X127131Y83154D02*
X127639D01*
X127893Y82900D01*
Y82138D01*
X127131D01*
X126877Y82392D01*
X127131Y82646D01*
X127893D01*
X129416Y83662D02*
Y82138D01*
X128655D01*
X128401Y82392D01*
Y82900D01*
X128655Y83154D01*
X129416D01*
X125354Y79852D02*
Y78836D01*
X125862Y78328D01*
X126369Y78836D01*
Y79852D01*
X126877Y78328D02*
X127385D01*
X127131D01*
Y79344D01*
X126877D01*
X128401D02*
X128909D01*
X129162Y79090D01*
Y78328D01*
X128401D01*
X128147Y78582D01*
X128401Y78836D01*
X129162D01*
X87265Y98902D02*
X88281D01*
X87773D01*
Y97378D01*
X89043D02*
X89550D01*
X89804Y97632D01*
Y98140D01*
X89550Y98394D01*
X89043D01*
X88789Y98140D01*
Y97632D01*
X89043Y97378D01*
X90312Y96870D02*
Y98394D01*
X91074D01*
X91328Y98140D01*
Y97632D01*
X91074Y97378D01*
X90312D01*
X93359Y98902D02*
Y97378D01*
X94375D01*
X95137Y98394D02*
X95644D01*
X95898Y98140D01*
Y97378D01*
X95137D01*
X94883Y97632D01*
X95137Y97886D01*
X95898D01*
X96406Y98394D02*
Y97632D01*
X96660Y97378D01*
X97422D01*
Y97124D01*
X97168Y96870D01*
X96914D01*
X97422Y97378D02*
Y98394D01*
X98691Y97378D02*
X98184D01*
X97930Y97632D01*
Y98140D01*
X98184Y98394D01*
X98691D01*
X98945Y98140D01*
Y97886D01*
X97930D01*
X99453Y98394D02*
Y97378D01*
Y97886D01*
X99707Y98140D01*
X99961Y98394D01*
X100215D01*
X102500Y98140D02*
X103516D01*
X105547Y98902D02*
Y97378D01*
X106309D01*
X106563Y97632D01*
Y97886D01*
X106309Y98140D01*
X105547D01*
X106309D01*
X106563Y98394D01*
Y98648D01*
X106309Y98902D01*
X105547D01*
X107325Y97378D02*
X107832D01*
X108086Y97632D01*
Y98140D01*
X107832Y98394D01*
X107325D01*
X107071Y98140D01*
Y97632D01*
X107325Y97378D01*
X108848Y98648D02*
Y98394D01*
X108594D01*
X109102D01*
X108848D01*
Y97632D01*
X109102Y97378D01*
X110118Y98648D02*
Y98394D01*
X109864D01*
X110372D01*
X110118D01*
Y97632D01*
X110372Y97378D01*
X111387D02*
X111895D01*
X112149Y97632D01*
Y98140D01*
X111895Y98394D01*
X111387D01*
X111133Y98140D01*
Y97632D01*
X111387Y97378D01*
X112657D02*
Y98394D01*
X112911D01*
X113165Y98140D01*
Y97378D01*
Y98140D01*
X113419Y98394D01*
X113673Y98140D01*
Y97378D01*
X115704Y98902D02*
Y97378D01*
X116720D01*
X117481Y98394D02*
X117989D01*
X118243Y98140D01*
Y97378D01*
X117481D01*
X117227Y97632D01*
X117481Y97886D01*
X118243D01*
X118751Y98394D02*
Y97632D01*
X119005Y97378D01*
X119767D01*
Y97124D01*
X119513Y96870D01*
X119259D01*
X119767Y97378D02*
Y98394D01*
X121036Y97378D02*
X120528D01*
X120274Y97632D01*
Y98140D01*
X120528Y98394D01*
X121036D01*
X121290Y98140D01*
Y97886D01*
X120274D01*
X121798Y98394D02*
Y97378D01*
Y97886D01*
X122052Y98140D01*
X122306Y98394D01*
X122560D01*
X87265Y95092D02*
X88281D01*
X87773D01*
Y93568D01*
X89043D02*
X89550D01*
X89804Y93822D01*
Y94330D01*
X89550Y94584D01*
X89043D01*
X88789Y94330D01*
Y93822D01*
X89043Y93568D01*
X90312Y93060D02*
Y94584D01*
X91074D01*
X91328Y94330D01*
Y93822D01*
X91074Y93568D01*
X90312D01*
X93359Y95092D02*
Y93568D01*
X94375D01*
X95137Y94584D02*
X95644D01*
X95898Y94330D01*
Y93568D01*
X95137D01*
X94883Y93822D01*
X95137Y94076D01*
X95898D01*
X96406Y94584D02*
Y93822D01*
X96660Y93568D01*
X97422D01*
Y93314D01*
X97168Y93060D01*
X96914D01*
X97422Y93568D02*
Y94584D01*
X98691Y93568D02*
X98184D01*
X97930Y93822D01*
Y94330D01*
X98184Y94584D01*
X98691D01*
X98945Y94330D01*
Y94076D01*
X97930D01*
X99453Y94584D02*
Y93568D01*
Y94076D01*
X99707Y94330D01*
X99961Y94584D01*
X100215D01*
X102500Y94330D02*
X103516D01*
X105547Y95092D02*
Y93568D01*
X106309D01*
X106563Y93822D01*
Y94076D01*
X106309Y94330D01*
X105547D01*
X106309D01*
X106563Y94584D01*
Y94838D01*
X106309Y95092D01*
X105547D01*
X107325Y93568D02*
X107832D01*
X108086Y93822D01*
Y94330D01*
X107832Y94584D01*
X107325D01*
X107071Y94330D01*
Y93822D01*
X107325Y93568D01*
X108848Y94838D02*
Y94584D01*
X108594D01*
X109102D01*
X108848D01*
Y93822D01*
X109102Y93568D01*
X110118Y94838D02*
Y94584D01*
X109864D01*
X110372D01*
X110118D01*
Y93822D01*
X110372Y93568D01*
X111387D02*
X111895D01*
X112149Y93822D01*
Y94330D01*
X111895Y94584D01*
X111387D01*
X111133Y94330D01*
Y93822D01*
X111387Y93568D01*
X112657D02*
Y94584D01*
X112911D01*
X113165Y94330D01*
Y93568D01*
Y94330D01*
X113419Y94584D01*
X113673Y94330D01*
Y93568D01*
X115704Y95092D02*
Y93568D01*
X116720D01*
X117481Y94584D02*
X117989D01*
X118243Y94330D01*
Y93568D01*
X117481D01*
X117227Y93822D01*
X117481Y94076D01*
X118243D01*
X118751Y94584D02*
Y93822D01*
X119005Y93568D01*
X119767D01*
Y93314D01*
X119513Y93060D01*
X119259D01*
X119767Y93568D02*
Y94584D01*
X121036Y93568D02*
X120528D01*
X120274Y93822D01*
Y94330D01*
X120528Y94584D01*
X121036D01*
X121290Y94330D01*
Y94076D01*
X120274D01*
X121798Y94584D02*
Y93568D01*
Y94076D01*
X122052Y94330D01*
X122306Y94584D01*
X122560D01*
X87265Y91282D02*
X88281D01*
X87773D01*
Y89758D01*
X89043D02*
X89550D01*
X89804Y90012D01*
Y90520D01*
X89550Y90774D01*
X89043D01*
X88789Y90520D01*
Y90012D01*
X89043Y89758D01*
X90312Y89250D02*
Y90774D01*
X91074D01*
X91328Y90520D01*
Y90012D01*
X91074Y89758D01*
X90312D01*
X93359Y91282D02*
Y89758D01*
X94375D01*
X95137Y90774D02*
X95644D01*
X95898Y90520D01*
Y89758D01*
X95137D01*
X94883Y90012D01*
X95137Y90266D01*
X95898D01*
X96406Y90774D02*
Y90012D01*
X96660Y89758D01*
X97422D01*
Y89504D01*
X97168Y89250D01*
X96914D01*
X97422Y89758D02*
Y90774D01*
X98691Y89758D02*
X98184D01*
X97930Y90012D01*
Y90520D01*
X98184Y90774D01*
X98691D01*
X98945Y90520D01*
Y90266D01*
X97930D01*
X99453Y90774D02*
Y89758D01*
Y90266D01*
X99707Y90520D01*
X99961Y90774D01*
X100215D01*
X102500Y90520D02*
X103516D01*
X105547Y91282D02*
Y89758D01*
X106309D01*
X106563Y90012D01*
Y90266D01*
X106309Y90520D01*
X105547D01*
X106309D01*
X106563Y90774D01*
Y91028D01*
X106309Y91282D01*
X105547D01*
X107325Y89758D02*
X107832D01*
X108086Y90012D01*
Y90520D01*
X107832Y90774D01*
X107325D01*
X107071Y90520D01*
Y90012D01*
X107325Y89758D01*
X108848Y91028D02*
Y90774D01*
X108594D01*
X109102D01*
X108848D01*
Y90012D01*
X109102Y89758D01*
X110118Y91028D02*
Y90774D01*
X109864D01*
X110372D01*
X110118D01*
Y90012D01*
X110372Y89758D01*
X111387D02*
X111895D01*
X112149Y90012D01*
Y90520D01*
X111895Y90774D01*
X111387D01*
X111133Y90520D01*
Y90012D01*
X111387Y89758D01*
X112657D02*
Y90774D01*
X112911D01*
X113165Y90520D01*
Y89758D01*
Y90520D01*
X113419Y90774D01*
X113673Y90520D01*
Y89758D01*
X115704Y91282D02*
Y89758D01*
X116720D01*
X117481Y90774D02*
X117989D01*
X118243Y90520D01*
Y89758D01*
X117481D01*
X117227Y90012D01*
X117481Y90266D01*
X118243D01*
X118751Y90774D02*
Y90012D01*
X119005Y89758D01*
X119767D01*
Y89504D01*
X119513Y89250D01*
X119259D01*
X119767Y89758D02*
Y90774D01*
X121036Y89758D02*
X120528D01*
X120274Y90012D01*
Y90520D01*
X120528Y90774D01*
X121036D01*
X121290Y90520D01*
Y90266D01*
X120274D01*
X121798Y90774D02*
Y89758D01*
Y90266D01*
X122052Y90520D01*
X122306Y90774D01*
X122560D01*
X87265Y87472D02*
X88281D01*
X87773D01*
Y85948D01*
X89043D02*
X89550D01*
X89804Y86202D01*
Y86710D01*
X89550Y86964D01*
X89043D01*
X88789Y86710D01*
Y86202D01*
X89043Y85948D01*
X90312Y85440D02*
Y86964D01*
X91074D01*
X91328Y86710D01*
Y86202D01*
X91074Y85948D01*
X90312D01*
X93359Y87472D02*
Y85948D01*
X94375D01*
X95137Y86964D02*
X95644D01*
X95898Y86710D01*
Y85948D01*
X95137D01*
X94883Y86202D01*
X95137Y86456D01*
X95898D01*
X96406Y86964D02*
Y86202D01*
X96660Y85948D01*
X97422D01*
Y85694D01*
X97168Y85440D01*
X96914D01*
X97422Y85948D02*
Y86964D01*
X98691Y85948D02*
X98184D01*
X97930Y86202D01*
Y86710D01*
X98184Y86964D01*
X98691D01*
X98945Y86710D01*
Y86456D01*
X97930D01*
X99453Y86964D02*
Y85948D01*
Y86456D01*
X99707Y86710D01*
X99961Y86964D01*
X100215D01*
X102500Y86710D02*
X103516D01*
X105547Y87472D02*
Y85948D01*
X106309D01*
X106563Y86202D01*
Y86456D01*
X106309Y86710D01*
X105547D01*
X106309D01*
X106563Y86964D01*
Y87218D01*
X106309Y87472D01*
X105547D01*
X107325Y85948D02*
X107832D01*
X108086Y86202D01*
Y86710D01*
X107832Y86964D01*
X107325D01*
X107071Y86710D01*
Y86202D01*
X107325Y85948D01*
X108848Y87218D02*
Y86964D01*
X108594D01*
X109102D01*
X108848D01*
Y86202D01*
X109102Y85948D01*
X110118Y87218D02*
Y86964D01*
X109864D01*
X110372D01*
X110118D01*
Y86202D01*
X110372Y85948D01*
X111387D02*
X111895D01*
X112149Y86202D01*
Y86710D01*
X111895Y86964D01*
X111387D01*
X111133Y86710D01*
Y86202D01*
X111387Y85948D01*
X112657D02*
Y86964D01*
X112911D01*
X113165Y86710D01*
Y85948D01*
Y86710D01*
X113419Y86964D01*
X113673Y86710D01*
Y85948D01*
X115704Y87472D02*
Y85948D01*
X116720D01*
X117481Y86964D02*
X117989D01*
X118243Y86710D01*
Y85948D01*
X117481D01*
X117227Y86202D01*
X117481Y86456D01*
X118243D01*
X118751Y86964D02*
Y86202D01*
X119005Y85948D01*
X119767D01*
Y85694D01*
X119513Y85440D01*
X119259D01*
X119767Y85948D02*
Y86964D01*
X121036Y85948D02*
X120528D01*
X120274Y86202D01*
Y86710D01*
X120528Y86964D01*
X121036D01*
X121290Y86710D01*
Y86456D01*
X120274D01*
X121798Y86964D02*
Y85948D01*
Y86456D01*
X122052Y86710D01*
X122306Y86964D01*
X122560D01*
X87265Y83662D02*
X88281D01*
X87773D01*
Y82138D01*
X89043D02*
X89550D01*
X89804Y82392D01*
Y82900D01*
X89550Y83154D01*
X89043D01*
X88789Y82900D01*
Y82392D01*
X89043Y82138D01*
X90312Y81630D02*
Y83154D01*
X91074D01*
X91328Y82900D01*
Y82392D01*
X91074Y82138D01*
X90312D01*
X93359Y83662D02*
Y82138D01*
X94375D01*
X95137Y83154D02*
X95644D01*
X95898Y82900D01*
Y82138D01*
X95137D01*
X94883Y82392D01*
X95137Y82646D01*
X95898D01*
X96406Y83154D02*
Y82392D01*
X96660Y82138D01*
X97422D01*
Y81884D01*
X97168Y81630D01*
X96914D01*
X97422Y82138D02*
Y83154D01*
X98691Y82138D02*
X98184D01*
X97930Y82392D01*
Y82900D01*
X98184Y83154D01*
X98691D01*
X98945Y82900D01*
Y82646D01*
X97930D01*
X99453Y83154D02*
Y82138D01*
Y82646D01*
X99707Y82900D01*
X99961Y83154D01*
X100215D01*
X102500Y82900D02*
X103516D01*
X105547Y83662D02*
Y82138D01*
X106309D01*
X106563Y82392D01*
Y82646D01*
X106309Y82900D01*
X105547D01*
X106309D01*
X106563Y83154D01*
Y83408D01*
X106309Y83662D01*
X105547D01*
X107325Y82138D02*
X107832D01*
X108086Y82392D01*
Y82900D01*
X107832Y83154D01*
X107325D01*
X107071Y82900D01*
Y82392D01*
X107325Y82138D01*
X108848Y83408D02*
Y83154D01*
X108594D01*
X109102D01*
X108848D01*
Y82392D01*
X109102Y82138D01*
X110118Y83408D02*
Y83154D01*
X109864D01*
X110372D01*
X110118D01*
Y82392D01*
X110372Y82138D01*
X111387D02*
X111895D01*
X112149Y82392D01*
Y82900D01*
X111895Y83154D01*
X111387D01*
X111133Y82900D01*
Y82392D01*
X111387Y82138D01*
X112657D02*
Y83154D01*
X112911D01*
X113165Y82900D01*
Y82138D01*
Y82900D01*
X113419Y83154D01*
X113673Y82900D01*
Y82138D01*
X115704Y83662D02*
Y82138D01*
X116720D01*
X117481Y83154D02*
X117989D01*
X118243Y82900D01*
Y82138D01*
X117481D01*
X117227Y82392D01*
X117481Y82646D01*
X118243D01*
X118751Y83154D02*
Y82392D01*
X119005Y82138D01*
X119767D01*
Y81884D01*
X119513Y81630D01*
X119259D01*
X119767Y82138D02*
Y83154D01*
X121036Y82138D02*
X120528D01*
X120274Y82392D01*
Y82900D01*
X120528Y83154D01*
X121036D01*
X121290Y82900D01*
Y82646D01*
X120274D01*
X121798Y83154D02*
Y82138D01*
Y82646D01*
X122052Y82900D01*
X122306Y83154D01*
X122560D01*
X87265Y79852D02*
X88281D01*
X87773D01*
Y78328D01*
X89043D02*
X89550D01*
X89804Y78582D01*
Y79090D01*
X89550Y79344D01*
X89043D01*
X88789Y79090D01*
Y78582D01*
X89043Y78328D01*
X90312Y77820D02*
Y79344D01*
X91074D01*
X91328Y79090D01*
Y78582D01*
X91074Y78328D01*
X90312D01*
X93359Y79852D02*
Y78328D01*
X94375D01*
X95137Y79344D02*
X95644D01*
X95898Y79090D01*
Y78328D01*
X95137D01*
X94883Y78582D01*
X95137Y78836D01*
X95898D01*
X96406Y79344D02*
Y78582D01*
X96660Y78328D01*
X97422D01*
Y78074D01*
X97168Y77820D01*
X96914D01*
X97422Y78328D02*
Y79344D01*
X98691Y78328D02*
X98184D01*
X97930Y78582D01*
Y79090D01*
X98184Y79344D01*
X98691D01*
X98945Y79090D01*
Y78836D01*
X97930D01*
X99453Y79344D02*
Y78328D01*
Y78836D01*
X99707Y79090D01*
X99961Y79344D01*
X100215D01*
X102500Y79090D02*
X103516D01*
X105547Y79852D02*
Y78328D01*
X106309D01*
X106563Y78582D01*
Y78836D01*
X106309Y79090D01*
X105547D01*
X106309D01*
X106563Y79344D01*
Y79598D01*
X106309Y79852D01*
X105547D01*
X107325Y78328D02*
X107832D01*
X108086Y78582D01*
Y79090D01*
X107832Y79344D01*
X107325D01*
X107071Y79090D01*
Y78582D01*
X107325Y78328D01*
X108848Y79598D02*
Y79344D01*
X108594D01*
X109102D01*
X108848D01*
Y78582D01*
X109102Y78328D01*
X110118Y79598D02*
Y79344D01*
X109864D01*
X110372D01*
X110118D01*
Y78582D01*
X110372Y78328D01*
X111387D02*
X111895D01*
X112149Y78582D01*
Y79090D01*
X111895Y79344D01*
X111387D01*
X111133Y79090D01*
Y78582D01*
X111387Y78328D01*
X112657D02*
Y79344D01*
X112911D01*
X113165Y79090D01*
Y78328D01*
Y79090D01*
X113419Y79344D01*
X113673Y79090D01*
Y78328D01*
X115704Y79852D02*
Y78328D01*
X116720D01*
X117481Y79344D02*
X117989D01*
X118243Y79090D01*
Y78328D01*
X117481D01*
X117227Y78582D01*
X117481Y78836D01*
X118243D01*
X118751Y79344D02*
Y78582D01*
X119005Y78328D01*
X119767D01*
Y78074D01*
X119513Y77820D01*
X119259D01*
X119767Y78328D02*
Y79344D01*
X121036Y78328D02*
X120528D01*
X120274Y78582D01*
Y79090D01*
X120528Y79344D01*
X121036D01*
X121290Y79090D01*
Y78836D01*
X120274D01*
X121798Y79344D02*
Y78328D01*
Y78836D01*
X122052Y79090D01*
X122306Y79344D01*
X122560D01*
X69642Y98648D02*
X69388Y98902D01*
X68880D01*
X68627Y98648D01*
Y98394D01*
X68880Y98140D01*
X69388D01*
X69642Y97886D01*
Y97632D01*
X69388Y97378D01*
X68880D01*
X68627Y97632D01*
X70150Y97378D02*
X70658D01*
X70404D01*
Y98902D01*
X70150D01*
X71674Y97378D02*
X72181D01*
X72435Y97632D01*
Y98140D01*
X72181Y98394D01*
X71674D01*
X71420Y98140D01*
Y97632D01*
X71674Y97378D01*
X73197Y98648D02*
Y98394D01*
X72943D01*
X73451D01*
X73197D01*
Y97632D01*
X73451Y97378D01*
X68627Y93568D02*
Y95092D01*
X69388D01*
X69642Y94838D01*
Y94330D01*
X69388Y94076D01*
X68627D01*
X69134D02*
X69642Y93568D01*
X70404D02*
X70912D01*
X71166Y93822D01*
Y94330D01*
X70912Y94584D01*
X70404D01*
X70150Y94330D01*
Y93822D01*
X70404Y93568D01*
X71674Y94584D02*
Y93822D01*
X71927Y93568D01*
X72689D01*
Y94584D01*
X73197Y93568D02*
Y94584D01*
X73959D01*
X74213Y94330D01*
Y93568D01*
X75736Y95092D02*
Y93568D01*
X74974D01*
X74721Y93822D01*
Y94330D01*
X74974Y94584D01*
X75736D01*
X68627Y89758D02*
Y91282D01*
X69388D01*
X69642Y91028D01*
Y90520D01*
X69388Y90266D01*
X68627D01*
X69134D02*
X69642Y89758D01*
X70404D02*
X70912D01*
X71166Y90012D01*
Y90520D01*
X70912Y90774D01*
X70404D01*
X70150Y90520D01*
Y90012D01*
X70404Y89758D01*
X71674Y90774D02*
Y90012D01*
X71927Y89758D01*
X72689D01*
Y90774D01*
X73197Y89758D02*
Y90774D01*
X73959D01*
X74213Y90520D01*
Y89758D01*
X75736Y91282D02*
Y89758D01*
X74974D01*
X74721Y90012D01*
Y90520D01*
X74974Y90774D01*
X75736D01*
X68627Y85948D02*
Y87472D01*
X69388D01*
X69642Y87218D01*
Y86710D01*
X69388Y86456D01*
X68627D01*
X69134D02*
X69642Y85948D01*
X70404D02*
X70912D01*
X71166Y86202D01*
Y86710D01*
X70912Y86964D01*
X70404D01*
X70150Y86710D01*
Y86202D01*
X70404Y85948D01*
X71674Y86964D02*
Y86202D01*
X71927Y85948D01*
X72689D01*
Y86964D01*
X73197Y85948D02*
Y86964D01*
X73959D01*
X74213Y86710D01*
Y85948D01*
X75736Y87472D02*
Y85948D01*
X74974D01*
X74721Y86202D01*
Y86710D01*
X74974Y86964D01*
X75736D01*
X68627Y82138D02*
Y83662D01*
X69388D01*
X69642Y83408D01*
Y82900D01*
X69388Y82646D01*
X68627D01*
X69134D02*
X69642Y82138D01*
X70404D02*
X70912D01*
X71166Y82392D01*
Y82900D01*
X70912Y83154D01*
X70404D01*
X70150Y82900D01*
Y82392D01*
X70404Y82138D01*
X71674Y83154D02*
Y82392D01*
X71927Y82138D01*
X72689D01*
Y83154D01*
X73197Y82138D02*
Y83154D01*
X73959D01*
X74213Y82900D01*
Y82138D01*
X75736Y83662D02*
Y82138D01*
X74974D01*
X74721Y82392D01*
Y82900D01*
X74974Y83154D01*
X75736D01*
X68627Y78328D02*
Y79852D01*
X69388D01*
X69642Y79598D01*
Y79090D01*
X69388Y78836D01*
X68627D01*
X69134D02*
X69642Y78328D01*
X70404D02*
X70912D01*
X71166Y78582D01*
Y79090D01*
X70912Y79344D01*
X70404D01*
X70150Y79090D01*
Y78582D01*
X70404Y78328D01*
X71674Y79344D02*
Y78582D01*
X71927Y78328D01*
X72689D01*
Y79344D01*
X73197Y78328D02*
Y79344D01*
X73959D01*
X74213Y79090D01*
Y78328D01*
X75736Y79852D02*
Y78328D01*
X74974D01*
X74721Y78582D01*
Y79090D01*
X74974Y79344D01*
X75736D01*
X55777Y97378D02*
Y98902D01*
X56539D01*
X56793Y98648D01*
Y98140D01*
X56539Y97886D01*
X55777D01*
X57301Y98902D02*
X58316D01*
X57809D01*
Y97378D01*
X58824Y98902D02*
Y97378D01*
Y98140D01*
X59840D01*
Y98902D01*
Y97378D01*
X55777Y93568D02*
Y95092D01*
X56539D01*
X56793Y94838D01*
Y94330D01*
X56539Y94076D01*
X55777D01*
X57301Y95092D02*
X58316D01*
X57809D01*
Y93568D01*
X58824Y95092D02*
Y93568D01*
Y94330D01*
X59840D01*
Y95092D01*
Y93568D01*
X55777Y89758D02*
Y91282D01*
X56793Y89758D01*
Y91282D01*
X57301Y89758D02*
Y91282D01*
X58063D01*
X58316Y91028D01*
Y90520D01*
X58063Y90266D01*
X57301D01*
X58824Y91282D02*
X59840D01*
X59332D01*
Y89758D01*
X60348Y91282D02*
Y89758D01*
Y90520D01*
X61363D01*
Y91282D01*
Y89758D01*
X55777Y85948D02*
Y87472D01*
X56539D01*
X56793Y87218D01*
Y86710D01*
X56539Y86456D01*
X55777D01*
X57301Y87472D02*
X58316D01*
X57809D01*
Y85948D01*
X58824Y87472D02*
Y85948D01*
Y86710D01*
X59840D01*
Y87472D01*
Y85948D01*
X55777Y82138D02*
Y83662D01*
X56539D01*
X56793Y83408D01*
Y82900D01*
X56539Y82646D01*
X55777D01*
X57301Y83662D02*
X58316D01*
X57809D01*
Y82138D01*
X58824Y83662D02*
Y82138D01*
Y82900D01*
X59840D01*
Y83662D01*
Y82138D01*
X55777Y78328D02*
Y79852D01*
X56539D01*
X56793Y79598D01*
Y79090D01*
X56539Y78836D01*
X55777D01*
X57301Y79852D02*
X58316D01*
X57809D01*
Y78328D01*
X58824Y79852D02*
Y78328D01*
Y79090D01*
X59840D01*
Y79852D01*
Y78328D01*
X26068Y98648D02*
X26322Y98902D01*
X26830D01*
X27084Y98648D01*
Y97632D01*
X26830Y97378D01*
X26322D01*
X26068Y97632D01*
Y98648D01*
X27845Y97124D02*
X28099Y97378D01*
Y97632D01*
X27845D01*
Y97378D01*
X28099D01*
X27845Y97124D01*
X27592Y96870D01*
X30131Y98902D02*
X29623Y98648D01*
X29115Y98140D01*
Y97632D01*
X29369Y97378D01*
X29877D01*
X30131Y97632D01*
Y97886D01*
X29877Y98140D01*
X29115D01*
X31654Y98902D02*
X30639D01*
Y98140D01*
X31146Y98394D01*
X31400D01*
X31654Y98140D01*
Y97632D01*
X31400Y97378D01*
X30892D01*
X30639Y97632D01*
X32162Y98648D02*
X32416Y98902D01*
X32924D01*
X33178Y98648D01*
Y97632D01*
X32924Y97378D01*
X32416D01*
X32162Y97632D01*
Y98648D01*
X33686Y97378D02*
Y98394D01*
X33939D01*
X34193Y98140D01*
Y97378D01*
Y98140D01*
X34447Y98394D01*
X34701Y98140D01*
Y97378D01*
X35209D02*
Y98394D01*
X35463D01*
X35717Y98140D01*
Y97378D01*
Y98140D01*
X35971Y98394D01*
X36225Y98140D01*
Y97378D01*
X38764D02*
X38256Y97886D01*
Y98394D01*
X38764Y98902D01*
X40541Y97378D02*
X39526D01*
X40541Y98394D01*
Y98648D01*
X40287Y98902D01*
X39780D01*
X39526Y98648D01*
X42065Y98902D02*
X41049D01*
Y98140D01*
X41557Y98394D01*
X41811D01*
X42065Y98140D01*
Y97632D01*
X41811Y97378D01*
X41303D01*
X41049Y97632D01*
X42827Y97124D02*
X43081Y97378D01*
Y97632D01*
X42827D01*
Y97378D01*
X43081D01*
X42827Y97124D01*
X42573Y96870D01*
X45112Y98902D02*
X44096D01*
Y98140D01*
X44604Y98394D01*
X44858D01*
X45112Y98140D01*
Y97632D01*
X44858Y97378D01*
X44350D01*
X44096Y97632D01*
X45620D02*
X45874Y97378D01*
X46381D01*
X46635Y97632D01*
Y98648D01*
X46381Y98902D01*
X45874D01*
X45620Y98648D01*
Y98394D01*
X45874Y98140D01*
X46635D01*
X47143Y97378D02*
Y98394D01*
X47397D01*
X47651Y98140D01*
Y97378D01*
Y98140D01*
X47905Y98394D01*
X48159Y98140D01*
Y97378D01*
X48667D02*
X49175D01*
X48921D01*
Y98394D01*
X48667D01*
X49936Y97378D02*
X50444D01*
X50190D01*
Y98902D01*
X49936D01*
X51206Y97378D02*
X51714Y97886D01*
Y98394D01*
X51206Y98902D01*
X26068Y94838D02*
X26322Y95092D01*
X26830D01*
X27084Y94838D01*
Y93822D01*
X26830Y93568D01*
X26322D01*
X26068Y93822D01*
Y94838D01*
X27845Y93314D02*
X28099Y93568D01*
Y93822D01*
X27845D01*
Y93568D01*
X28099D01*
X27845Y93314D01*
X27592Y93060D01*
X29115Y94838D02*
X29369Y95092D01*
X29877D01*
X30131Y94838D01*
Y94584D01*
X29877Y94330D01*
X30131Y94076D01*
Y93822D01*
X29877Y93568D01*
X29369D01*
X29115Y93822D01*
Y94076D01*
X29369Y94330D01*
X29115Y94584D01*
Y94838D01*
X29369Y94330D02*
X29877D01*
X31654Y95092D02*
X30639D01*
Y94330D01*
X31146Y94584D01*
X31400D01*
X31654Y94330D01*
Y93822D01*
X31400Y93568D01*
X30892D01*
X30639Y93822D01*
X32162Y94838D02*
X32416Y95092D01*
X32924D01*
X33178Y94838D01*
Y93822D01*
X32924Y93568D01*
X32416D01*
X32162Y93822D01*
Y94838D01*
X33686Y93568D02*
Y94584D01*
X33939D01*
X34193Y94330D01*
Y93568D01*
Y94330D01*
X34447Y94584D01*
X34701Y94330D01*
Y93568D01*
X35209D02*
Y94584D01*
X35463D01*
X35717Y94330D01*
Y93568D01*
Y94330D01*
X35971Y94584D01*
X36225Y94330D01*
Y93568D01*
X38764D02*
X38256Y94076D01*
Y94584D01*
X38764Y95092D01*
X39526Y94838D02*
X39780Y95092D01*
X40287D01*
X40541Y94838D01*
Y94584D01*
X40287Y94330D01*
X40033D01*
X40287D01*
X40541Y94076D01*
Y93822D01*
X40287Y93568D01*
X39780D01*
X39526Y93822D01*
X41049Y94838D02*
X41303Y95092D01*
X41811D01*
X42065Y94838D01*
Y94584D01*
X41811Y94330D01*
X41557D01*
X41811D01*
X42065Y94076D01*
Y93822D01*
X41811Y93568D01*
X41303D01*
X41049Y93822D01*
X42827Y93314D02*
X43081Y93568D01*
Y93822D01*
X42827D01*
Y93568D01*
X43081D01*
X42827Y93314D01*
X42573Y93060D01*
X44858Y93568D02*
Y95092D01*
X44096Y94330D01*
X45112D01*
X45620Y95092D02*
X46635D01*
Y94838D01*
X45620Y93822D01*
Y93568D01*
X47143D02*
Y94584D01*
X47397D01*
X47651Y94330D01*
Y93568D01*
Y94330D01*
X47905Y94584D01*
X48159Y94330D01*
Y93568D01*
X48667D02*
X49175D01*
X48921D01*
Y94584D01*
X48667D01*
X49936Y93568D02*
X50444D01*
X50190D01*
Y95092D01*
X49936D01*
X51206Y93568D02*
X51714Y94076D01*
Y94584D01*
X51206Y95092D01*
X26068Y91028D02*
X26322Y91282D01*
X26830D01*
X27084Y91028D01*
Y90774D01*
X26830Y90520D01*
X26576D01*
X26830D01*
X27084Y90266D01*
Y90012D01*
X26830Y89758D01*
X26322D01*
X26068Y90012D01*
X27845Y89504D02*
X28099Y89758D01*
Y90012D01*
X27845D01*
Y89758D01*
X28099D01*
X27845Y89504D01*
X27592Y89250D01*
X30131Y91282D02*
X29115D01*
Y90520D01*
X29623Y90774D01*
X29877D01*
X30131Y90520D01*
Y90012D01*
X29877Y89758D01*
X29369D01*
X29115Y90012D01*
X30639Y91028D02*
X30892Y91282D01*
X31400D01*
X31654Y91028D01*
Y90012D01*
X31400Y89758D01*
X30892D01*
X30639Y90012D01*
Y91028D01*
X32162D02*
X32416Y91282D01*
X32924D01*
X33178Y91028D01*
Y90012D01*
X32924Y89758D01*
X32416D01*
X32162Y90012D01*
Y91028D01*
X33686Y89758D02*
Y90774D01*
X33939D01*
X34193Y90520D01*
Y89758D01*
Y90520D01*
X34447Y90774D01*
X34701Y90520D01*
Y89758D01*
X35209D02*
Y90774D01*
X35463D01*
X35717Y90520D01*
Y89758D01*
Y90520D01*
X35971Y90774D01*
X36225Y90520D01*
Y89758D01*
X38764D02*
X38256Y90266D01*
Y90774D01*
X38764Y91282D01*
X39526Y89758D02*
X40033D01*
X39780D01*
Y91282D01*
X39526Y91028D01*
X40795D02*
X41049Y91282D01*
X41557D01*
X41811Y91028D01*
Y90774D01*
X41557Y90520D01*
X41303D01*
X41557D01*
X41811Y90266D01*
Y90012D01*
X41557Y89758D01*
X41049D01*
X40795Y90012D01*
X42319Y91282D02*
X43334D01*
Y91028D01*
X42319Y90012D01*
Y89758D01*
X44096Y89504D02*
X44350Y89758D01*
Y90012D01*
X44096D01*
Y89758D01*
X44350D01*
X44096Y89504D01*
X43842Y89250D01*
X45366Y91028D02*
X45620Y91282D01*
X46128D01*
X46381Y91028D01*
Y90774D01*
X46128Y90520D01*
X46381Y90266D01*
Y90012D01*
X46128Y89758D01*
X45620D01*
X45366Y90012D01*
Y90266D01*
X45620Y90520D01*
X45366Y90774D01*
Y91028D01*
X45620Y90520D02*
X46128D01*
X46889Y91028D02*
X47143Y91282D01*
X47651D01*
X47905Y91028D01*
Y90012D01*
X47651Y89758D01*
X47143D01*
X46889Y90012D01*
Y91028D01*
X48413Y89758D02*
Y90774D01*
X48667D01*
X48921Y90520D01*
Y89758D01*
Y90520D01*
X49175Y90774D01*
X49428Y90520D01*
Y89758D01*
X49936D02*
X50444D01*
X50190D01*
Y90774D01*
X49936D01*
X51206Y89758D02*
X51714D01*
X51460D01*
Y91282D01*
X51206D01*
X52475Y89758D02*
X52983Y90266D01*
Y90774D01*
X52475Y91282D01*
X26068Y87218D02*
X26322Y87472D01*
X26830D01*
X27084Y87218D01*
Y86202D01*
X26830Y85948D01*
X26322D01*
X26068Y86202D01*
Y87218D01*
X27845Y85694D02*
X28099Y85948D01*
Y86202D01*
X27845D01*
Y85948D01*
X28099D01*
X27845Y85694D01*
X27592Y85440D01*
X30131Y87472D02*
X29623Y87218D01*
X29115Y86710D01*
Y86202D01*
X29369Y85948D01*
X29877D01*
X30131Y86202D01*
Y86456D01*
X29877Y86710D01*
X29115D01*
X30639Y87218D02*
X30892Y87472D01*
X31400D01*
X31654Y87218D01*
Y86202D01*
X31400Y85948D01*
X30892D01*
X30639Y86202D01*
Y87218D01*
X32162D02*
X32416Y87472D01*
X32924D01*
X33178Y87218D01*
Y86202D01*
X32924Y85948D01*
X32416D01*
X32162Y86202D01*
Y87218D01*
X33686Y85948D02*
Y86964D01*
X33939D01*
X34193Y86710D01*
Y85948D01*
Y86710D01*
X34447Y86964D01*
X34701Y86710D01*
Y85948D01*
X35209D02*
Y86964D01*
X35463D01*
X35717Y86710D01*
Y85948D01*
Y86710D01*
X35971Y86964D01*
X36225Y86710D01*
Y85948D01*
X38764D02*
X38256Y86456D01*
Y86964D01*
X38764Y87472D01*
X40541Y85948D02*
X39526D01*
X40541Y86964D01*
Y87218D01*
X40287Y87472D01*
X39780D01*
X39526Y87218D01*
X41049D02*
X41303Y87472D01*
X41811D01*
X42065Y87218D01*
Y86964D01*
X41811Y86710D01*
X41557D01*
X41811D01*
X42065Y86456D01*
Y86202D01*
X41811Y85948D01*
X41303D01*
X41049Y86202D01*
X42827Y85694D02*
X43081Y85948D01*
Y86202D01*
X42827D01*
Y85948D01*
X43081D01*
X42827Y85694D01*
X42573Y85440D01*
X45112Y87472D02*
X44604Y87218D01*
X44096Y86710D01*
Y86202D01*
X44350Y85948D01*
X44858D01*
X45112Y86202D01*
Y86456D01*
X44858Y86710D01*
X44096D01*
X46635Y85948D02*
X45620D01*
X46635Y86964D01*
Y87218D01*
X46381Y87472D01*
X45874D01*
X45620Y87218D01*
X47143Y85948D02*
Y86964D01*
X47397D01*
X47651Y86710D01*
Y85948D01*
Y86710D01*
X47905Y86964D01*
X48159Y86710D01*
Y85948D01*
X48667D02*
X49175D01*
X48921D01*
Y86964D01*
X48667D01*
X49936Y85948D02*
X50444D01*
X50190D01*
Y87472D01*
X49936D01*
X51206Y85948D02*
X51714Y86456D01*
Y86964D01*
X51206Y87472D01*
X26068Y83408D02*
X26322Y83662D01*
X26830D01*
X27084Y83408D01*
Y82392D01*
X26830Y82138D01*
X26322D01*
X26068Y82392D01*
Y83408D01*
X27845Y81884D02*
X28099Y82138D01*
Y82392D01*
X27845D01*
Y82138D01*
X28099D01*
X27845Y81884D01*
X27592Y81630D01*
X29115Y82392D02*
X29369Y82138D01*
X29877D01*
X30131Y82392D01*
Y83408D01*
X29877Y83662D01*
X29369D01*
X29115Y83408D01*
Y83154D01*
X29369Y82900D01*
X30131D01*
X30639Y83408D02*
X30892Y83662D01*
X31400D01*
X31654Y83408D01*
Y82392D01*
X31400Y82138D01*
X30892D01*
X30639Y82392D01*
Y83408D01*
X32162D02*
X32416Y83662D01*
X32924D01*
X33178Y83408D01*
Y82392D01*
X32924Y82138D01*
X32416D01*
X32162Y82392D01*
Y83408D01*
X33686Y82138D02*
Y83154D01*
X33939D01*
X34193Y82900D01*
Y82138D01*
Y82900D01*
X34447Y83154D01*
X34701Y82900D01*
Y82138D01*
X35209D02*
Y83154D01*
X35463D01*
X35717Y82900D01*
Y82138D01*
Y82900D01*
X35971Y83154D01*
X36225Y82900D01*
Y82138D01*
X38764D02*
X38256Y82646D01*
Y83154D01*
X38764Y83662D01*
X39526Y83408D02*
X39780Y83662D01*
X40287D01*
X40541Y83408D01*
Y83154D01*
X40287Y82900D01*
X40033D01*
X40287D01*
X40541Y82646D01*
Y82392D01*
X40287Y82138D01*
X39780D01*
X39526Y82392D01*
X42065Y83662D02*
X41049D01*
Y82900D01*
X41557Y83154D01*
X41811D01*
X42065Y82900D01*
Y82392D01*
X41811Y82138D01*
X41303D01*
X41049Y82392D01*
X42827Y81884D02*
X43081Y82138D01*
Y82392D01*
X42827D01*
Y82138D01*
X43081D01*
X42827Y81884D01*
X42573Y81630D01*
X44858Y82138D02*
Y83662D01*
X44096Y82900D01*
X45112D01*
X45620Y83408D02*
X45874Y83662D01*
X46381D01*
X46635Y83408D01*
Y83154D01*
X46381Y82900D01*
X46128D01*
X46381D01*
X46635Y82646D01*
Y82392D01*
X46381Y82138D01*
X45874D01*
X45620Y82392D01*
X47143Y82138D02*
Y83154D01*
X47397D01*
X47651Y82900D01*
Y82138D01*
Y82900D01*
X47905Y83154D01*
X48159Y82900D01*
Y82138D01*
X48667D02*
X49175D01*
X48921D01*
Y83154D01*
X48667D01*
X49936Y82138D02*
X50444D01*
X50190D01*
Y83662D01*
X49936D01*
X51206Y82138D02*
X51714Y82646D01*
Y83154D01*
X51206Y83662D01*
X26068Y79598D02*
X26322Y79852D01*
X26830D01*
X27084Y79598D01*
Y78582D01*
X26830Y78328D01*
X26322D01*
X26068Y78582D01*
Y79598D01*
X27845Y78074D02*
X28099Y78328D01*
Y78582D01*
X27845D01*
Y78328D01*
X28099D01*
X27845Y78074D01*
X27592Y77820D01*
X29115Y79598D02*
X29369Y79852D01*
X29877D01*
X30131Y79598D01*
Y79344D01*
X29877Y79090D01*
X29623D01*
X29877D01*
X30131Y78836D01*
Y78582D01*
X29877Y78328D01*
X29369D01*
X29115Y78582D01*
X30639Y79598D02*
X30892Y79852D01*
X31400D01*
X31654Y79598D01*
Y78582D01*
X31400Y78328D01*
X30892D01*
X30639Y78582D01*
Y79598D01*
X32162D02*
X32416Y79852D01*
X32924D01*
X33178Y79598D01*
Y78582D01*
X32924Y78328D01*
X32416D01*
X32162Y78582D01*
Y79598D01*
X33686Y78328D02*
Y79344D01*
X33939D01*
X34193Y79090D01*
Y78328D01*
Y79090D01*
X34447Y79344D01*
X34701Y79090D01*
Y78328D01*
X35209D02*
Y79344D01*
X35463D01*
X35717Y79090D01*
Y78328D01*
Y79090D01*
X35971Y79344D01*
X36225Y79090D01*
Y78328D01*
X38764D02*
X38256Y78836D01*
Y79344D01*
X38764Y79852D01*
X39526Y78328D02*
X40033D01*
X39780D01*
Y79852D01*
X39526Y79598D01*
X40795Y78328D02*
X41303D01*
X41049D01*
Y79852D01*
X40795Y79598D01*
X42319Y78074D02*
X42573Y78328D01*
Y78582D01*
X42319D01*
Y78328D01*
X42573D01*
X42319Y78074D01*
X42065Y77820D01*
X43588Y79598D02*
X43842Y79852D01*
X44350D01*
X44604Y79598D01*
Y79344D01*
X44350Y79090D01*
X44604Y78836D01*
Y78582D01*
X44350Y78328D01*
X43842D01*
X43588Y78582D01*
Y78836D01*
X43842Y79090D01*
X43588Y79344D01*
Y79598D01*
X43842Y79090D02*
X44350D01*
X45112Y78328D02*
X45620D01*
X45366D01*
Y79852D01*
X45112Y79598D01*
X46381Y78328D02*
Y79344D01*
X46635D01*
X46889Y79090D01*
Y78328D01*
Y79090D01*
X47143Y79344D01*
X47397Y79090D01*
Y78328D01*
X47905D02*
X48413D01*
X48159D01*
Y79344D01*
X47905D01*
X49175Y78328D02*
X49682D01*
X49428D01*
Y79852D01*
X49175D01*
X50444Y78328D02*
X50952Y78836D01*
Y79344D01*
X50444Y79852D01*
X11086Y74518D02*
X11594D01*
X11340D01*
Y76042D01*
X11086Y75788D01*
X12356D02*
X12609Y76042D01*
X13117D01*
X13371Y75788D01*
Y74772D01*
X13117Y74518D01*
X12609D01*
X12356Y74772D01*
Y75788D01*
X14641Y74518D02*
Y76042D01*
X13879Y75280D01*
X14895D01*
X16926Y76042D02*
X17942D01*
X17434D01*
Y74518D01*
X18703D02*
X19211D01*
X19465Y74772D01*
Y75280D01*
X19211Y75534D01*
X18703D01*
X18450Y75280D01*
Y74772D01*
X18703Y74518D01*
X20227Y75788D02*
Y75534D01*
X19973D01*
X20481D01*
X20227D01*
Y74772D01*
X20481Y74518D01*
X21497Y75534D02*
X22004D01*
X22258Y75280D01*
Y74518D01*
X21497D01*
X21243Y74772D01*
X21497Y75026D01*
X22258D01*
X22766Y74518D02*
X23274D01*
X23020D01*
Y76042D01*
X22766D01*
X12102Y97378D02*
X11086D01*
X12102Y98394D01*
Y98648D01*
X11848Y98902D01*
X11340D01*
X11086Y98648D01*
X12102Y93568D02*
X11086D01*
X12102Y94584D01*
Y94838D01*
X11848Y95092D01*
X11340D01*
X11086Y94838D01*
X11848Y89758D02*
Y91282D01*
X11086Y90520D01*
X12102D01*
X11086Y85948D02*
X11594D01*
X11340D01*
Y87472D01*
X11086Y87218D01*
X12356D02*
X12609Y87472D01*
X13117D01*
X13371Y87218D01*
Y86202D01*
X13117Y85948D01*
X12609D01*
X12356Y86202D01*
Y87218D01*
X11086Y82138D02*
X11594D01*
X11340D01*
Y83662D01*
X11086Y83408D01*
X13117Y82138D02*
Y83662D01*
X12356Y82900D01*
X13371D01*
X11086Y79852D02*
X12102D01*
Y79598D01*
X11086Y78582D01*
Y78328D01*
X13625D02*
X12609D01*
X13625Y79344D01*
Y79598D01*
X13371Y79852D01*
X12863D01*
X12609Y79598D01*
X43588Y68804D02*
X44603D01*
X43588Y69312D02*
X44603D01*
X46635Y68296D02*
Y69820D01*
X47396D01*
X47650Y69566D01*
Y69058D01*
X47396Y68804D01*
X46635D01*
X47142D02*
X47650Y68296D01*
X48412D02*
X48920D01*
X49174Y68550D01*
Y69058D01*
X48920Y69312D01*
X48412D01*
X48158Y69058D01*
Y68550D01*
X48412Y68296D01*
X49682Y69312D02*
Y68550D01*
X49936Y68296D01*
X50697D01*
Y69312D01*
X51459Y69566D02*
Y69312D01*
X51205D01*
X51713D01*
X51459D01*
Y68550D01*
X51713Y68296D01*
X53237D02*
X52729D01*
X52475Y68550D01*
Y69058D01*
X52729Y69312D01*
X53237D01*
X53490Y69058D01*
Y68804D01*
X52475D01*
X55014Y69820D02*
Y68296D01*
X54252D01*
X53998Y68550D01*
Y69058D01*
X54252Y69312D01*
X55014D01*
X57045Y68296D02*
Y69820D01*
X57807D01*
X58061Y69566D01*
Y69058D01*
X57807Y68804D01*
X57045D01*
X58823Y69312D02*
X59331D01*
X59584Y69058D01*
Y68296D01*
X58823D01*
X58569Y68550D01*
X58823Y68804D01*
X59584D01*
X60346Y69566D02*
Y69312D01*
X60092D01*
X60600D01*
X60346D01*
Y68550D01*
X60600Y68296D01*
X61362Y69820D02*
Y68296D01*
Y69058D01*
X61616Y69312D01*
X62124D01*
X62378Y69058D01*
Y68296D01*
X64409Y69820D02*
Y68296D01*
X65425D01*
X66694D02*
X66186D01*
X65932Y68550D01*
Y69058D01*
X66186Y69312D01*
X66694D01*
X66948Y69058D01*
Y68804D01*
X65932D01*
X67456Y68296D02*
Y69312D01*
X68218D01*
X68472Y69058D01*
Y68296D01*
X69487Y67788D02*
X69741D01*
X69995Y68042D01*
Y69312D01*
X69233D01*
X68979Y69058D01*
Y68550D01*
X69233Y68296D01*
X69995D01*
X70757Y69566D02*
Y69312D01*
X70503D01*
X71011D01*
X70757D01*
Y68550D01*
X71011Y68296D01*
X71773Y69820D02*
Y68296D01*
Y69058D01*
X72026Y69312D01*
X72534D01*
X72788Y69058D01*
Y68296D01*
X74820Y69058D02*
X75835D01*
X75327Y69566D02*
Y68550D01*
X77867Y69820D02*
X78882D01*
X78374D01*
Y68296D01*
X79644D02*
X80152D01*
X80406Y68550D01*
Y69058D01*
X80152Y69312D01*
X79644D01*
X79390Y69058D01*
Y68550D01*
X79644Y68296D01*
X81167D02*
X81675D01*
X81929Y68550D01*
Y69058D01*
X81675Y69312D01*
X81167D01*
X80914Y69058D01*
Y68550D01*
X81167Y68296D01*
X82437D02*
X82945D01*
X82691D01*
Y69820D01*
X82437D01*
X86246Y69566D02*
X85992Y69820D01*
X85484D01*
X85230Y69566D01*
Y69312D01*
X85484Y69058D01*
X85992D01*
X86246Y68804D01*
Y68550D01*
X85992Y68296D01*
X85484D01*
X85230Y68550D01*
X86754Y68296D02*
X87261D01*
X87008D01*
Y69312D01*
X86754D01*
X88023D02*
X89039D01*
X88023Y68296D01*
X89039D01*
X90309D02*
X89801D01*
X89547Y68550D01*
Y69058D01*
X89801Y69312D01*
X90309D01*
X90562Y69058D01*
Y68804D01*
X89547D01*
X92594D02*
X93609D01*
X92594Y69312D02*
X93609D01*
X96656Y69566D02*
X96403Y69820D01*
X95895D01*
X95641Y69566D01*
Y69312D01*
X95895Y69058D01*
X96403D01*
X96656Y68804D01*
Y68550D01*
X96403Y68296D01*
X95895D01*
X95641Y68550D01*
X97164Y68296D02*
X97672D01*
X97418D01*
Y69820D01*
X97164D01*
X98688Y68296D02*
X99196D01*
X99450Y68550D01*
Y69058D01*
X99196Y69312D01*
X98688D01*
X98434Y69058D01*
Y68550D01*
X98688Y68296D01*
X100211Y69566D02*
Y69312D01*
X99957D01*
X100465D01*
X100211D01*
Y68550D01*
X100465Y68296D01*
X102750D02*
X103258D01*
X103004D01*
Y69820D01*
X102750D01*
X104782Y68296D02*
X104274D01*
X104020Y68550D01*
Y69058D01*
X104274Y69312D01*
X104782D01*
X105036Y69058D01*
Y68804D01*
X104020D01*
X105544Y68296D02*
Y69312D01*
X106305D01*
X106559Y69058D01*
Y68296D01*
X107575Y67788D02*
X107829D01*
X108083Y68042D01*
Y69312D01*
X107321D01*
X107067Y69058D01*
Y68550D01*
X107321Y68296D01*
X108083D01*
X108845Y69566D02*
Y69312D01*
X108591D01*
X109098D01*
X108845D01*
Y68550D01*
X109098Y68296D01*
X109860Y69820D02*
Y68296D01*
Y69058D01*
X110114Y69312D01*
X110622D01*
X110876Y69058D01*
Y68296D01*
X113161Y69312D02*
X113669D01*
X113923Y69058D01*
Y68296D01*
X113161D01*
X112907Y68550D01*
X113161Y68804D01*
X113923D01*
X114431Y68296D02*
X115192D01*
X115446Y68550D01*
X115192Y68804D01*
X114685D01*
X114431Y69058D01*
X114685Y69312D01*
X115446D01*
X118493Y69820D02*
Y68296D01*
X117732D01*
X117478Y68550D01*
Y69058D01*
X117732Y69312D01*
X118493D01*
X119763Y68296D02*
X119255D01*
X119001Y68550D01*
Y69058D01*
X119255Y69312D01*
X119763D01*
X120017Y69058D01*
Y68804D01*
X119001D01*
X120779Y68296D02*
Y69566D01*
Y69058D01*
X120525D01*
X121033D01*
X120779D01*
Y69566D01*
X121033Y69820D01*
X121794Y68296D02*
X122302D01*
X122048D01*
Y69312D01*
X121794D01*
X123064Y68296D02*
Y69312D01*
X123826D01*
X124080Y69058D01*
Y68296D01*
X125349D02*
X124841D01*
X124587Y68550D01*
Y69058D01*
X124841Y69312D01*
X125349D01*
X125603Y69058D01*
Y68804D01*
X124587D01*
X127127Y69820D02*
Y68296D01*
X126365D01*
X126111Y68550D01*
Y69058D01*
X126365Y69312D01*
X127127D01*
X129158Y68296D02*
X129666D01*
X129412D01*
Y69312D01*
X129158D01*
X130428Y68296D02*
Y69312D01*
X131189D01*
X131443Y69058D01*
Y68296D01*
X133728Y69566D02*
Y69312D01*
X133475D01*
X133982D01*
X133728D01*
Y68550D01*
X133982Y68296D01*
X134744Y69820D02*
Y68296D01*
Y69058D01*
X134998Y69312D01*
X135506D01*
X135760Y69058D01*
Y68296D01*
X137029D02*
X136522D01*
X136268Y68550D01*
Y69058D01*
X136522Y69312D01*
X137029D01*
X137283Y69058D01*
Y68804D01*
X136268D01*
X139315Y68296D02*
Y69820D01*
X140076D01*
X140330Y69566D01*
Y69058D01*
X140076Y68804D01*
X139315D01*
X141854Y69566D02*
X141600Y69820D01*
X141092D01*
X140838Y69566D01*
Y68550D01*
X141092Y68296D01*
X141600D01*
X141854Y68550D01*
X142362Y69820D02*
Y68296D01*
X143123D01*
X143377Y68550D01*
Y68804D01*
X143123Y69058D01*
X142362D01*
X143123D01*
X143377Y69312D01*
Y69566D01*
X143123Y69820D01*
X142362D01*
X145409Y68296D02*
X145917D01*
X145663D01*
Y69820D01*
X145409D01*
X146932Y69312D02*
X147440D01*
X147694Y69058D01*
Y68296D01*
X146932D01*
X146678Y68550D01*
X146932Y68804D01*
X147694D01*
X148202Y69312D02*
Y68550D01*
X148456Y68296D01*
X149217D01*
Y68042D01*
X148964Y67788D01*
X148710D01*
X149217Y68296D02*
Y69312D01*
X149979Y68296D02*
X150487D01*
X150741Y68550D01*
Y69058D01*
X150487Y69312D01*
X149979D01*
X149725Y69058D01*
Y68550D01*
X149979Y68296D01*
X151249Y69312D02*
Y68550D01*
X151503Y68296D01*
X152264D01*
Y69312D01*
X153026Y69566D02*
Y69312D01*
X152772D01*
X153280D01*
X153026D01*
Y68550D01*
X153280Y68296D01*
X52475Y71343D02*
X53490D01*
X52475Y71851D02*
X53490D01*
X56537Y72105D02*
X56284Y72359D01*
X55776D01*
X55522Y72105D01*
Y71090D01*
X55776Y70836D01*
X56284D01*
X56537Y71090D01*
X57299Y71851D02*
X57807D01*
X58061Y71597D01*
Y70836D01*
X57299D01*
X57045Y71090D01*
X57299Y71343D01*
X58061D01*
X58569Y70836D02*
X59077D01*
X58823D01*
Y72359D01*
X58569D01*
X60854Y71851D02*
X60092D01*
X59838Y71597D01*
Y71090D01*
X60092Y70836D01*
X60854D01*
X61362Y71851D02*
Y71090D01*
X61616Y70836D01*
X62378D01*
Y71851D01*
X62885Y70836D02*
X63393D01*
X63139D01*
Y72359D01*
X62885D01*
X64409Y71851D02*
X64917D01*
X65171Y71597D01*
Y70836D01*
X64409D01*
X64155Y71090D01*
X64409Y71343D01*
X65171D01*
X65932Y72105D02*
Y71851D01*
X65678D01*
X66186D01*
X65932D01*
Y71090D01*
X66186Y70836D01*
X67710D02*
X67202D01*
X66948Y71090D01*
Y71597D01*
X67202Y71851D01*
X67710D01*
X67964Y71597D01*
Y71343D01*
X66948D01*
X69487Y72359D02*
Y70836D01*
X68725D01*
X68472Y71090D01*
Y71597D01*
X68725Y71851D01*
X69487D01*
X71773Y70836D02*
Y72105D01*
Y71597D01*
X71519D01*
X72026D01*
X71773D01*
Y72105D01*
X72026Y72359D01*
X72788Y71851D02*
Y70836D01*
Y71343D01*
X73042Y71597D01*
X73296Y71851D01*
X73550D01*
X74566Y70836D02*
X75073D01*
X75327Y71090D01*
Y71597D01*
X75073Y71851D01*
X74566D01*
X74312Y71597D01*
Y71090D01*
X74566Y70836D01*
X75835D02*
Y71851D01*
X76089D01*
X76343Y71597D01*
Y70836D01*
Y71597D01*
X76597Y71851D01*
X76851Y71597D01*
Y70836D01*
X79136Y72105D02*
Y71851D01*
X78882D01*
X79390D01*
X79136D01*
Y71090D01*
X79390Y70836D01*
X80406D02*
X80914D01*
X81167Y71090D01*
Y71597D01*
X80914Y71851D01*
X80406D01*
X80152Y71597D01*
Y71090D01*
X80406Y70836D01*
X81929D02*
X82437D01*
X82691Y71090D01*
Y71597D01*
X82437Y71851D01*
X81929D01*
X81675Y71597D01*
Y71090D01*
X81929Y70836D01*
X83199D02*
X83707D01*
X83453D01*
Y72359D01*
X83199D01*
X85992Y70836D02*
X86754D01*
X87008Y71090D01*
X86754Y71343D01*
X86246D01*
X85992Y71597D01*
X86246Y71851D01*
X87008D01*
X87769Y72105D02*
Y71851D01*
X87515D01*
X88023D01*
X87769D01*
Y71090D01*
X88023Y70836D01*
X89039Y71851D02*
X89547D01*
X89801Y71597D01*
Y70836D01*
X89039D01*
X88785Y71090D01*
X89039Y71343D01*
X89801D01*
X90309Y71851D02*
Y70836D01*
Y71343D01*
X90562Y71597D01*
X90816Y71851D01*
X91070D01*
X92086Y72105D02*
Y71851D01*
X91832D01*
X92340D01*
X92086D01*
Y71090D01*
X92340Y70836D01*
X95641Y71851D02*
X94879D01*
X94625Y71597D01*
Y71090D01*
X94879Y70836D01*
X95641D01*
X96910D02*
X96403D01*
X96149Y71090D01*
Y71597D01*
X96403Y71851D01*
X96910D01*
X97164Y71597D01*
Y71343D01*
X96149D01*
X97672Y70836D02*
Y71851D01*
X98434D01*
X98688Y71597D01*
Y70836D01*
X99450Y72105D02*
Y71851D01*
X99196D01*
X99703D01*
X99450D01*
Y71090D01*
X99703Y70836D01*
X100465Y71851D02*
Y70836D01*
Y71343D01*
X100719Y71597D01*
X100973Y71851D01*
X101227D01*
X102750Y70836D02*
X102243D01*
X101989Y71090D01*
Y71597D01*
X102243Y71851D01*
X102750D01*
X103004Y71597D01*
Y71343D01*
X101989D01*
X105036Y70328D02*
Y71851D01*
X105798D01*
X106051Y71597D01*
Y71090D01*
X105798Y70836D01*
X105036D01*
X106813D02*
X107321D01*
X107575Y71090D01*
Y71597D01*
X107321Y71851D01*
X106813D01*
X106559Y71597D01*
Y71090D01*
X106813Y70836D01*
X108083D02*
X108845D01*
X109098Y71090D01*
X108845Y71343D01*
X108337D01*
X108083Y71597D01*
X108337Y71851D01*
X109098D01*
X109606Y70836D02*
X110114D01*
X109860D01*
Y71851D01*
X109606D01*
X111130Y72105D02*
Y71851D01*
X110876D01*
X111384D01*
X111130D01*
Y71090D01*
X111384Y70836D01*
X112145D02*
X112653D01*
X112399D01*
Y71851D01*
X112145D01*
X113669Y70836D02*
X114177D01*
X114431Y71090D01*
Y71597D01*
X114177Y71851D01*
X113669D01*
X113415Y71597D01*
Y71090D01*
X113669Y70836D01*
X114939D02*
Y71851D01*
X115700D01*
X115954Y71597D01*
Y70836D01*
X118239Y72105D02*
Y71851D01*
X117986D01*
X118493D01*
X118239D01*
Y71090D01*
X118493Y70836D01*
X119509D02*
X120017D01*
X120271Y71090D01*
Y71597D01*
X120017Y71851D01*
X119509D01*
X119255Y71597D01*
Y71090D01*
X119509Y70836D01*
X122556Y72105D02*
Y71851D01*
X122302D01*
X122810D01*
X122556D01*
Y71090D01*
X122810Y70836D01*
X123826D02*
X124334D01*
X124587Y71090D01*
Y71597D01*
X124334Y71851D01*
X123826D01*
X123572Y71597D01*
Y71090D01*
X123826Y70836D01*
X125349D02*
X125857D01*
X126111Y71090D01*
Y71597D01*
X125857Y71851D01*
X125349D01*
X125095Y71597D01*
Y71090D01*
X125349Y70836D01*
X126619D02*
X127127D01*
X126873D01*
Y72359D01*
X126619D01*
X130174Y70836D02*
X129666D01*
X129412Y71090D01*
Y71597D01*
X129666Y71851D01*
X130174D01*
X130428Y71597D01*
Y71343D01*
X129412D01*
X130935Y70836D02*
Y71851D01*
X131697D01*
X131951Y71597D01*
Y70836D01*
X133475Y72359D02*
Y70836D01*
X132713D01*
X132459Y71090D01*
Y71597D01*
X132713Y71851D01*
X133475D01*
X136522D02*
X135760D01*
X135506Y71597D01*
Y71090D01*
X135760Y70836D01*
X136522D01*
X137791D02*
X137283D01*
X137029Y71090D01*
Y71597D01*
X137283Y71851D01*
X137791D01*
X138045Y71597D01*
Y71343D01*
X137029D01*
X138553Y70836D02*
Y71851D01*
X139315D01*
X139569Y71597D01*
Y70836D01*
X140330Y72105D02*
Y71851D01*
X140076D01*
X140584D01*
X140330D01*
Y71090D01*
X140584Y70836D01*
X141346Y71851D02*
Y70836D01*
Y71343D01*
X141600Y71597D01*
X141854Y71851D01*
X142108D01*
X143631Y70836D02*
X143123D01*
X142870Y71090D01*
Y71597D01*
X143123Y71851D01*
X143631D01*
X143885Y71597D01*
Y71343D01*
X142870D01*
X145917Y70328D02*
Y71851D01*
X146678D01*
X146932Y71597D01*
Y71090D01*
X146678Y70836D01*
X145917D01*
X147694D02*
X148202D01*
X148456Y71090D01*
Y71597D01*
X148202Y71851D01*
X147694D01*
X147440Y71597D01*
Y71090D01*
X147694Y70836D01*
X148964D02*
X149725D01*
X149979Y71090D01*
X149725Y71343D01*
X149217D01*
X148964Y71597D01*
X149217Y71851D01*
X149979D01*
X150487Y70836D02*
X150995D01*
X150741D01*
Y71851D01*
X150487D01*
X152011Y72105D02*
Y71851D01*
X151757D01*
X152264D01*
X152011D01*
Y71090D01*
X152264Y70836D01*
X153026D02*
X153534D01*
X153280D01*
Y71851D01*
X153026D01*
X154550Y70836D02*
X155058D01*
X155311Y71090D01*
Y71597D01*
X155058Y71851D01*
X154550D01*
X154296Y71597D01*
Y71090D01*
X154550Y70836D01*
X155819D02*
Y71851D01*
X156581D01*
X156835Y71597D01*
Y70836D01*
X157343D02*
Y71090D01*
X157597D01*
Y70836D01*
X157343D01*
D75*
X-4049Y100045D02*
X310873D01*
X-4049Y77185D02*
X310873D01*
X-4049Y73375D02*
X310873D01*
Y103855D01*
X-4049D02*
X310873D01*
X-4049Y73375D02*
Y103855D01*
X275247Y73375D02*
Y103855D01*
X247569Y73375D02*
Y103855D01*
X213695Y73375D02*
Y103855D01*
X179822Y73375D02*
Y103855D01*
X158136Y73375D02*
Y103855D01*
X139193Y73375D02*
Y103855D01*
X124211Y73375D02*
Y103855D01*
X86122Y73375D02*
Y103855D01*
X67484Y73375D02*
Y103855D01*
X54634Y73375D02*
Y103855D01*
X24925Y73375D02*
Y103855D01*
X9943Y73375D02*
Y103855D01*
D78*
X47054Y45950D02*
G03*
X47054Y45950I-254J0D01*
G01*
Y50950D02*
G03*
X47054Y50950I-254J0D01*
G01*
X32246Y34246D02*
X32500Y34373D01*
X32754Y34246D01*
X32627Y34500D02*
X32754Y34246D01*
X32627Y34500D02*
X32754Y34754D01*
X32500Y34627D02*
X32754Y34754D01*
X32246D02*
X32500Y34627D01*
X32246Y34754D02*
X32373Y34500D01*
X32246Y34246D02*
X32373Y34500D01*
X32746Y33146D02*
X33000Y33273D01*
X33254Y33146D01*
X33127Y33400D02*
X33254Y33146D01*
X33127Y33400D02*
X33254Y33654D01*
X33000Y33527D02*
X33254Y33654D01*
X32746D02*
X33000Y33527D01*
X32746Y33654D02*
X32873Y33400D01*
X32746Y33146D02*
X32873Y33400D01*
X29546Y33146D02*
X29800Y33273D01*
X30054Y33146D01*
X29927Y33400D02*
X30054Y33146D01*
X29927Y33400D02*
X30054Y33654D01*
X29800Y33527D02*
X30054Y33654D01*
X29546D02*
X29800Y33527D01*
X29546Y33654D02*
X29673Y33400D01*
X29546Y33146D02*
X29673Y33400D01*
X28346Y32546D02*
X28600Y32673D01*
X28854Y32546D01*
X28727Y32800D02*
X28854Y32546D01*
X28727Y32800D02*
X28854Y33054D01*
X28600Y32927D02*
X28854Y33054D01*
X28346D02*
X28600Y32927D01*
X28346Y33054D02*
X28473Y32800D01*
X28346Y32546D02*
X28473Y32800D01*
X24646Y32146D02*
X24900Y32273D01*
X25154Y32146D01*
X25027Y32400D02*
X25154Y32146D01*
X25027Y32400D02*
X25154Y32654D01*
X24900Y32527D02*
X25154Y32654D01*
X24646D02*
X24900Y32527D01*
X24646Y32654D02*
X24773Y32400D01*
X24646Y32146D02*
X24773Y32400D01*
X25446Y31546D02*
X25700Y31673D01*
X25954Y31546D01*
X25827Y31800D02*
X25954Y31546D01*
X25827Y31800D02*
X25954Y32054D01*
X25700Y31927D02*
X25954Y32054D01*
X25446D02*
X25700Y31927D01*
X25446Y32054D02*
X25573Y31800D01*
X25446Y31546D02*
X25573Y31800D01*
X26446Y31246D02*
X26700Y31373D01*
X26954Y31246D01*
X26827Y31500D02*
X26954Y31246D01*
X26827Y31500D02*
X26954Y31754D01*
X26700Y31627D02*
X26954Y31754D01*
X26446D02*
X26700Y31627D01*
X26446Y31754D02*
X26573Y31500D01*
X26446Y31246D02*
X26573Y31500D01*
X26346Y29846D02*
X26600Y29973D01*
X26854Y29846D01*
X26727Y30100D02*
X26854Y29846D01*
X26727Y30100D02*
X26854Y30354D01*
X26600Y30227D02*
X26854Y30354D01*
X26346D02*
X26600Y30227D01*
X26346Y30354D02*
X26473Y30100D01*
X26346Y29846D02*
X26473Y30100D01*
X24646Y30646D02*
X24900Y30773D01*
X25154Y30646D01*
X25027Y30900D02*
X25154Y30646D01*
X25027Y30900D02*
X25154Y31154D01*
X24900Y31027D02*
X25154Y31154D01*
X24646D02*
X24900Y31027D01*
X24646Y31154D02*
X24773Y30900D01*
X24646Y30646D02*
X24773Y30900D01*
X28021Y29171D02*
X28275Y29298D01*
X28529Y29171D01*
X28402Y29425D02*
X28529Y29171D01*
X28402Y29425D02*
X28529Y29679D01*
X28275Y29552D02*
X28529Y29679D01*
X28021D02*
X28275Y29552D01*
X28021Y29679D02*
X28148Y29425D01*
X28021Y29171D02*
X28148Y29425D01*
X25546Y29346D02*
X25800Y29473D01*
X26054Y29346D01*
X25927Y29600D02*
X26054Y29346D01*
X25927Y29600D02*
X26054Y29854D01*
X25800Y29727D02*
X26054Y29854D01*
X25546D02*
X25800Y29727D01*
X25546Y29854D02*
X25673Y29600D01*
X25546Y29346D02*
X25673Y29600D01*
X33446Y31446D02*
X33700Y31573D01*
X33954Y31446D01*
X33827Y31700D02*
X33954Y31446D01*
X33827Y31700D02*
X33954Y31954D01*
X33700Y31827D02*
X33954Y31954D01*
X33446D02*
X33700Y31827D01*
X33446Y31954D02*
X33573Y31700D01*
X33446Y31446D02*
X33573Y31700D01*
X21546Y20046D02*
X21800Y20173D01*
X22054Y20046D01*
X21927Y20300D02*
X22054Y20046D01*
X21927Y20300D02*
X22054Y20554D01*
X21800Y20427D02*
X22054Y20554D01*
X21546D02*
X21800Y20427D01*
X21546Y20554D02*
X21673Y20300D01*
X21546Y20046D02*
X21673Y20300D01*
X15846Y28946D02*
X16100Y29073D01*
X16354Y28946D01*
X16227Y29200D02*
X16354Y28946D01*
X16227Y29200D02*
X16354Y29454D01*
X16100Y29327D02*
X16354Y29454D01*
X15846D02*
X16100Y29327D01*
X15846Y29454D02*
X15973Y29200D01*
X15846Y28946D02*
X15973Y29200D01*
X15846Y27546D02*
X16100Y27673D01*
X16354Y27546D01*
X16227Y27800D02*
X16354Y27546D01*
X16227Y27800D02*
X16354Y28054D01*
X16100Y27927D02*
X16354Y28054D01*
X15846D02*
X16100Y27927D01*
X15846Y28054D02*
X15973Y27800D01*
X15846Y27546D02*
X15973Y27800D01*
X33146Y24646D02*
X33400Y24773D01*
X33654Y24646D01*
X33527Y24900D02*
X33654Y24646D01*
X33527Y24900D02*
X33654Y25154D01*
X33400Y25027D02*
X33654Y25154D01*
X33146D02*
X33400Y25027D01*
X33146Y25154D02*
X33273Y24900D01*
X33146Y24646D02*
X33273Y24900D01*
X34746Y23946D02*
X35000Y24073D01*
X35254Y23946D01*
X35127Y24200D02*
X35254Y23946D01*
X35127Y24200D02*
X35254Y24454D01*
X35000Y24327D02*
X35254Y24454D01*
X34746D02*
X35000Y24327D01*
X34746Y24454D02*
X34873Y24200D01*
X34746Y23946D02*
X34873Y24200D01*
X25846Y19546D02*
X26100Y19673D01*
X26354Y19546D01*
X26227Y19800D02*
X26354Y19546D01*
X26227Y19800D02*
X26354Y20054D01*
X26100Y19927D02*
X26354Y20054D01*
X25846D02*
X26100Y19927D01*
X25846Y20054D02*
X25973Y19800D01*
X25846Y19546D02*
X25973Y19800D01*
X20546Y36746D02*
X20800Y36873D01*
X21054Y36746D01*
X20927Y37000D02*
X21054Y36746D01*
X20927Y37000D02*
X21054Y37254D01*
X20800Y37127D02*
X21054Y37254D01*
X20546D02*
X20800Y37127D01*
X20546Y37254D02*
X20673Y37000D01*
X20546Y36746D02*
X20673Y37000D01*
X26896Y37096D02*
X27150Y37223D01*
X27404Y37096D01*
X27277Y37350D02*
X27404Y37096D01*
X27277Y37350D02*
X27404Y37604D01*
X27150Y37477D02*
X27404Y37604D01*
X26896D02*
X27150Y37477D01*
X26896Y37604D02*
X27023Y37350D01*
X26896Y37096D02*
X27023Y37350D01*
X39496Y55496D02*
X39750Y55623D01*
X40004Y55496D01*
X39877Y55750D02*
X40004Y55496D01*
X39877Y55750D02*
X40004Y56004D01*
X39750Y55877D02*
X40004Y56004D01*
X39496D02*
X39750Y55877D01*
X39496Y56004D02*
X39623Y55750D01*
X39496Y55496D02*
X39623Y55750D01*
X34446Y34446D02*
X34700Y34573D01*
X34954Y34446D01*
X34827Y34700D02*
X34954Y34446D01*
X34827Y34700D02*
X34954Y34954D01*
X34700Y34827D02*
X34954Y34954D01*
X34446D02*
X34700Y34827D01*
X34446Y34954D02*
X34573Y34700D01*
X34446Y34446D02*
X34573Y34700D01*
X43146Y38921D02*
X43400Y39048D01*
X43654Y38921D01*
X43527Y39175D02*
X43654Y38921D01*
X43527Y39175D02*
X43654Y39429D01*
X43400Y39302D02*
X43654Y39429D01*
X43146D02*
X43400Y39302D01*
X43146Y39429D02*
X43273Y39175D01*
X43146Y38921D02*
X43273Y39175D01*
X43871Y39646D02*
X44125Y39773D01*
X44379Y39646D01*
X44252Y39900D02*
X44379Y39646D01*
X44252Y39900D02*
X44379Y40154D01*
X44125Y40027D02*
X44379Y40154D01*
X43871D02*
X44125Y40027D01*
X43871Y40154D02*
X43998Y39900D01*
X43871Y39646D02*
X43998Y39900D01*
X6546Y39446D02*
X6800Y39573D01*
X7054Y39446D01*
X6927Y39700D02*
X7054Y39446D01*
X6927Y39700D02*
X7054Y39954D01*
X6800Y39827D02*
X7054Y39954D01*
X6546D02*
X6800Y39827D01*
X6546Y39954D02*
X6673Y39700D01*
X6546Y39446D02*
X6673Y39700D01*
X30446Y53546D02*
X30700Y53673D01*
X30954Y53546D01*
X30827Y53800D02*
X30954Y53546D01*
X30827Y53800D02*
X30954Y54054D01*
X30700Y53927D02*
X30954Y54054D01*
X30446D02*
X30700Y53927D01*
X30446Y54054D02*
X30573Y53800D01*
X30446Y53546D02*
X30573Y53800D01*
X32471Y47471D02*
X32725Y47598D01*
X32979Y47471D01*
X32852Y47725D02*
X32979Y47471D01*
X32852Y47725D02*
X32979Y47979D01*
X32725Y47852D02*
X32979Y47979D01*
X32471D02*
X32725Y47852D01*
X32471Y47979D02*
X32598Y47725D01*
X32471Y47471D02*
X32598Y47725D01*
X35071Y47471D02*
X35325Y47598D01*
X35579Y47471D01*
X35452Y47725D02*
X35579Y47471D01*
X35452Y47725D02*
X35579Y47979D01*
X35325Y47852D02*
X35579Y47979D01*
X35071D02*
X35325Y47852D01*
X35071Y47979D02*
X35198Y47725D01*
X35071Y47471D02*
X35198Y47725D01*
X37021Y47471D02*
X37275Y47598D01*
X37529Y47471D01*
X37402Y47725D02*
X37529Y47471D01*
X37402Y47725D02*
X37529Y47979D01*
X37275Y47852D02*
X37529Y47979D01*
X37021D02*
X37275Y47852D01*
X37021Y47979D02*
X37148Y47725D01*
X37021Y47471D02*
X37148Y47725D01*
X34346Y44346D02*
X34600Y44473D01*
X34854Y44346D01*
X34727Y44600D02*
X34854Y44346D01*
X34727Y44600D02*
X34854Y44854D01*
X34600Y44727D02*
X34854Y44854D01*
X34346D02*
X34600Y44727D01*
X34346Y44854D02*
X34473Y44600D01*
X34346Y44346D02*
X34473Y44600D01*
X7123Y31669D02*
X7377Y31796D01*
X7631Y31669D01*
X7504Y31923D02*
X7631Y31669D01*
X7504Y31923D02*
X7631Y32177D01*
X7377Y32050D02*
X7631Y32177D01*
X7123D02*
X7377Y32050D01*
X7123Y32177D02*
X7250Y31923D01*
X7123Y31669D02*
X7250Y31923D01*
X44046Y20346D02*
X44300Y20473D01*
X44554Y20346D01*
X44427Y20600D02*
X44554Y20346D01*
X44427Y20600D02*
X44554Y20854D01*
X44300Y20727D02*
X44554Y20854D01*
X44046D02*
X44300Y20727D01*
X44046Y20854D02*
X44173Y20600D01*
X44046Y20346D02*
X44173Y20600D01*
X8846Y22346D02*
X9100Y22473D01*
X9354Y22346D01*
X9227Y22600D02*
X9354Y22346D01*
X9227Y22600D02*
X9354Y22854D01*
X9100Y22727D02*
X9354Y22854D01*
X8846D02*
X9100Y22727D01*
X8846Y22854D02*
X8973Y22600D01*
X8846Y22346D02*
X8973Y22600D01*
X6846Y20246D02*
X7100Y20373D01*
X7354Y20246D01*
X7227Y20500D02*
X7354Y20246D01*
X7227Y20500D02*
X7354Y20754D01*
X7100Y20627D02*
X7354Y20754D01*
X6846D02*
X7100Y20627D01*
X6846Y20754D02*
X6973Y20500D01*
X6846Y20246D02*
X6973Y20500D01*
X6846Y17146D02*
X7100Y17273D01*
X7354Y17146D01*
X7227Y17400D02*
X7354Y17146D01*
X7227Y17400D02*
X7354Y17654D01*
X7100Y17527D02*
X7354Y17654D01*
X6846D02*
X7100Y17527D01*
X6846Y17654D02*
X6973Y17400D01*
X6846Y17146D02*
X6973Y17400D01*
X17246Y43846D02*
X17500Y43973D01*
X17754Y43846D01*
X17627Y44100D02*
X17754Y43846D01*
X17627Y44100D02*
X17754Y44354D01*
X17500Y44227D02*
X17754Y44354D01*
X17246D02*
X17500Y44227D01*
X17246Y44354D02*
X17373Y44100D01*
X17246Y43846D02*
X17373Y44100D01*
X3246Y42046D02*
X3500Y42173D01*
X3754Y42046D01*
X3627Y42300D02*
X3754Y42046D01*
X3627Y42300D02*
X3754Y42554D01*
X3500Y42427D02*
X3754Y42554D01*
X3246D02*
X3500Y42427D01*
X3246Y42554D02*
X3373Y42300D01*
X3246Y42046D02*
X3373Y42300D01*
X38146Y12546D02*
X38400Y12673D01*
X38654Y12546D01*
X38527Y12800D02*
X38654Y12546D01*
X38527Y12800D02*
X38654Y13054D01*
X38400Y12927D02*
X38654Y13054D01*
X38146D02*
X38400Y12927D01*
X38146Y13054D02*
X38273Y12800D01*
X38146Y12546D02*
X38273Y12800D01*
X38246Y5646D02*
X38500Y5773D01*
X38754Y5646D01*
X38627Y5900D02*
X38754Y5646D01*
X38627Y5900D02*
X38754Y6154D01*
X38500Y6027D02*
X38754Y6154D01*
X38246D02*
X38500Y6027D01*
X38246Y6154D02*
X38373Y5900D01*
X38246Y5646D02*
X38373Y5900D01*
X47046Y27446D02*
X47300Y27573D01*
X47554Y27446D01*
X47427Y27700D02*
X47554Y27446D01*
X47427Y27700D02*
X47554Y27954D01*
X47300Y27827D02*
X47554Y27954D01*
X47046D02*
X47300Y27827D01*
X47046Y27954D02*
X47173Y27700D01*
X47046Y27446D02*
X47173Y27700D01*
X42446Y25946D02*
X42700Y26073D01*
X42954Y25946D01*
X42827Y26200D02*
X42954Y25946D01*
X42827Y26200D02*
X42954Y26454D01*
X42700Y26327D02*
X42954Y26454D01*
X42446D02*
X42700Y26327D01*
X42446Y26454D02*
X42573Y26200D01*
X42446Y25946D02*
X42573Y26200D01*
X48046Y36546D02*
X48300Y36673D01*
X48554Y36546D01*
X48427Y36800D02*
X48554Y36546D01*
X48427Y36800D02*
X48554Y37054D01*
X48300Y36927D02*
X48554Y37054D01*
X48046D02*
X48300Y36927D01*
X48046Y37054D02*
X48173Y36800D01*
X48046Y36546D02*
X48173Y36800D01*
X44496Y31896D02*
X44750Y32023D01*
X45004Y31896D01*
X44877Y32150D02*
X45004Y31896D01*
X44877Y32150D02*
X45004Y32404D01*
X44750Y32277D02*
X45004Y32404D01*
X44496D02*
X44750Y32277D01*
X44496Y32404D02*
X44623Y32150D01*
X44496Y31896D02*
X44623Y32150D01*
X40946Y30446D02*
X41200Y30573D01*
X41454Y30446D01*
X41327Y30700D02*
X41454Y30446D01*
X41327Y30700D02*
X41454Y30954D01*
X41200Y30827D02*
X41454Y30954D01*
X40946D02*
X41200Y30827D01*
X40946Y30954D02*
X41073Y30700D01*
X40946Y30446D02*
X41073Y30700D01*
X37682Y26210D02*
X37936Y26337D01*
X38190Y26210D01*
X38063Y26464D02*
X38190Y26210D01*
X38063Y26464D02*
X38190Y26718D01*
X37936Y26591D02*
X38190Y26718D01*
X37682D02*
X37936Y26591D01*
X37682Y26718D02*
X37809Y26464D01*
X37682Y26210D02*
X37809Y26464D01*
X38946Y24446D02*
X39200Y24573D01*
X39454Y24446D01*
X39327Y24700D02*
X39454Y24446D01*
X39327Y24700D02*
X39454Y24954D01*
X39200Y24827D02*
X39454Y24954D01*
X38946D02*
X39200Y24827D01*
X38946Y24954D02*
X39073Y24700D01*
X38946Y24446D02*
X39073Y24700D01*
X35317Y26117D02*
X35571Y26244D01*
X35825Y26117D01*
X35698Y26371D02*
X35825Y26117D01*
X35698Y26371D02*
X35825Y26625D01*
X35571Y26498D02*
X35825Y26625D01*
X35317D02*
X35571Y26498D01*
X35317Y26625D02*
X35444Y26371D01*
X35317Y26117D02*
X35444Y26371D01*
X43546Y27746D02*
X43800Y27873D01*
X44054Y27746D01*
X43927Y28000D02*
X44054Y27746D01*
X43927Y28000D02*
X44054Y28254D01*
X43800Y28127D02*
X44054Y28254D01*
X43546D02*
X43800Y28127D01*
X43546Y28254D02*
X43673Y28000D01*
X43546Y27746D02*
X43673Y28000D01*
X45146Y27846D02*
X45400Y27973D01*
X45654Y27846D01*
X45527Y28100D02*
X45654Y27846D01*
X45527Y28100D02*
X45654Y28354D01*
X45400Y28227D02*
X45654Y28354D01*
X45146D02*
X45400Y28227D01*
X45146Y28354D02*
X45273Y28100D01*
X45146Y27846D02*
X45273Y28100D01*
X35746Y29246D02*
X36000Y29373D01*
X36254Y29246D01*
X36127Y29500D02*
X36254Y29246D01*
X36127Y29500D02*
X36254Y29754D01*
X36000Y29627D02*
X36254Y29754D01*
X35746D02*
X36000Y29627D01*
X35746Y29754D02*
X35873Y29500D01*
X35746Y29246D02*
X35873Y29500D01*
X21546Y16446D02*
X21800Y16573D01*
X22054Y16446D01*
X21927Y16700D02*
X22054Y16446D01*
X21927Y16700D02*
X22054Y16954D01*
X21800Y16827D02*
X22054Y16954D01*
X21546D02*
X21800Y16827D01*
X21546Y16954D02*
X21673Y16700D01*
X21546Y16446D02*
X21673Y16700D01*
X34846Y16446D02*
X35100Y16573D01*
X35354Y16446D01*
X35227Y16700D02*
X35354Y16446D01*
X35227Y16700D02*
X35354Y16954D01*
X35100Y16827D02*
X35354Y16954D01*
X34846D02*
X35100Y16827D01*
X34846Y16954D02*
X34973Y16700D01*
X34846Y16446D02*
X34973Y16700D01*
X12246Y29946D02*
X12500Y30073D01*
X12754Y29946D01*
X12627Y30200D02*
X12754Y29946D01*
X12627Y30200D02*
X12754Y30454D01*
X12500Y30327D02*
X12754Y30454D01*
X12246D02*
X12500Y30327D01*
X12246Y30454D02*
X12373Y30200D01*
X12246Y29946D02*
X12373Y30200D01*
X12246Y36046D02*
X12500Y36173D01*
X12754Y36046D01*
X12627Y36300D02*
X12754Y36046D01*
X12627Y36300D02*
X12754Y36554D01*
X12500Y36427D02*
X12754Y36554D01*
X12246D02*
X12500Y36427D01*
X12246Y36554D02*
X12373Y36300D01*
X12246Y36046D02*
X12373Y36300D01*
X2769Y22423D02*
X3023Y22550D01*
X3277Y22423D01*
X3150Y22677D02*
X3277Y22423D01*
X3150Y22677D02*
X3277Y22931D01*
X3023Y22804D02*
X3277Y22931D01*
X2769D02*
X3023Y22804D01*
X2769Y22931D02*
X2896Y22677D01*
X2769Y22423D02*
X2896Y22677D01*
X2046Y24246D02*
X2300Y24373D01*
X2554Y24246D01*
X2427Y24500D02*
X2554Y24246D01*
X2427Y24500D02*
X2554Y24754D01*
X2300Y24627D02*
X2554Y24754D01*
X2046D02*
X2300Y24627D01*
X2046Y24754D02*
X2173Y24500D01*
X2046Y24246D02*
X2173Y24500D01*
X36910Y32310D02*
X37164Y32437D01*
X37418Y32310D01*
X37291Y32564D02*
X37418Y32310D01*
X37291Y32564D02*
X37418Y32818D01*
X37164Y32691D02*
X37418Y32818D01*
X36910D02*
X37164Y32691D01*
X36910Y32818D02*
X37037Y32564D01*
X36910Y32310D02*
X37037Y32564D01*
X38246Y35046D02*
X38500Y35173D01*
X38754Y35046D01*
X38627Y35300D02*
X38754Y35046D01*
X38627Y35300D02*
X38754Y35554D01*
X38500Y35427D02*
X38754Y35554D01*
X38246D02*
X38500Y35427D01*
X38246Y35554D02*
X38373Y35300D01*
X38246Y35046D02*
X38373Y35300D01*
X39046Y32046D02*
X39300Y32173D01*
X39554Y32046D01*
X39427Y32300D02*
X39554Y32046D01*
X39427Y32300D02*
X39554Y32554D01*
X39300Y32427D02*
X39554Y32554D01*
X39046D02*
X39300Y32427D01*
X39046Y32554D02*
X39173Y32300D01*
X39046Y32046D02*
X39173Y32300D01*
X39046Y33046D02*
X39300Y33173D01*
X39554Y33046D01*
X39427Y33300D02*
X39554Y33046D01*
X39427Y33300D02*
X39554Y33554D01*
X39300Y33427D02*
X39554Y33554D01*
X39046D02*
X39300Y33427D01*
X39046Y33554D02*
X39173Y33300D01*
X39046Y33046D02*
X39173Y33300D01*
X40046Y45346D02*
X40300Y45473D01*
X40554Y45346D01*
X40427Y45600D02*
X40554Y45346D01*
X40427Y45600D02*
X40554Y45854D01*
X40300Y45727D02*
X40554Y45854D01*
X40046D02*
X40300Y45727D01*
X40046Y45854D02*
X40173Y45600D01*
X40046Y45346D02*
X40173Y45600D01*
X37646Y10946D02*
X37900Y11073D01*
X38154Y10946D01*
X38027Y11200D02*
X38154Y10946D01*
X38027Y11200D02*
X38154Y11454D01*
X37900Y11327D02*
X38154Y11454D01*
X37646D02*
X37900Y11327D01*
X37646Y11454D02*
X37773Y11200D01*
X37646Y10946D02*
X37773Y11200D01*
X38446Y7446D02*
X38700Y7573D01*
X38954Y7446D01*
X38827Y7700D02*
X38954Y7446D01*
X38827Y7700D02*
X38954Y7954D01*
X38700Y7827D02*
X38954Y7954D01*
X38446D02*
X38700Y7827D01*
X38446Y7954D02*
X38573Y7700D01*
X38446Y7446D02*
X38573Y7700D01*
X36246Y39846D02*
X36500Y39973D01*
X36754Y39846D01*
X36627Y40100D02*
X36754Y39846D01*
X36627Y40100D02*
X36754Y40354D01*
X36500Y40227D02*
X36754Y40354D01*
X36246D02*
X36500Y40227D01*
X36246Y40354D02*
X36373Y40100D01*
X36246Y39846D02*
X36373Y40100D01*
X34746Y38146D02*
X35000Y38273D01*
X35254Y38146D01*
X35127Y38400D02*
X35254Y38146D01*
X35127Y38400D02*
X35254Y38654D01*
X35000Y38527D02*
X35254Y38654D01*
X34746D02*
X35000Y38527D01*
X34746Y38654D02*
X34873Y38400D01*
X34746Y38146D02*
X34873Y38400D01*
X26446Y39246D02*
X26700Y39373D01*
X26954Y39246D01*
X26827Y39500D02*
X26954Y39246D01*
X26827Y39500D02*
X26954Y39754D01*
X26700Y39627D02*
X26954Y39754D01*
X26446D02*
X26700Y39627D01*
X26446Y39754D02*
X26573Y39500D01*
X26446Y39246D02*
X26573Y39500D01*
X28746Y39846D02*
X29000Y39973D01*
X29254Y39846D01*
X29127Y40100D02*
X29254Y39846D01*
X29127Y40100D02*
X29254Y40354D01*
X29000Y40227D02*
X29254Y40354D01*
X28746D02*
X29000Y40227D01*
X28746Y40354D02*
X28873Y40100D01*
X28746Y39846D02*
X28873Y40100D01*
X18546Y48346D02*
X18800Y48473D01*
X19054Y48346D01*
X18927Y48600D02*
X19054Y48346D01*
X18927Y48600D02*
X19054Y48854D01*
X18800Y48727D02*
X19054Y48854D01*
X18546D02*
X18800Y48727D01*
X18546Y48854D02*
X18673Y48600D01*
X18546Y48346D02*
X18673Y48600D01*
X13446Y27346D02*
X13700Y27473D01*
X13954Y27346D01*
X13827Y27600D02*
X13954Y27346D01*
X13827Y27600D02*
X13954Y27854D01*
X13700Y27727D02*
X13954Y27854D01*
X13446D02*
X13700Y27727D01*
X13446Y27854D02*
X13573Y27600D01*
X13446Y27346D02*
X13573Y27600D01*
X15346Y9546D02*
X15600Y9673D01*
X15854Y9546D01*
X15727Y9800D02*
X15854Y9546D01*
X15727Y9800D02*
X15854Y10054D01*
X15600Y9927D02*
X15854Y10054D01*
X15346D02*
X15600Y9927D01*
X15346Y10054D02*
X15473Y9800D01*
X15346Y9546D02*
X15473Y9800D01*
X14746Y39246D02*
X15000Y39373D01*
X15254Y39246D01*
X15127Y39500D02*
X15254Y39246D01*
X15127Y39500D02*
X15254Y39754D01*
X15000Y39627D02*
X15254Y39754D01*
X14746D02*
X15000Y39627D01*
X14746Y39754D02*
X14873Y39500D01*
X14746Y39246D02*
X14873Y39500D01*
X35046Y55146D02*
X35300Y55273D01*
X35554Y55146D01*
X35427Y55400D02*
X35554Y55146D01*
X35427Y55400D02*
X35554Y55654D01*
X35300Y55527D02*
X35554Y55654D01*
X35046D02*
X35300Y55527D01*
X35046Y55654D02*
X35173Y55400D01*
X35046Y55146D02*
X35173Y55400D01*
X40573Y36973D02*
X40700Y36846D01*
X40446Y36973D02*
X40573D01*
X40446D02*
X40573Y37100D01*
X40446Y37227D02*
X40573Y37100D01*
X40446Y37227D02*
X40573D01*
X40700Y37354D01*
X40827Y37227D01*
X40954D01*
X40827Y37100D02*
X40954Y37227D01*
X40827Y37100D02*
X40954Y36973D01*
X40827D02*
X40954D01*
X40700Y36846D02*
X40827Y36973D01*
X40573Y34433D02*
X40700Y34306D01*
X40446Y34433D02*
X40573D01*
X40446D02*
X40573Y34560D01*
X40446Y34687D02*
X40573Y34560D01*
X40446Y34687D02*
X40573D01*
X40700Y34814D01*
X40827Y34687D01*
X40954D01*
X40827Y34560D02*
X40954Y34687D01*
X40827Y34560D02*
X40954Y34433D01*
X40827D02*
X40954D01*
X40700Y34306D02*
X40827Y34433D01*
X3746Y53746D02*
Y53873D01*
X3873Y54000D01*
X3746Y54127D02*
X3873Y54000D01*
X3746Y54127D02*
Y54254D01*
X3873D01*
X4000Y54127D01*
X4127Y54254D01*
X4254D01*
Y54127D02*
Y54254D01*
X4127Y54000D02*
X4254Y54127D01*
X4127Y54000D02*
X4254Y53873D01*
Y53746D02*
Y53873D01*
X4127Y53746D02*
X4254D01*
X4000Y53873D02*
X4127Y53746D01*
X3873D02*
X4000Y53873D01*
X3746Y53746D02*
X3873D01*
X42746D02*
Y53873D01*
X42873Y54000D01*
X42746Y54127D02*
X42873Y54000D01*
X42746Y54127D02*
Y54254D01*
X42873D01*
X43000Y54127D01*
X43127Y54254D01*
X43254D01*
Y54127D02*
Y54254D01*
X43127Y54000D02*
X43254Y54127D01*
X43127Y54000D02*
X43254Y53873D01*
Y53746D02*
Y53873D01*
X43127Y53746D02*
X43254D01*
X43000Y53873D02*
X43127Y53746D01*
X42873D02*
X43000Y53873D01*
X42746Y53746D02*
X42873D01*
X45746Y4746D02*
Y4873D01*
X45873Y5000D01*
X45746Y5127D02*
X45873Y5000D01*
X45746Y5127D02*
Y5254D01*
X45873D01*
X46000Y5127D01*
X46127Y5254D01*
X46254D01*
Y5127D02*
Y5254D01*
X46127Y5000D02*
X46254Y5127D01*
X46127Y5000D02*
X46254Y4873D01*
Y4746D02*
Y4873D01*
X46127Y4746D02*
X46254D01*
X46000Y4873D02*
X46127Y4746D01*
X45873D02*
X46000Y4873D01*
X45746Y4746D02*
X45873D01*
X3746D02*
Y4873D01*
X3873Y5000D01*
X3746Y5127D02*
X3873Y5000D01*
X3746Y5127D02*
Y5254D01*
X3873D01*
X4000Y5127D01*
X4127Y5254D01*
X4254D01*
Y5127D02*
Y5254D01*
X4127Y5000D02*
X4254Y5127D01*
X4127Y5000D02*
X4254Y4873D01*
Y4746D02*
Y4873D01*
X4127Y4746D02*
X4254D01*
X4000Y4873D02*
X4127Y4746D01*
X3873D02*
X4000Y4873D01*
X3746Y4746D02*
X3873D01*
X5775Y25979D02*
X6029Y26487D01*
X5521D02*
X6029D01*
X5521D02*
X5775Y25979D01*
X4505D02*
X4759Y26487D01*
X4251D02*
X4759D01*
X4251D02*
X4505Y25979D01*
X5775Y27249D02*
X6029Y27757D01*
X5521D02*
X6029D01*
X5521D02*
X5775Y27249D01*
X4505D02*
X4759Y27757D01*
X4251D02*
X4759D01*
X4251D02*
X4505Y27249D01*
X5775Y28519D02*
X6029Y29027D01*
X5521D02*
X6029D01*
X5521D02*
X5775Y28519D01*
X4505D02*
X4759Y29027D01*
X4251D02*
X4759D01*
X4251D02*
X4505Y28519D01*
X5775Y29789D02*
X6029Y30297D01*
X5521D02*
X6029D01*
X5521D02*
X5775Y29789D01*
X4505D02*
X4759Y30297D01*
X4251D02*
X4759D01*
X4251D02*
X4505Y29789D01*
X5775Y31059D02*
X6029Y31567D01*
X5521D02*
X6029D01*
X5521D02*
X5775Y31059D01*
X4505D02*
X4759Y31567D01*
X4251D02*
X4759D01*
X4251D02*
X4505Y31059D01*
X17993Y7033D02*
X18120Y6906D01*
X17866Y7033D02*
X17993D01*
X17866D02*
X17993Y7160D01*
X17866Y7287D02*
X17993Y7160D01*
X17866Y7287D02*
X17993D01*
X18120Y7414D01*
X18247Y7287D01*
X18374D01*
X18247Y7160D02*
X18374Y7287D01*
X18247Y7160D02*
X18374Y7033D01*
X18247D02*
X18374D01*
X18120Y6906D02*
X18247Y7033D01*
X17993Y9573D02*
X18120Y9446D01*
X17866Y9573D02*
X17993D01*
X17866D02*
X17993Y9700D01*
X17866Y9827D02*
X17993Y9700D01*
X17866Y9827D02*
X17993D01*
X18120Y9954D01*
X18247Y9827D01*
X18374D01*
X18247Y9700D02*
X18374Y9827D01*
X18247Y9700D02*
X18374Y9573D01*
X18247D02*
X18374D01*
X18120Y9446D02*
X18247Y9573D01*
X20533Y7033D02*
X20660Y6906D01*
X20406Y7033D02*
X20533D01*
X20406D02*
X20533Y7160D01*
X20406Y7287D02*
X20533Y7160D01*
X20406Y7287D02*
X20533D01*
X20660Y7414D01*
X20787Y7287D01*
X20914D01*
X20787Y7160D02*
X20914Y7287D01*
X20787Y7160D02*
X20914Y7033D01*
X20787D02*
X20914D01*
X20660Y6906D02*
X20787Y7033D01*
X20533Y9573D02*
X20660Y9446D01*
X20406Y9573D02*
X20533D01*
X20406D02*
X20533Y9700D01*
X20406Y9827D02*
X20533Y9700D01*
X20406Y9827D02*
X20533D01*
X20660Y9954D01*
X20787Y9827D01*
X20914D01*
X20787Y9700D02*
X20914Y9827D01*
X20787Y9700D02*
X20914Y9573D01*
X20787D02*
X20914D01*
X20660Y9446D02*
X20787Y9573D01*
X23073Y7033D02*
X23200Y6906D01*
X22946Y7033D02*
X23073D01*
X22946D02*
X23073Y7160D01*
X22946Y7287D02*
X23073Y7160D01*
X22946Y7287D02*
X23073D01*
X23200Y7414D01*
X23327Y7287D01*
X23454D01*
X23327Y7160D02*
X23454Y7287D01*
X23327Y7160D02*
X23454Y7033D01*
X23327D02*
X23454D01*
X23200Y6906D02*
X23327Y7033D01*
X23073Y9573D02*
X23200Y9446D01*
X22946Y9573D02*
X23073D01*
X22946D02*
X23073Y9700D01*
X22946Y9827D02*
X23073Y9700D01*
X22946Y9827D02*
X23073D01*
X23200Y9954D01*
X23327Y9827D01*
X23454D01*
X23327Y9700D02*
X23454Y9827D01*
X23327Y9700D02*
X23454Y9573D01*
X23327D02*
X23454D01*
X23200Y9446D02*
X23327Y9573D01*
X25613Y7033D02*
X25740Y6906D01*
X25486Y7033D02*
X25613D01*
X25486D02*
X25613Y7160D01*
X25486Y7287D02*
X25613Y7160D01*
X25486Y7287D02*
X25613D01*
X25740Y7414D01*
X25867Y7287D01*
X25994D01*
X25867Y7160D02*
X25994Y7287D01*
X25867Y7160D02*
X25994Y7033D01*
X25867D02*
X25994D01*
X25740Y6906D02*
X25867Y7033D01*
X25613Y9573D02*
X25740Y9446D01*
X25486Y9573D02*
X25613D01*
X25486D02*
X25613Y9700D01*
X25486Y9827D02*
X25613Y9700D01*
X25486Y9827D02*
X25613D01*
X25740Y9954D01*
X25867Y9827D01*
X25994D01*
X25867Y9700D02*
X25994Y9827D01*
X25867Y9700D02*
X25994Y9573D01*
X25867D02*
X25994D01*
X25740Y9446D02*
X25867Y9573D01*
X28153Y7033D02*
X28280Y6906D01*
X28026Y7033D02*
X28153D01*
X28026D02*
X28153Y7160D01*
X28026Y7287D02*
X28153Y7160D01*
X28026Y7287D02*
X28153D01*
X28280Y7414D01*
X28407Y7287D01*
X28534D01*
X28407Y7160D02*
X28534Y7287D01*
X28407Y7160D02*
X28534Y7033D01*
X28407D02*
X28534D01*
X28280Y6906D02*
X28407Y7033D01*
X28153Y9573D02*
X28280Y9446D01*
X28026Y9573D02*
X28153D01*
X28026D02*
X28153Y9700D01*
X28026Y9827D02*
X28153Y9700D01*
X28026Y9827D02*
X28153D01*
X28280Y9954D01*
X28407Y9827D01*
X28534D01*
X28407Y9700D02*
X28534Y9827D01*
X28407Y9700D02*
X28534Y9573D01*
X28407D02*
X28534D01*
X28280Y9446D02*
X28407Y9573D01*
X30693Y7033D02*
X30820Y6906D01*
X30566Y7033D02*
X30693D01*
X30566D02*
X30693Y7160D01*
X30566Y7287D02*
X30693Y7160D01*
X30566Y7287D02*
X30693D01*
X30820Y7414D01*
X30947Y7287D01*
X31074D01*
X30947Y7160D02*
X31074Y7287D01*
X30947Y7160D02*
X31074Y7033D01*
X30947D02*
X31074D01*
X30820Y6906D02*
X30947Y7033D01*
X30693Y9573D02*
X30820Y9446D01*
X30566Y9573D02*
X30693D01*
X30566D02*
X30693Y9700D01*
X30566Y9827D02*
X30693Y9700D01*
X30566Y9827D02*
X30693D01*
X30820Y9954D01*
X30947Y9827D01*
X31074D01*
X30947Y9700D02*
X31074Y9827D01*
X30947Y9700D02*
X31074Y9573D01*
X30947D02*
X31074D01*
X30820Y9446D02*
X30947Y9573D01*
X49246Y44823D02*
X49373D01*
X49246D02*
Y45077D01*
X49373D01*
Y45204D01*
X49627D01*
Y45077D02*
Y45204D01*
Y45077D02*
X49754D01*
Y44823D02*
Y45077D01*
X49627Y44823D02*
X49754D01*
X49627Y44696D02*
Y44823D01*
X49373Y44696D02*
X49627D01*
X49373D02*
Y44823D01*
X49246Y51823D02*
X49373D01*
X49246D02*
Y52077D01*
X49373D01*
Y52204D01*
X49627D01*
Y52077D02*
Y52204D01*
Y52077D02*
X49754D01*
Y51823D02*
Y52077D01*
X49627Y51823D02*
X49754D01*
X49627Y51696D02*
Y51823D01*
X49373Y51696D02*
X49627D01*
X49373D02*
Y51823D01*
D79*
X276390Y101188D02*
Y103016D01*
X277304D01*
X277609Y102712D01*
Y102102D01*
X277304Y101797D01*
X276390D01*
X276999D02*
X277609Y101188D01*
X278523D02*
X279132D01*
X279437Y101493D01*
Y102102D01*
X279132Y102407D01*
X278523D01*
X278218Y102102D01*
Y101493D01*
X278523Y101188D01*
X280046Y102407D02*
Y101493D01*
X280351Y101188D01*
X281265D01*
Y102407D01*
X282179Y102712D02*
Y102407D01*
X281875D01*
X282484D01*
X282179D01*
Y101493D01*
X282484Y101188D01*
X284312D02*
X283703D01*
X283398Y101493D01*
Y102102D01*
X283703Y102407D01*
X284312D01*
X284617Y102102D01*
Y101797D01*
X283398D01*
X286445Y103016D02*
Y101188D01*
X285531D01*
X285226Y101493D01*
Y102102D01*
X285531Y102407D01*
X286445D01*
X288883Y101188D02*
Y103016D01*
X289797D01*
X290101Y102712D01*
Y102102D01*
X289797Y101797D01*
X288883D01*
X291016Y102407D02*
X291625D01*
X291930Y102102D01*
Y101188D01*
X291016D01*
X290711Y101493D01*
X291016Y101797D01*
X291930D01*
X292844Y102712D02*
Y102407D01*
X292539D01*
X293148D01*
X292844D01*
Y101493D01*
X293148Y101188D01*
X294063Y103016D02*
Y101188D01*
Y102102D01*
X294367Y102407D01*
X294977D01*
X295281Y102102D01*
Y101188D01*
X297719Y103016D02*
Y101188D01*
X298938D01*
X300461D02*
X299852D01*
X299547Y101493D01*
Y102102D01*
X299852Y102407D01*
X300461D01*
X300766Y102102D01*
Y101797D01*
X299547D01*
X301375Y101188D02*
Y102407D01*
X302290D01*
X302594Y102102D01*
Y101188D01*
X303813Y100579D02*
X304118D01*
X304422Y100883D01*
Y102407D01*
X303508D01*
X303204Y102102D01*
Y101493D01*
X303508Y101188D01*
X304422D01*
X305337Y102712D02*
Y102407D01*
X305032D01*
X305641D01*
X305337D01*
Y101493D01*
X305641Y101188D01*
X306555Y103016D02*
Y101188D01*
Y102102D01*
X306860Y102407D01*
X307469D01*
X307774Y102102D01*
Y101188D01*
X248712Y103016D02*
Y101188D01*
Y102102D01*
X249931D01*
Y103016D01*
Y101188D01*
X250845D02*
X251454D01*
X251759Y101493D01*
Y102102D01*
X251454Y102407D01*
X250845D01*
X250540Y102102D01*
Y101493D01*
X250845Y101188D01*
X252368D02*
X252978D01*
X252673D01*
Y103016D01*
X252368D01*
X254806Y101188D02*
X254197D01*
X253892Y101493D01*
Y102102D01*
X254197Y102407D01*
X254806D01*
X255111Y102102D01*
Y101797D01*
X253892D01*
X257548Y103016D02*
Y101188D01*
X258767D01*
X260291D02*
X259681D01*
X259377Y101493D01*
Y102102D01*
X259681Y102407D01*
X260291D01*
X260595Y102102D01*
Y101797D01*
X259377D01*
X261205Y101188D02*
Y102407D01*
X262119D01*
X262424Y102102D01*
Y101188D01*
X263642Y100579D02*
X263947D01*
X264252Y100883D01*
Y102407D01*
X263338D01*
X263033Y102102D01*
Y101493D01*
X263338Y101188D01*
X264252D01*
X265166Y102712D02*
Y102407D01*
X264861D01*
X265471D01*
X265166D01*
Y101493D01*
X265471Y101188D01*
X266385Y103016D02*
Y101188D01*
Y102102D01*
X266689Y102407D01*
X267299D01*
X267603Y102102D01*
Y101188D01*
X214838Y103016D02*
Y101188D01*
Y102102D01*
X216057D01*
Y103016D01*
Y101188D01*
X216971D02*
X217581D01*
X217885Y101493D01*
Y102102D01*
X217581Y102407D01*
X216971D01*
X216667Y102102D01*
Y101493D01*
X216971Y101188D01*
X218495D02*
X219104D01*
X218799D01*
Y103016D01*
X218495D01*
X220932Y101188D02*
X220323D01*
X220018Y101493D01*
Y102102D01*
X220323Y102407D01*
X220932D01*
X221237Y102102D01*
Y101797D01*
X220018D01*
X223675Y103016D02*
X224893D01*
X224284D01*
Y101188D01*
X225808D02*
X226417D01*
X226722Y101493D01*
Y102102D01*
X226417Y102407D01*
X225808D01*
X225503Y102102D01*
Y101493D01*
X225808Y101188D01*
X227331D02*
X227941D01*
X227636D01*
Y103016D01*
X227331D01*
X229769Y101188D02*
X229159D01*
X228855Y101493D01*
Y102102D01*
X229159Y102407D01*
X229769D01*
X230073Y102102D01*
Y101797D01*
X228855D01*
X230683Y102407D02*
Y101188D01*
Y101797D01*
X230988Y102102D01*
X231292Y102407D01*
X231597D01*
X232816D02*
X233425D01*
X233730Y102102D01*
Y101188D01*
X232816D01*
X232511Y101493D01*
X232816Y101797D01*
X233730D01*
X234339Y101188D02*
Y102407D01*
X235253D01*
X235558Y102102D01*
Y101188D01*
X237386Y102407D02*
X236472D01*
X236167Y102102D01*
Y101493D01*
X236472Y101188D01*
X237386D01*
X238910D02*
X238300D01*
X237996Y101493D01*
Y102102D01*
X238300Y102407D01*
X238910D01*
X239214Y102102D01*
Y101797D01*
X237996D01*
X242261Y101188D02*
X241652Y101797D01*
Y102407D01*
X242261Y103016D01*
X243176Y102102D02*
X244394D01*
X245004Y101188D02*
X245613Y101797D01*
Y102407D01*
X245004Y103016D01*
X180965D02*
Y101188D01*
Y102102D01*
X182184D01*
Y103016D01*
Y101188D01*
X183098D02*
X183707D01*
X184012Y101493D01*
Y102102D01*
X183707Y102407D01*
X183098D01*
X182793Y102102D01*
Y101493D01*
X183098Y101188D01*
X184621D02*
X185231D01*
X184926D01*
Y103016D01*
X184621D01*
X187059Y101188D02*
X186449D01*
X186145Y101493D01*
Y102102D01*
X186449Y102407D01*
X187059D01*
X187363Y102102D01*
Y101797D01*
X186145D01*
X189801Y103016D02*
X191020D01*
X190410D01*
Y101188D01*
X191934D02*
X192543D01*
X192848Y101493D01*
Y102102D01*
X192543Y102407D01*
X191934D01*
X191629Y102102D01*
Y101493D01*
X191934Y101188D01*
X193457D02*
X194067D01*
X193762D01*
Y103016D01*
X193457D01*
X195895Y101188D02*
X195286D01*
X194981Y101493D01*
Y102102D01*
X195286Y102407D01*
X195895D01*
X196200Y102102D01*
Y101797D01*
X194981D01*
X196809Y102407D02*
Y101188D01*
Y101797D01*
X197114Y102102D01*
X197419Y102407D01*
X197723D01*
X198942D02*
X199551D01*
X199856Y102102D01*
Y101188D01*
X198942D01*
X198637Y101493D01*
X198942Y101797D01*
X199856D01*
X200466Y101188D02*
Y102407D01*
X201380D01*
X201684Y102102D01*
Y101188D01*
X203513Y102407D02*
X202598D01*
X202294Y102102D01*
Y101493D01*
X202598Y101188D01*
X203513D01*
X205036D02*
X204427D01*
X204122Y101493D01*
Y102102D01*
X204427Y102407D01*
X205036D01*
X205341Y102102D01*
Y101797D01*
X204122D01*
X208388Y101188D02*
X207778Y101797D01*
Y102407D01*
X208388Y103016D01*
X209302Y102102D02*
X210521D01*
X209911Y102712D02*
Y101493D01*
X211130Y101188D02*
X211740Y101797D01*
Y102407D01*
X211130Y103016D01*
X159279D02*
Y101188D01*
X160193D01*
X160498Y101493D01*
Y102712D01*
X160193Y103016D01*
X159279D01*
X162021Y101188D02*
X161412D01*
X161107Y101493D01*
Y102102D01*
X161412Y102407D01*
X162021D01*
X162326Y102102D01*
Y101797D01*
X161107D01*
X162936Y101188D02*
X163850D01*
X164154Y101493D01*
X163850Y101797D01*
X163240D01*
X162936Y102102D01*
X163240Y102407D01*
X164154D01*
X165983D02*
X165068D01*
X164764Y102102D01*
Y101493D01*
X165068Y101188D01*
X165983D01*
X166592Y102407D02*
Y101188D01*
Y101797D01*
X166897Y102102D01*
X167201Y102407D01*
X167506D01*
X168420Y101188D02*
X169030D01*
X168725D01*
Y102407D01*
X168420D01*
X169944Y100579D02*
Y102407D01*
X170858D01*
X171162Y102102D01*
Y101493D01*
X170858Y101188D01*
X169944D01*
X172077Y102712D02*
Y102407D01*
X171772D01*
X172381D01*
X172077D01*
Y101493D01*
X172381Y101188D01*
X173295D02*
X173905D01*
X173600D01*
Y102407D01*
X173295D01*
X175124Y101188D02*
X175733D01*
X176038Y101493D01*
Y102102D01*
X175733Y102407D01*
X175124D01*
X174819Y102102D01*
Y101493D01*
X175124Y101188D01*
X176647D02*
Y102407D01*
X177561D01*
X177866Y102102D01*
Y101188D01*
X140336D02*
Y103016D01*
X141250D01*
X141555Y102712D01*
Y102102D01*
X141250Y101797D01*
X140336D01*
X142469Y102407D02*
X143078D01*
X143383Y102102D01*
Y101188D01*
X142469D01*
X142164Y101493D01*
X142469Y101797D01*
X143383D01*
X145211Y103016D02*
Y101188D01*
X144297D01*
X143992Y101493D01*
Y102102D01*
X144297Y102407D01*
X145211D01*
X148867Y102712D02*
X148563Y103016D01*
X147953D01*
X147649Y102712D01*
Y102407D01*
X147953Y102102D01*
X148563D01*
X148867Y101797D01*
Y101493D01*
X148563Y101188D01*
X147953D01*
X147649Y101493D01*
X149477Y103016D02*
Y101188D01*
Y102102D01*
X149782Y102407D01*
X150391D01*
X150696Y102102D01*
Y101188D01*
X151610Y102407D02*
X152219D01*
X152524Y102102D01*
Y101188D01*
X151610D01*
X151305Y101493D01*
X151610Y101797D01*
X152524D01*
X153133Y100579D02*
Y102407D01*
X154047D01*
X154352Y102102D01*
Y101493D01*
X154047Y101188D01*
X153133D01*
X155876D02*
X155266D01*
X154962Y101493D01*
Y102102D01*
X155266Y102407D01*
X155876D01*
X156180Y102102D01*
Y101797D01*
X154962D01*
X125354Y103016D02*
Y101797D01*
X125963Y101188D01*
X126573Y101797D01*
Y103016D01*
X127182Y101188D02*
X127791D01*
X127487D01*
Y102407D01*
X127182D01*
X129010D02*
X129620D01*
X129924Y102102D01*
Y101188D01*
X129010D01*
X128705Y101493D01*
X129010Y101797D01*
X129924D01*
X130534Y101188D02*
X131752Y102407D01*
X132362Y101188D02*
Y103016D01*
X133276D01*
X133581Y102712D01*
Y102102D01*
X133276Y101797D01*
X132362D01*
X134495Y102407D02*
X135104D01*
X135409Y102102D01*
Y101188D01*
X134495D01*
X134190Y101493D01*
X134495Y101797D01*
X135409D01*
X137237Y103016D02*
Y101188D01*
X136323D01*
X136018Y101493D01*
Y102102D01*
X136323Y102407D01*
X137237D01*
X87265Y103016D02*
Y101188D01*
X88179D01*
X88484Y101493D01*
Y102712D01*
X88179Y103016D01*
X87265D01*
X89093Y102407D02*
Y101188D01*
Y101797D01*
X89398Y102102D01*
X89703Y102407D01*
X90007D01*
X90922Y101188D02*
X91531D01*
X91226D01*
Y102407D01*
X90922D01*
X92445Y101188D02*
X93054D01*
X92750D01*
Y103016D01*
X92445D01*
X93969Y101188D02*
X94578D01*
X94273D01*
Y103016D01*
X93969D01*
X97320D02*
Y101188D01*
X98539D01*
X99453Y102407D02*
X100063D01*
X100367Y102102D01*
Y101188D01*
X99453D01*
X99148Y101493D01*
X99453Y101797D01*
X100367D01*
X100977Y102407D02*
Y101493D01*
X101281Y101188D01*
X102195D01*
Y100883D01*
X101891Y100579D01*
X101586D01*
X102195Y101188D02*
Y102407D01*
X103719Y101188D02*
X103110D01*
X102805Y101493D01*
Y102102D01*
X103110Y102407D01*
X103719D01*
X104024Y102102D01*
Y101797D01*
X102805D01*
X104633Y102407D02*
Y101188D01*
Y101797D01*
X104938Y102102D01*
X105242Y102407D01*
X105547D01*
X108289Y101188D02*
Y103016D01*
X109204D01*
X109508Y102712D01*
Y102102D01*
X109204Y101797D01*
X108289D01*
X110422Y102407D02*
X111032D01*
X111337Y102102D01*
Y101188D01*
X110422D01*
X110118Y101493D01*
X110422Y101797D01*
X111337D01*
X111946Y101188D02*
X112555D01*
X112251D01*
Y102407D01*
X111946D01*
X113469D02*
Y101188D01*
Y101797D01*
X113774Y102102D01*
X114079Y102407D01*
X114384D01*
X68627Y103016D02*
Y101188D01*
Y102102D01*
X69845D01*
Y103016D01*
Y101188D01*
X70759D02*
X71369D01*
X71674Y101493D01*
Y102102D01*
X71369Y102407D01*
X70759D01*
X70455Y102102D01*
Y101493D01*
X70759Y101188D01*
X72283D02*
X72892D01*
X72588D01*
Y103016D01*
X72283D01*
X74721Y101188D02*
X74111D01*
X73806Y101493D01*
Y102102D01*
X74111Y102407D01*
X74721D01*
X75025Y102102D01*
Y101797D01*
X73806D01*
X77463Y103016D02*
X78682D01*
X78072D01*
Y101188D01*
X79291Y102407D02*
Y101493D01*
X79596Y101188D01*
X80510D01*
Y100883D01*
X80205Y100579D01*
X79900D01*
X80510Y101188D02*
Y102407D01*
X81119Y100579D02*
Y102407D01*
X82033D01*
X82338Y102102D01*
Y101493D01*
X82033Y101188D01*
X81119D01*
X83862D02*
X83252D01*
X82948Y101493D01*
Y102102D01*
X83252Y102407D01*
X83862D01*
X84166Y102102D01*
Y101797D01*
X82948D01*
X55777Y101188D02*
Y103016D01*
X56691D01*
X56996Y102712D01*
Y102102D01*
X56691Y101797D01*
X55777D01*
X57605Y101188D02*
X58215D01*
X57910D01*
Y103016D01*
X57605D01*
X59434Y102407D02*
X60043D01*
X60348Y102102D01*
Y101188D01*
X59434D01*
X59129Y101493D01*
X59434Y101797D01*
X60348D01*
X61262Y102712D02*
Y102407D01*
X60957D01*
X61567D01*
X61262D01*
Y101493D01*
X61567Y101188D01*
X63395D02*
X62785D01*
X62481Y101493D01*
Y102102D01*
X62785Y102407D01*
X63395D01*
X63700Y102102D01*
Y101797D01*
X62481D01*
X65528Y103016D02*
Y101188D01*
X64614D01*
X64309Y101493D01*
Y102102D01*
X64614Y102407D01*
X65528D01*
X26068Y103016D02*
Y101188D01*
Y102102D01*
X27287D01*
Y103016D01*
Y101188D01*
X28201D02*
X28810D01*
X29115Y101493D01*
Y102102D01*
X28810Y102407D01*
X28201D01*
X27896Y102102D01*
Y101493D01*
X28201Y101188D01*
X29724D02*
X30334D01*
X30029D01*
Y103016D01*
X29724D01*
X32162Y101188D02*
X31553D01*
X31248Y101493D01*
Y102102D01*
X31553Y102407D01*
X32162D01*
X32467Y102102D01*
Y101797D01*
X31248D01*
X36123Y102712D02*
X35818Y103016D01*
X35209D01*
X34904Y102712D01*
Y102407D01*
X35209Y102102D01*
X35818D01*
X36123Y101797D01*
Y101493D01*
X35818Y101188D01*
X35209D01*
X34904Y101493D01*
X36733Y101188D02*
X37342D01*
X37037D01*
Y102407D01*
X36733D01*
X38256D02*
X39475D01*
X38256Y101188D01*
X39475D01*
X40998D02*
X40389D01*
X40084Y101493D01*
Y102102D01*
X40389Y102407D01*
X40998D01*
X41303Y102102D01*
Y101797D01*
X40084D01*
X12305Y102712D02*
X12000Y103016D01*
X11391D01*
X11086Y102712D01*
Y101493D01*
X11391Y101188D01*
X12000D01*
X12305Y101493D01*
X13219Y101188D02*
X13828D01*
X14133Y101493D01*
Y102102D01*
X13828Y102407D01*
X13219D01*
X12914Y102102D01*
Y101493D01*
X13219Y101188D01*
X14742Y102407D02*
Y101493D01*
X15047Y101188D01*
X15961D01*
Y102407D01*
X16571Y101188D02*
Y102407D01*
X17485D01*
X17789Y102102D01*
Y101188D01*
X18703Y102712D02*
Y102407D01*
X18399D01*
X19008D01*
X18703D01*
Y101493D01*
X19008Y101188D01*
X-544Y102712D02*
X-849Y103016D01*
X-1459D01*
X-1763Y102712D01*
Y102407D01*
X-1459Y102102D01*
X-849D01*
X-544Y101797D01*
Y101493D01*
X-849Y101188D01*
X-1459D01*
X-1763Y101493D01*
X65Y102407D02*
Y101493D01*
X370Y101188D01*
X1284D01*
Y100883D01*
X979Y100579D01*
X674D01*
X1284Y101188D02*
Y102407D01*
X1893Y101188D02*
Y102407D01*
X2198D01*
X2503Y102102D01*
Y101188D01*
Y102102D01*
X2807Y102407D01*
X3112Y102102D01*
Y101188D01*
X3721Y103016D02*
Y101188D01*
X4635D01*
X4940Y101493D01*
Y101797D01*
Y102102D01*
X4635Y102407D01*
X3721D01*
X5854Y101188D02*
X6464D01*
X6768Y101493D01*
Y102102D01*
X6464Y102407D01*
X5854D01*
X5550Y102102D01*
Y101493D01*
X5854Y101188D01*
X7378D02*
X7987D01*
X7682D01*
Y103016D01*
X7378D01*
D80*
X24467Y69820D02*
Y68296D01*
Y69058D01*
X25483D01*
Y69820D01*
Y68296D01*
X26244D02*
X26752D01*
X27006Y68550D01*
Y69058D01*
X26752Y69312D01*
X26244D01*
X25991Y69058D01*
Y68550D01*
X26244Y68296D01*
X27514D02*
X28022D01*
X27768D01*
Y69820D01*
X27514D01*
X29545Y68296D02*
X29038D01*
X28784Y68550D01*
Y69058D01*
X29038Y69312D01*
X29545D01*
X29799Y69058D01*
Y68804D01*
X28784D01*
X31831Y69820D02*
Y68296D01*
X32846D01*
X34116D02*
X33608D01*
X33354Y68550D01*
Y69058D01*
X33608Y69312D01*
X34116D01*
X34370Y69058D01*
Y68804D01*
X33354D01*
X34878Y68296D02*
Y69312D01*
X35639D01*
X35893Y69058D01*
Y68296D01*
X36909Y67788D02*
X37163D01*
X37417Y68042D01*
Y69312D01*
X36655D01*
X36401Y69058D01*
Y68550D01*
X36655Y68296D01*
X37417D01*
X38179Y69566D02*
Y69312D01*
X37925D01*
X38432D01*
X38179D01*
Y68550D01*
X38432Y68296D01*
X39194Y69820D02*
Y68296D01*
Y69058D01*
X39448Y69312D01*
X39956D01*
X40210Y69058D01*
Y68296D01*
X24467Y70836D02*
Y72359D01*
X25229D01*
X25483Y72105D01*
Y71597D01*
X25229Y71343D01*
X24467D01*
X24975D02*
X25483Y70836D01*
X26244D02*
X26752D01*
X27006Y71090D01*
Y71597D01*
X26752Y71851D01*
X26244D01*
X25991Y71597D01*
Y71090D01*
X26244Y70836D01*
X27514Y71851D02*
Y71090D01*
X27768Y70836D01*
X28530D01*
Y71851D01*
X29291Y72105D02*
Y71851D01*
X29038D01*
X29545D01*
X29291D01*
Y71090D01*
X29545Y70836D01*
X31069D02*
X30561D01*
X30307Y71090D01*
Y71597D01*
X30561Y71851D01*
X31069D01*
X31323Y71597D01*
Y71343D01*
X30307D01*
X32846Y72359D02*
Y70836D01*
X32085D01*
X31831Y71090D01*
Y71597D01*
X32085Y71851D01*
X32846D01*
X34878Y70836D02*
Y72359D01*
X35639D01*
X35893Y72105D01*
Y71597D01*
X35639Y71343D01*
X34878D01*
X36655Y71851D02*
X37163D01*
X37417Y71597D01*
Y70836D01*
X36655D01*
X36401Y71090D01*
X36655Y71343D01*
X37417D01*
X38179Y72105D02*
Y71851D01*
X37925D01*
X38432D01*
X38179D01*
Y71090D01*
X38432Y70836D01*
X39194Y72359D02*
Y70836D01*
Y71597D01*
X39448Y71851D01*
X39956D01*
X40210Y71597D01*
Y70836D01*
X42241Y72359D02*
Y70836D01*
X43257D01*
X44527D02*
X44019D01*
X43765Y71090D01*
Y71597D01*
X44019Y71851D01*
X44527D01*
X44780Y71597D01*
Y71343D01*
X43765D01*
X45288Y70836D02*
Y71851D01*
X46050D01*
X46304Y71597D01*
Y70836D01*
X47320Y70328D02*
X47574D01*
X47827Y70582D01*
Y71851D01*
X47066D01*
X46812Y71597D01*
Y71090D01*
X47066Y70836D01*
X47827D01*
X48589Y72105D02*
Y71851D01*
X48335D01*
X48843D01*
X48589D01*
Y71090D01*
X48843Y70836D01*
X49605Y72359D02*
Y70836D01*
Y71597D01*
X49859Y71851D01*
X50367D01*
X50621Y71597D01*
Y70836D01*
X-748Y72105D02*
X-1002Y72359D01*
X-1509D01*
X-1763Y72105D01*
Y71851D01*
X-1509Y71597D01*
X-1002D01*
X-748Y71343D01*
Y71090D01*
X-1002Y70836D01*
X-1509D01*
X-1763Y71090D01*
X-240Y70836D02*
X268D01*
X14D01*
Y72359D01*
X-240D01*
X1284Y70836D02*
X1792D01*
X2045Y71090D01*
Y71597D01*
X1792Y71851D01*
X1284D01*
X1030Y71597D01*
Y71090D01*
X1284Y70836D01*
X2807Y72105D02*
Y71851D01*
X2553D01*
X3061D01*
X2807D01*
Y71090D01*
X3061Y70836D01*
X6362Y72359D02*
Y70836D01*
X5600D01*
X5346Y71090D01*
Y71597D01*
X5600Y71851D01*
X6362D01*
X7632Y70836D02*
X7124D01*
X6870Y71090D01*
Y71597D01*
X7124Y71851D01*
X7632D01*
X7886Y71597D01*
Y71343D01*
X6870D01*
X8647Y70836D02*
Y72105D01*
Y71597D01*
X8393D01*
X8901D01*
X8647D01*
Y72105D01*
X8901Y72359D01*
X9663Y70836D02*
X10171D01*
X9917D01*
Y71851D01*
X9663D01*
X10933Y70836D02*
Y71851D01*
X11694D01*
X11948Y71597D01*
Y70836D01*
X12456D02*
X12964D01*
X12710D01*
Y71851D01*
X12456D01*
X13980Y72105D02*
Y71851D01*
X13726D01*
X14234D01*
X13980D01*
Y71090D01*
X14234Y70836D01*
X14995D02*
X15503D01*
X15249D01*
Y71851D01*
X14995D01*
X16519Y70836D02*
X17027D01*
X17281Y71090D01*
Y71597D01*
X17027Y71851D01*
X16519D01*
X16265Y71597D01*
Y71090D01*
X16519Y70836D01*
X17788D02*
Y71851D01*
X18550D01*
X18804Y71597D01*
Y70836D01*
X19312D02*
X20074D01*
X20328Y71090D01*
X20074Y71343D01*
X19566D01*
X19312Y71597D01*
X19566Y71851D01*
X20328D01*
X22359D02*
X22613D01*
Y71597D01*
X22359D01*
Y71851D01*
Y71090D02*
X22613D01*
Y70836D01*
X22359D01*
Y71090D01*
M02*
